<!-- Generated by IcoMoon.io -->
<svg version="1.1" xmlns="http://www.w3.org/2000/svg" width="32" height="32" viewBox="0 0 32 32">
<title>client-logo-5</title>
<path fill="#afb1b8" d="M2.445 24.594c0.126 0.155 0.192 0.35 0.189 0.55 0.001 0.013 0.001 0.028 0.001 0.042 0 0.259-0.113 0.492-0.292 0.652l-0.001 0.001c-0.243 0.185-0.545 0.274-0.849 0.254h-1.492v-3.489h1.462c0.025-0.002 0.054-0.002 0.082-0.002 0.273 0 0.526 0.088 0.731 0.238l-0.003-0.002c0.174 0.147 0.284 0.366 0.284 0.61 0 0.014-0.001 0.030-0.002 0.044v-0.002c0.009 0.192-0.052 0.382-0.17 0.534-0.114 0.138-0.27 0.234-0.445 0.272 0.198 0.037 0.377 0.142 0.504 0.298zM0.694 24.067h0.624c0.142 0.011 0.283-0.030 0.398-0.116 0.083-0.076 0.135-0.186 0.135-0.306 0-0.012-0.001-0.024-0.002-0.036v0.002c0.001-0.009 0.001-0.019 0.001-0.030 0-0.122-0.051-0.233-0.134-0.311v0c-0.099-0.074-0.225-0.12-0.36-0.12-0.017 0-0.034 0.001-0.051 0.002h-0.611v0.915zM1.778 25.405c0.091-0.080 0.149-0.197 0.149-0.326 0-0.010 0-0.019-0.001-0.029v0.002c0.001-0.008 0.001-0.017 0.001-0.026 0-0.133-0.058-0.251-0.151-0.333l-0.001-0.001c-0.106-0.079-0.239-0.127-0.384-0.127-0.014 0-0.029 0.001-0.043 0.002h-0.653v0.959h0.663c0.15 0.009 0.298-0.034 0.419-0.121zM5.432 26.094l-0.813-1.363h-0.306v1.363h-0.699v-3.489h1.323c0.027-0.002 0.059-0.003 0.091-0.003 0.317 0 0.608 0.114 0.834 0.302l-0.002-0.002c0.196 0.201 0.318 0.476 0.318 0.779 0 0.25-0.082 0.481-0.222 0.667l0.002-0.003c-0.163 0.188-0.386 0.314-0.631 0.354l0.866 1.394h-0.76zM4.314 24.254h0.572c0.398 0 0.596-0.176 0.596-0.528 0.001-0.009 0.001-0.019 0.001-0.030 0-0.141-0.056-0.269-0.147-0.362v0c-0.106-0.090-0.245-0.144-0.397-0.144-0.019 0-0.038 0.001-0.056 0.002h-0.577l0.007 1.062zM9.254 25.391h-1.394l-0.246 0.702h-0.733l1.28-3.45h0.793l1.274 3.45h-0.733l-0.241-0.702zM9.068 24.863l-0.51-1.472-0.51 1.472h1.018zM14.040 26.094h-0.695l-1.557-2.372v2.372h-0.692v-3.489h0.692l1.557 2.386v-2.386h0.694v3.489zM18.002 25.258c-0.146 0.264-0.36 0.474-0.62 0.611l-0.008 0.004c-0.302 0.153-0.638 0.229-0.976 0.219h-1.237v-3.489h1.237c0.016-0.001 0.034-0.001 0.054-0.001 0.336 0 0.654 0.080 0.934 0.222l-0.012-0.006c0.266 0.134 0.485 0.346 0.629 0.609 0.137 0.266 0.218 0.582 0.218 0.915s-0.080 0.649-0.222 0.926l0.006-0.011zM17.207 25.175c0.191-0.222 0.307-0.514 0.307-0.833s-0.116-0.61-0.309-0.834l0.002 0.002c-0.211-0.186-0.49-0.299-0.794-0.299-0.026 0-0.053 0.001-0.078 0.002h-0.479v2.258h0.482c0.022 0.002 0.049 0.002 0.075 0.002 0.305 0 0.583-0.113 0.795-0.3l-0.002 0.001zM9.689 3.2s8.961 3.397 8.771 8.312v8.314s-8.954-3.398-8.767-8.314l-0.004-8.312zM26.442 17.879c1.604-1.122 3.542-1.877 5.639-2.102l0.054-0.005v-2.602c-2.396 0.945-4.35 2.582-5.665 4.662l-0.028 0.048z"></path>
<path fill="#afb1b8" d="M25.426 18.663c1.399-2.79 3.754-4.926 6.626-6.010l0.084-0.028v-7.498s-12.762 4.838-12.492 11.838v11.837s0.569-0.216 1.463-0.622c0-0.378 0-0.76 0.040-1.144 0.28-3.365 1.874-6.31 4.262-8.358l0.017-0.014z"></path>
<path fill="#afb1b8" d="M24.213 23.060c0.067-0.821 0.216-1.633 0.446-2.424-1.63 1.921-2.642 4.411-2.702 7.137v0.013c1.039-0.5 1.843-0.933 2.629-1.393l-0.174 0.094c-0.153-0.726-0.24-1.562-0.24-2.417 0-0.356 0.015-0.708 0.045-1.056l-0.003 0.046zM24.72 23.102c-0.025 0.287-0.039 0.622-0.039 0.959 0 0.758 0.072 1.499 0.209 2.218l-0.012-0.074c3.486-2.095 7.404-5.331 7.254-9.242v-0.341c-2.597 0.3-4.886 1.43-6.638 3.115l0.004-0.004c-0.401 0.987-0.678 2.131-0.774 3.326l-0.002 0.042z"></path>
</svg>
