<!-- Generated by IcoMoon.io -->
<svg version="1.1" xmlns="http://www.w3.org/2000/svg" width="32" height="32" viewBox="0 0 32 32">
<title>client-logo-6</title>
<path fill="#afb1b8" d="M16.063 15.409c-0.13-0.186-0.207-0.416-0.207-0.664 0-0.026 0.001-0.052 0.003-0.077v0.004-1.070c0-0.329 0.068-0.578 0.203-0.748s0.369-0.255 0.7-0.255c0.311 0 0.532 0.073 0.662 0.218 0.142 0.185 0.212 0.412 0.196 0.641v0.251h-0.556v-0.255c0-0.010 0.001-0.021 0.001-0.033 0-0.076-0.006-0.151-0.018-0.225l0.001 0.008c-0.009-0.059-0.038-0.11-0.079-0.148v0c-0.049-0.037-0.111-0.058-0.178-0.058-0.008 0-0.017 0.001-0.025 0.001h0.001c-0.007-0.001-0.015-0.001-0.023-0.001-0.071 0-0.136 0.023-0.189 0.062l0.001-0.001c-0.046 0.042-0.079 0.098-0.092 0.162l-0.001 0.002c-0.016 0.087-0.023 0.176-0.022 0.265v1.3c-0.001 0.015-0.002 0.032-0.002 0.050 0 0.115 0.027 0.223 0.075 0.319l-0.002-0.004c0.028 0.039 0.066 0.069 0.109 0.088l0.002 0.001c0.033 0.014 0.070 0.023 0.11 0.023 0.012 0 0.023-0.001 0.035-0.002h-0.002c0.007 0.001 0.015 0.001 0.023 0.001 0.066 0 0.126-0.023 0.174-0.060l-0.001 0.001c0.043-0.041 0.073-0.095 0.083-0.156v-0.002c0.013-0.086 0.019-0.173 0.018-0.26v-0.264h0.556v0.241c0.002 0.020 0.002 0.043 0.002 0.066 0 0.228-0.073 0.439-0.197 0.611l0.002-0.003c-0.127 0.159-0.345 0.238-0.665 0.238s-0.562-0.085-0.699-0.261zM18.378 15.42c-0.14-0.167-0.211-0.41-0.211-0.731v-1.127c0-0.318 0.070-0.558 0.211-0.722s0.375-0.245 0.704-0.244c0.327 0 0.56 0.082 0.701 0.244 0.14 0.164 0.212 0.404 0.212 0.722v1.127c0 0.318-0.072 0.562-0.214 0.73s-0.375 0.251-0.699 0.251-0.563-0.085-0.704-0.25zM19.341 15.149c0.050-0.104 0.073-0.219 0.067-0.333v-1.379c0.001-0.011 0.001-0.024 0.001-0.037 0-0.105-0.025-0.205-0.069-0.294l0.002 0.004c-0.029-0.039-0.067-0.070-0.111-0.089l-0.002-0.001c-0.032-0.014-0.070-0.022-0.109-0.022-0.013 0-0.026 0.001-0.039 0.003h0.002c-0.011-0.002-0.024-0.003-0.038-0.003-0.040 0-0.077 0.008-0.111 0.023l0.002-0.001c-0.046 0.020-0.085 0.051-0.113 0.089l-0.001 0.001c-0.051 0.102-0.074 0.214-0.067 0.327v1.386c-0.007 0.115 0.016 0.229 0.067 0.333 0.032 0.035 0.071 0.062 0.115 0.082l0.002 0.001c0.042 0.019 0.091 0.029 0.143 0.029s0.101-0.011 0.145-0.030l-0.003 0.001c0.046-0.020 0.085-0.048 0.117-0.083v0-0.007zM20.663 12.629h0.599l0.45 2.079 0.46-2.079h0.582l0.058 3h-0.43l-0.046-2.085-0.444 2.085h-0.345l-0.46-2.092-0.043 2.092h-0.435l0.054-3zM23.484 12.629h0.932c0.537 0 0.805 0.284 0.805 0.852 0 0.544-0.282 0.815-0.848 0.815h-0.317v1.333h-0.575l0.004-3zM24.28 13.911c0.057 0.007 0.115 0.002 0.169-0.014s0.105-0.044 0.148-0.080c0.066-0.102 0.095-0.22 0.083-0.339 0.001-0.010 0.001-0.023 0.001-0.035 0-0.084-0.010-0.166-0.029-0.245l0.002 0.007c-0.009-0.032-0.023-0.059-0.043-0.083l0.001 0.001c-0.020-0.024-0.044-0.045-0.072-0.060l-0.001-0.001c-0.067-0.030-0.144-0.049-0.226-0.049-0.011 0-0.022 0.001-0.032 0.001h-0.222v0.896h0.223zM26.051 12.629h0.618l0.634 3h-0.536l-0.125-0.692h-0.551l-0.129 0.692h-0.545l0.634-3zM26.579 14.589l-0.215-1.259-0.215 1.259h0.431zM27.815 12.629h0.402l0.771 1.711v-1.711h0.477v3h-0.383l-0.776-1.787v1.787h-0.494l0.001-3zM30.585 14.485l-0.641-1.852h0.54l0.391 1.19 0.367-1.19h0.528l-0.633 1.852v1.144h-0.553v-1.144zM16.952 16.94v0.157h-0.47v1.219h-0.197v-1.219h-0.472v-0.157h1.138zM18.424 18.316h-0.152c-0.001 0-0.003 0-0.004 0-0.014 0-0.028-0.005-0.039-0.013v0c-0.011-0.008-0.020-0.019-0.025-0.031v-0.001l-0.136-0.327h-0.651l-0.136 0.327c-0.004 0.014-0.011 0.027-0.021 0.037v0c-0.011 0.008-0.024 0.013-0.039 0.013-0.001 0-0.003 0-0.004 0h-0.152l0.575-1.376h0.2l0.582 1.37zM17.471 17.805h0.543l-0.23-0.56c-0.014-0.035-0.029-0.077-0.041-0.122l-0.002-0.007-0.022 0.073-0.021 0.057-0.228 0.559zM19.416 18.181c0.036 0.002 0.072 0.002 0.108 0 0.031-0.003 0.062-0.009 0.092-0.017 0.033-0.008 0.060-0.017 0.087-0.027l-0.005 0.002c0.025-0.010 0.051-0.022 0.077-0.034v-0.31h-0.23c-0.001 0-0.002 0-0.003 0-0.011 0-0.021-0.004-0.028-0.011v0c-0.007-0.006-0.011-0.014-0.011-0.024 0-0.001 0-0.001 0-0.002v0-0.106h0.446v0.527c-0.070 0.047-0.151 0.086-0.237 0.11l-0.006 0.002c-0.040 0.012-0.089 0.022-0.139 0.028l-0.005 0.001c-0.050 0.006-0.107 0.009-0.166 0.009-0.001 0-0.002 0-0.003 0v0c-0.002 0-0.004 0-0.007 0-0.102 0-0.199-0.019-0.289-0.053l0.006 0.002c-0.089-0.034-0.166-0.083-0.23-0.144l0.001 0.001c-0.062-0.060-0.113-0.133-0.147-0.214l-0.002-0.004c-0.034-0.082-0.053-0.177-0.053-0.276 0-0.003 0-0.006 0-0.009v0.001c0-0.003 0-0.006 0-0.009 0-0.101 0.019-0.196 0.054-0.284l-0.002 0.005c0.033-0.082 0.083-0.155 0.148-0.218s0.144-0.11 0.23-0.143c0.099-0.035 0.203-0.053 0.309-0.051 0.054 0 0.107 0.004 0.16 0.012 0.046 0.007 0.092 0.019 0.137 0.035 0.040 0.014 0.079 0.033 0.115 0.055s0.069 0.045 0.101 0.072l-0.056 0.085c-0.005 0.008-0.011 0.014-0.019 0.019v0c-0.008 0.005-0.017 0.007-0.026 0.007v0c-0.013-0.001-0.026-0.004-0.036-0.011h0.001c-0.023-0.012-0.041-0.022-0.059-0.034l0.003 0.002c-0.022-0.013-0.047-0.026-0.074-0.036l-0.004-0.001c-0.029-0.012-0.065-0.022-0.102-0.030l-0.004-0.001c-0.042-0.008-0.089-0.012-0.138-0.012-0.003 0-0.006 0-0.008 0h0.001c-0.002 0-0.005 0-0.007 0-0.077 0-0.151 0.014-0.219 0.040l0.004-0.002c-0.065 0.024-0.122 0.061-0.169 0.109-0.048 0.050-0.084 0.108-0.107 0.171-0.024 0.068-0.039 0.147-0.039 0.229s0.014 0.161 0.040 0.234l-0.002-0.005c0.025 0.065 0.065 0.124 0.115 0.173 0.047 0.047 0.104 0.084 0.168 0.109 0.073 0.024 0.151 0.033 0.228 0.027zM21.25 18.159h0.628v0.157h-0.821v-1.376h0.197l-0.005 1.219zM22.532 18.316h-0.197v-1.375h0.197v1.376zM23.264 16.947c0.012 0.007 0.022 0.015 0.029 0.025v0l0.841 1.037c-0.001-0.007-0.001-0.016-0.001-0.025s0.001-0.017 0.001-0.026v0.001-1.025h0.171v1.381h-0.099c-0.002 0-0.005 0.001-0.007 0.001-0.013 0-0.025-0.003-0.037-0.008h0.001c-0.012-0.007-0.022-0.016-0.031-0.026v0l-0.84-1.036v1.069h-0.165v-1.375h0.102c0.011 0 0.022 0.002 0.033 0.007zM25.755 16.94v0.152h-0.697v0.454h0.565v0.146h-0.565v0.47h0.697v0.152h-0.9v-1.372h0.9zM5.135 8.443l8.738 2.348v8.23l-8.737-2.347v-8.232zM4.575 7.742v9.332l9.857 2.65v-9.332l-9.857-2.651z"></path>
<path fill="#afb1b8" d="M9.858 24.057l-9.858-2.652v-9.332l9.858 2.651v9.333z"></path>
<path fill="#afb1b8" d="M4.739 8.338l8.623 2.319-3.667 3.473-8.625-2.32 3.668-3.472zM4.575 7.742l-4.575 4.331 9.858 2.651 4.574-4.331-9.857-2.651zM10.413 23.532l4.020-3.806-4.020-1.082v4.888z"></path>
</svg>
