<!-- Generated by IcoMoon.io -->
<svg version="1.1" xmlns="http://www.w3.org/2000/svg" width="32" height="32" viewBox="0 0 32 32">
<title>client-logo-4</title>
<path fill="none" stroke="#000" stroke-linejoin="miter" stroke-linecap="butt" stroke-miterlimit="4" stroke-width="0.3969" d="M4.922 12.757h0.001c0.793 0 1.427 0.626 1.427 1.386v0.001c0 0.761-0.634 1.386-1.427 1.386h-0.001c-0.793 0-1.427-0.626-1.427-1.386v-0.001c0-0.761 0.634-1.386 1.427-1.386zM7.885 18.503c-0.066 0.010-0.125 0.019-0.176 0.026v-6.476c0.003-1.162 0.477-2.276 1.322-3.099s1.99-1.287 3.187-1.289c1.196 0.003 2.341 0.467 3.186 1.29s1.318 1.937 1.321 3.098c0 0 0 0 0 0v0.001s0 0 0 0c-0.001 2.708-2.243 4.336-4.583 5.297-1.162 0.476-2.325 0.779-3.2 0.962-0.226 0.053-0.584 0.12-0.945 0.177l-0.11 0.014zM3.076 21.97c-0.146-0.028-0.276-0.082-0.39-0.157l0.004 0.003c-0.172-0.113-0.306-0.27-0.388-0.457l-0.003-0.007c-0.051-0.117-0.081-0.253-0.081-0.397 0-0.072 0.007-0.142 0.022-0.21l-0.001 0.006c0.044-0.21 0.147-0.39 0.29-0.53v0c0.148-0.145 0.336-0.242 0.54-0.282 0.061-0.012 0.132-0.020 0.204-0.020 0.145 0 0.284 0.029 0.41 0.081l-0.007-0.003c0.193 0.077 0.357 0.209 0.474 0.379s0.179 0.371 0.179 0.577M3.076 21.97v0.021h0.198c0 0 0.001 0 0.001 0 0.145 0 0.284-0.029 0.41-0.081l-0.007 0.003c0.128-0.052 0.244-0.128 0.343-0.224s0.177-0.21 0.23-0.337 0.080-0.261 0.080-0.398M3.076 21.97c0.065 0.012 0.132 0.018 0.198 0.018v-0.195l-0.198 0.177zM4.33 20.954h-0.198l0.198-0.001v0.001zM5.448 23.067c-0.562 0.545-1.329 0.881-2.174 0.881v0c-0.845-0.001-1.612-0.337-2.175-0.882l0.001 0.001c-0.553-0.535-0.897-1.284-0.901-2.112v-0.001c0-1.844 1.526-2.962 3.151-3.629 0.804-0.33 1.61-0.539 2.217-0.666 0.174-0.041 0.441-0.090 0.709-0.131l0.075-0.010v4.437c-0.005 0.829-0.349 1.576-0.901 2.111l-0.001 0.001z"></path>
<path d="M9.958 21.271v0.397h0.397v-0.397h-0.397zM9.288 21.271v-0.397h-0.397v0.397h0.397zM9.288 21.963v0.397h0.397v-0.397h-0.397zM8.939 21.963h-0.397v0.397h0.397v-0.397zM8.939 20.27v-0.397h-0.397v0.397h0.397zM10.042 20.27h0.397v-0.397h-0.397v0.397zM10.042 20.553v0.397h0.397v-0.397h-0.397zM9.288 20.553v-0.397h-0.397v0.397h0.397zM9.288 20.99h-0.397v0.397h0.397v-0.397zM9.958 20.99h0.397v-0.397h-0.397v0.397zM9.958 20.875h-0.669v0.794h0.669v-0.794zM8.891 21.271v0.691h0.794v-0.692h-0.794zM9.288 21.566h-0.349v0.794h0.349v-0.794zM9.336 21.963v-1.692h-0.794v1.693h0.794zM8.939 20.667h1.102v-0.794h-1.102v0.794zM9.645 20.27v0.283h0.794v-0.283h-0.794zM10.042 20.156h-0.753v0.794h0.753v-0.794zM8.891 20.553v0.437h0.794v-0.437h-0.794zM9.288 21.387h0.669v-0.794h-0.669v0.794zM9.561 20.99v0.282h0.794v-0.282h-0.794zM11.293 21.884l-0.209-0.338-0.001 0.001 0.21 0.337zM10.284 21.597l-0.357 0.172v0.001l0.357-0.173zM10.193 21.164h-0.397v0.002l0.397-0.002zM10.283 20.641l-0.359-0.171v0.001l0.359 0.17zM10.537 20.349l0.209 0.338 0.001-0.001-0.209-0.338zM11.29 20.349l-0.21 0.337 0.003 0.002 0.207-0.339zM11.544 20.641l-0.359 0.169 0.001 0.003 0.358-0.172zM10.643 20.673l0.325 0.227 0.001-0.001-0.326-0.226zM10.546 21.073l-0.397-0.002v0.002h0.397zM11.186 21.563l0.327 0.225 0.001-0.002-0.328-0.223zM11.281 21.161l0.397 0.002v-0.002h-0.397zM11.237 21.155c0 0.121-0.021 0.206-0.051 0.27l0.718 0.338c0.088-0.188 0.126-0.394 0.126-0.607h-0.794zM11.187 21.425c-0.022 0.051-0.058 0.092-0.102 0.121l-0.001 0.001 0.418 0.675c0.176-0.111 0.315-0.267 0.401-0.453l0.003-0.006-0.718-0.338zM11.083 21.547c-0.044 0.027-0.097 0.042-0.154 0.042-0.004 0-0.009 0-0.013-0.001h0.001v0.794c0.209 0 0.409-0.051 0.587-0.163l-0.421-0.673zM10.916 21.589c-0.003 0-0.007 0-0.011 0-0.058 0-0.112-0.016-0.158-0.044l0.002 0.001-0.415 0.677c0.178 0.109 0.377 0.159 0.583 0.159v-0.794zM10.748 21.547c-0.046-0.030-0.083-0.071-0.105-0.121l-0.001-0.002-0.715 0.347c0.091 0.188 0.226 0.343 0.406 0.454l0.415-0.677zM10.642 21.425c-0.033-0.073-0.053-0.157-0.053-0.246 0-0.006 0-0.011 0-0.017v0.001l-0.794 0.004c0.001 0.212 0.041 0.415 0.131 0.603l0.715-0.344zM10.59 21.164v-0.084h-0.794v0.083h0.794zM10.59 21.081c0-0.119 0.021-0.206 0.052-0.27l-0.718-0.339c-0.081 0.172-0.127 0.374-0.127 0.587 0 0.008 0 0.015 0 0.023v-0.001h0.794zM10.641 20.812c0.022-0.052 0.059-0.094 0.103-0.124l0.001-0.001-0.417-0.676c-0.177 0.111-0.315 0.267-0.402 0.453l-0.003 0.006 0.717 0.341zM10.746 20.686c0.045-0.027 0.099-0.043 0.156-0.043 0.004 0 0.008 0 0.012 0h-0.001v-0.794c-0.208 0-0.407 0.052-0.586 0.162l0.418 0.675zM10.914 20.644c0.074 0 0.125 0.017 0.165 0.042l0.42-0.673c-0.179-0.111-0.378-0.163-0.586-0.163v0.794zM11.082 20.687c0.046 0.029 0.081 0.071 0.102 0.121l0.001 0.002 0.718-0.338c-0.090-0.193-0.229-0.35-0.402-0.459l-0.004-0.003-0.415 0.677zM11.186 20.812c0.030 0.064 0.052 0.15 0.052 0.267h0.794c0-0.214-0.039-0.421-0.13-0.61l-0.716 0.342zM11.237 21.079v0.075h0.794v-0.075h-0.794zM11.678 21.078c0-0.214-0.036-0.443-0.165-0.63l-0.654 0.451c-0.002-0.003 0.005 0.005 0.012 0.036 0.007 0.031 0.013 0.077 0.013 0.143h0.794zM11.513 20.449c-0.129-0.188-0.343-0.31-0.585-0.31-0.005 0-0.010 0-0.014 0h0.001v0.794c0.006 0-0.005 0.001-0.023-0.009-0.012-0.006-0.022-0.014-0.031-0.025v0l0.654-0.451zM10.914 20.139c-0.004 0-0.009 0-0.013 0-0.241 0-0.454 0.121-0.582 0.306l-0.002 0.002 0.652 0.453c-0.009 0.010-0.019 0.018-0.031 0.025h-0.001c-0.018 0.010-0.030 0.009-0.024 0.009v-0.794zM10.318 20.445c-0.13 0.186-0.167 0.413-0.169 0.626l0.794 0.004c0-0.066 0.006-0.111 0.013-0.141s0.013-0.037 0.011-0.034l-0.65-0.455zM10.149 21.073v0.083h0.794v-0.083h-0.794zM10.149 21.155c0 0.214 0.038 0.437 0.162 0.623l0.66-0.441c-0.003-0.005-0.029-0.051-0.029-0.182h-0.794zM10.311 21.778c0.14 0.211 0.359 0.319 0.604 0.319v-0.794c-0.006 0 0.006-0.001 0.026 0.009 0.009 0.005 0.016 0.010 0.022 0.016v0c0.005 0.005 0.008 0.009 0.008 0.009l-0.66 0.441zM10.916 22.097c0.239 0 0.455-0.103 0.597-0.309l-0.654-0.449c0.009-0.011 0.020-0.019 0.032-0.026l0.001-0.001c0.019-0.010 0.031-0.009 0.025-0.009v0.794zM11.514 21.786c0.126-0.186 0.164-0.411 0.164-0.624l-0.794-0.003c0 0.066-0.006 0.112-0.013 0.143s-0.014 0.039-0.013 0.038l0.656 0.446zM11.678 21.161v-0.083h-0.794v0.083h0.794zM12.697 21.367l-0.242 0.315 0.004 0.002 0.238-0.317zM12.445 21.257l-0.123 0.377 0.002 0.001 0.122-0.378zM12.158 21.14v0zM11.946 20.476l-0.322-0.232-0.001 0.001 0.323 0.231zM12.169 20.307l-0.153-0.366-0.001 0.001 0.153 0.366zM12.817 20.313l-0.168 0.359 0.002 0.001 0.165-0.361zM13.037 20.498l-0.333 0.217 0.001 0.002 0.331-0.219zM13.116 20.77v0.397h0.397v-0.397h-0.397zM12.767 20.77h-0.397v0.397h0.397v-0.397zM12.694 20.59l-0.264 0.297 0.003 0.002 0.261-0.299zM12.289 20.579l0.239 0.317 0.003-0.003-0.242-0.314zM12.301 20.86l-0.222 0.329 0.002 0.001 0.22-0.33zM12.546 20.964l-0.115 0.38h0.001l0.114-0.38zM12.95 21.862l0.238 0.318 0.001-0.001-0.239-0.317zM12.146 21.915l-0.163 0.362 0.002 0.001 0.161-0.363zM11.901 21.719l-0.33 0.222 0.001 0.002 0.328-0.224zM11.817 21.431v-0.397h-0.397v0.397h0.397zM12.167 21.431h0.397v-0.397h-0.397v0.397zM12.696 21.661l0.231 0.323 0.004-0.003-0.235-0.32zM13.163 21.519c0-0.172-0.068-0.348-0.228-0.468l-0.476 0.635c-0.030-0.023-0.054-0.052-0.070-0.086l-0.001-0.002c-0.011-0.023-0.018-0.051-0.019-0.079v0h0.794zM12.938 21.053c-0.105-0.081-0.246-0.134-0.372-0.174l-0.242 0.756c0.052 0.017 0.089 0.031 0.113 0.042 0.028 0.012 0.029 0.016 0.018 0.007l0.483-0.63zM12.569 20.879c-0.086-0.027-0.16-0.057-0.23-0.092l0.008 0.004-0.377 0.699c0.1 0.054 0.22 0.101 0.353 0.145l0.246-0.755zM12.346 20.79c-0.031-0.014-0.058-0.035-0.079-0.060l-0.001-0.001v-0.002c-0.001-0.002-0.001-0.005-0.001-0.008v0h-0.794c0 0.359 0.213 0.615 0.497 0.769l0.377-0.699zM12.267 20.721v-0.009l0.001-0.002v-0.001l0.001-0.002-0.645-0.463c-0.102 0.142-0.151 0.305-0.151 0.476h0.794zM12.268 20.708c0.002-0.003 0.013-0.018 0.053-0.035l-0.307-0.732c-0.152 0.063-0.289 0.162-0.39 0.303l0.644 0.464zM12.321 20.674c0.042-0.018 0.098-0.030 0.173-0.030v-0.794c-0.165 0-0.326 0.028-0.478 0.091l0.305 0.733zM12.494 20.644c0.004 0 0.008 0 0.013 0 0.051 0 0.1 0.011 0.145 0.030l-0.002-0.001 0.337-0.719c-0.14-0.065-0.304-0.103-0.477-0.103-0.005 0-0.011 0-0.015 0h0.001v0.794zM12.652 20.674c0.022 0.008 0.040 0.022 0.053 0.040v0.001l0.665-0.433c-0.095-0.144-0.227-0.257-0.381-0.327l-0.006-0.002-0.331 0.722zM12.706 20.717c0.009 0.013 0.014 0.029 0.014 0.047 0 0.002 0 0.005 0 0.007v-0.001h0.794c0-0.174-0.046-0.342-0.145-0.491l-0.662 0.437zM13.116 20.373h-0.349v0.794h0.349v-0.794zM13.164 20.77c0-0.168-0.057-0.347-0.209-0.479l-0.522 0.598c-0.022-0.020-0.039-0.044-0.051-0.071l-0.001-0.001c-0.006-0.013-0.010-0.029-0.011-0.046v-0.001h0.794zM12.957 20.293c-0.143-0.128-0.318-0.165-0.469-0.165v0.794c0.013 0 0.010 0.002-0.002-0.002-0.021-0.007-0.040-0.019-0.055-0.033v0l0.527-0.594zM12.488 20.128c-0.137 0-0.3 0.029-0.441 0.138l0.484 0.629c-0.014 0.012-0.032 0.021-0.051 0.028l-0.001 0.001c-0.008 0.002-0.007 0 0.009 0v-0.794zM12.050 20.263c-0.14 0.104-0.229 0.269-0.229 0.454 0 0.002 0 0.003 0 0.004v0h0.794c-0.001 0.036-0.009 0.069-0.025 0.099l0.001-0.001c-0.015 0.031-0.037 0.057-0.062 0.077l-0.001 0.001-0.478-0.634zM11.821 20.721c0 0.215 0.119 0.374 0.257 0.468l0.445-0.658c0.023 0.017 0.042 0.038 0.056 0.062l0.001 0.001c0.024 0.040 0.036 0.085 0.036 0.128h-0.794zM12.081 21.19c0.103 0.069 0.227 0.117 0.35 0.155l0.23-0.76c-0.053-0.014-0.1-0.033-0.143-0.057l0.003 0.002-0.441 0.66zM12.432 21.345c0.172 0.052 0.246 0.102 0.271 0.126l0.554-0.569c-0.157-0.153-0.371-0.25-0.596-0.317l-0.229 0.759zM12.703 21.471c0.005 0.004 0.009 0.010 0.012 0.015v0.001c0.003 0.008 0.004 0.017 0.004 0.026 0 0.001 0 0.003 0 0.004v0h0.794c0-0.234-0.085-0.448-0.256-0.614l-0.554 0.569zM12.719 21.516c0 0.012-0.001 0.019-0.002 0.022v0l-0.007 0.007 0.478 0.634c0.217-0.164 0.324-0.399 0.324-0.662h-0.794zM12.712 21.545c-0.021 0.016-0.078 0.045-0.21 0.045v0.794c0.243 0 0.485-0.053 0.685-0.204l-0.476-0.635zM12.502 21.589c-0.081 0-0.144-0.015-0.195-0.037l-0.321 0.726c0.163 0.072 0.338 0.105 0.516 0.105v-0.794zM12.309 21.554c-0.033-0.012-0.060-0.032-0.080-0.058l-0.001-0.001-0.655 0.447c0.104 0.153 0.248 0.262 0.411 0.334l0.325-0.724zM12.23 21.498c-0.007-0.012-0.016-0.029-0.016-0.067h-0.794c0 0.181 0.047 0.355 0.151 0.51l0.659-0.443zM11.817 21.828h0.35v-0.794h-0.35v0.794zM11.77 21.431c0 0.174 0.055 0.372 0.226 0.514 0.156 0.131 0.348 0.163 0.506 0.163v-0.794c-0.029 0-0.041-0.003-0.039-0.003 0.017 0.006 0.031 0.014 0.044 0.026v0c0.022 0.019 0.039 0.042 0.050 0.069l0.001 0.001c0.009 0.021 0.007 0.033 0.007 0.025h-0.794zM12.502 22.108c0.13 0 0.287-0.026 0.426-0.125l-0.462-0.645c0.014-0.011 0.030-0.019 0.048-0.024h0.001c0.007-0.002 0.004 0-0.012 0v0.794zM12.931 21.981c0.155-0.113 0.232-0.282 0.232-0.462h-0.794c0.002-0.073 0.038-0.137 0.092-0.178l0.001-0.001 0.469 0.64zM14.628 20.553v0.397h0.397v-0.397h-0.397zM14.109 20.553v-0.397h-0.397v0.397h0.397zM14.109 21.963v0.397h0.397v-0.397h-0.397zM13.76 21.963h-0.397v0.397h0.397v-0.397zM13.76 20.553h0.397v-0.397h-0.397v0.397zM13.249 20.553h-0.397v0.397h0.397v-0.397zM13.249 20.27v-0.397h-0.397v0.397h0.397zM14.628 20.27h0.397v-0.397h-0.397v0.397zM14.628 20.156h-0.519v0.794h0.519v-0.794zM13.712 20.553v1.41h0.794v-1.41h-0.794zM14.109 21.566h-0.349v0.794h0.349v-0.794zM14.157 21.963v-1.41h-0.794v1.41h0.794zM13.76 20.156h-0.511v0.794h0.512v-0.794zM13.645 20.553v-0.283h-0.794v0.283h0.794zM13.249 20.667h1.379v-0.794h-1.379v0.794zM14.231 20.27v0.283h0.794v-0.283h-0.794zM15.846 21.229v0.397h0.397v-0.397h-0.397zM15.176 21.229v-0.397h-0.397v0.397h0.397zM15.176 21.683h-0.397v0.397h0.397v-0.397zM15.963 21.683h0.397v-0.397h-0.397v0.397zM15.963 21.963v0.397h0.397v-0.397h-0.397zM14.827 21.963h-0.397v0.397h0.397v-0.397zM14.827 20.27v-0.397h-0.397v0.397h0.397zM15.96 20.27h0.397v-0.397h-0.397v0.397zM15.96 20.553v0.397h0.397v-0.397h-0.397zM15.176 20.553v-0.397h-0.397v0.397h0.397zM15.176 20.956h-0.397v0.397h0.397v-0.397zM15.846 20.956h0.397v-0.397h-0.397v0.397zM15.846 20.833h-0.67v0.794h0.67v-0.794zM14.779 21.229v0.453h0.794v-0.453h-0.794zM15.176 22.079h0.786v-0.794h-0.786v0.794zM15.566 21.683v0.28h0.794v-0.28h-0.794zM15.963 21.566h-1.135v0.794h1.135v-0.794zM15.225 21.963v-1.692h-0.794v1.693h0.794zM14.827 20.667h1.133v-0.794h-1.132v0.794zM15.563 20.27v0.283h0.794v-0.283h-0.794zM15.96 20.156h-0.784v0.794h0.784v-0.794zM14.779 20.553v0.403h0.794v-0.403h-0.794zM15.176 21.353h0.67v-0.794h-0.67v0.794zM15.449 20.956v0.274h0.794v-0.274h-0.794zM16.794 21.343l0.353-0.181-0.111-0.216h-0.243v0.397zM16.516 21.343v-0.397h-0.397v0.397h0.397zM16.516 21.963v0.397h0.397v-0.397h-0.397zM16.167 21.963h-0.397v0.397h0.397v-0.397zM16.167 20.27v-0.397h-0.397v0.397h0.397zM17.346 21.071l-0.333-0.217-0.001 0.001 0.333 0.215zM17.119 21.255l-0.163-0.362-0.386 0.174 0.198 0.374 0.351-0.186zM17.486 21.947h0.397v-0.099l-0.046-0.087-0.351 0.186zM17.486 21.963v0.397h0.397v-0.397h-0.397zM17.111 21.963l-0.353 0.181 0.111 0.216h0.242v-0.397zM16.516 21.061h-0.397v0.397h0.397v-0.397zM17.001 20.995l0.269 0.292 0.002-0.002-0.271-0.29zM17.004 20.621l-0.283 0.278 0.002 0.003 0.281-0.281zM16.516 20.553v-0.397h-0.397v0.397h0.397zM16.794 20.947h-0.278v0.794h0.278v-0.794zM16.119 21.343v0.62h0.794v-0.62h-0.794zM16.516 21.566h-0.349v0.794h0.349v-0.794zM16.564 21.963v-1.692h-0.794v1.693h0.794zM16.167 20.667h0.629v-0.794h-0.629v0.794zM16.796 20.667c0.146 0 0.198 0.033 0.21 0.044l0.504-0.614c-0.204-0.168-0.461-0.224-0.715-0.224v0.794zM17.007 20.711c0.004 0.003 0.007 0.007 0.010 0.011v0c0.002 0.005 0.008 0.022 0.008 0.060h0.794c0-0.26-0.092-0.508-0.308-0.685l-0.504 0.613zM17.025 20.782c0 0.029-0.003 0.047-0.006 0.059-0.003 0.010-0.005 0.014-0.005 0.014l0.666 0.433c0.102-0.156 0.14-0.333 0.14-0.506h-0.794zM17.013 20.855c-0.003 0.004-0.006 0.007-0.011 0.011v0c-0.013 0.010-0.028 0.019-0.045 0.026l-0.002 0.001 0.326 0.724c0.156-0.070 0.298-0.176 0.397-0.33l-0.667-0.431zM16.769 21.441l0.366 0.692 0.702-0.371-0.366-0.692-0.702 0.372zM17.089 21.947v0.016h0.794v-0.016h-0.794zM17.486 21.566h-0.375v0.794h0.375v-0.794zM17.465 21.782l-0.317-0.62-0.707 0.362 0.317 0.62 0.707-0.362zM16.516 21.458h0.282v-0.794h-0.282v0.794zM16.797 21.458c0.153 0 0.329-0.039 0.472-0.171l-0.538-0.585c0.017-0.015 0.036-0.028 0.058-0.035l0.001-0.001c0.013-0.004 0.018-0.003 0.006-0.003v0.794zM17.272 21.284c0.143-0.134 0.198-0.309 0.198-0.475h-0.794c0-0.001 0-0.016 0.009-0.039 0.010-0.026 0.026-0.047 0.044-0.066v0l0.542 0.58zM17.47 20.81c0-0.159-0.048-0.332-0.185-0.469l-0.561 0.562c-0.018-0.018-0.031-0.039-0.041-0.062l-0.001-0.001c-0.007-0.020-0.007-0.031-0.007-0.029h0.794zM17.287 20.343c-0.148-0.151-0.34-0.187-0.491-0.187v0.794c0.016 0 0.013 0.002-0.002-0.003-0.029-0.011-0.053-0.027-0.073-0.047v0l0.566-0.556zM16.796 20.156h-0.281v0.794h0.281v-0.794zM16.119 20.553v0.508h0.794v-0.508h-0.794zM18.63 21.366v-0.397h-0.397v0.397h0.397zM18.63 21.963v0.397h0.397v-0.397h-0.397zM18.281 21.963h-0.397v0.397h0.397v-0.397zM18.281 20.27v-0.397h-0.397v0.397h0.397zM19.277 20.34l-0.173 0.357 0.001 0.001 0.172-0.358zM19.5 20.539l-0.34 0.205 0.001 0.002 0.339-0.206zM19.407 21.223v0zM18.63 21.084h-0.397v0.397h0.397v-0.397zM19.152 21.019l-0.263-0.297-0.002 0.002 0.266 0.294zM18.949 20.553l0.007-0.397h-0.007v0.397zM18.63 20.553v-0.397h-0.397v0.397h0.397zM18.233 21.366v0.597h0.794v-0.596h-0.794zM18.63 21.566h-0.349v0.794h0.349v-0.794zM18.678 21.963v-1.692h-0.794v1.693h0.794zM18.281 20.667h0.661v-0.794h-0.66v0.794zM18.942 20.667c0.078 0 0.129 0.014 0.162 0.030l0.346-0.715c-0.144-0.069-0.313-0.11-0.492-0.11-0.006 0-0.012 0-0.018 0h0.001v0.794zM19.105 20.698c0.023 0.010 0.042 0.026 0.055 0.045l0.001 0.001 0.679-0.41c-0.094-0.153-0.227-0.274-0.386-0.349l-0.005-0.002-0.343 0.716zM19.161 20.746c0.013 0.022 0.020 0.048 0.020 0.076 0 0.003 0 0.006-0.001 0.010v-0.001h0.794c0-0.175-0.043-0.345-0.136-0.499l-0.678 0.413zM19.181 20.831c0 0.063-0.016 0.078-0.030 0.090l0.512 0.607c0.214-0.181 0.311-0.429 0.311-0.697h-0.794zM19.151 20.92c-0.019 0.017-0.075 0.050-0.215 0.050v0.794c0.261 0 0.52-0.062 0.727-0.237l-0.511-0.607zM18.935 20.97h-0.306v0.794h0.306v-0.794zM18.63 21.481h0.311v-0.794h-0.311v0.794zM18.942 21.481c0.149 0 0.33-0.035 0.476-0.167l-0.532-0.589c0.017-0.015 0.037-0.028 0.059-0.035l0.001-0.001c0.011-0.004 0.012-0.001-0.004-0.001v0.794zM19.416 21.316c0.153-0.136 0.206-0.317 0.206-0.483h-0.794c0 0.001 0-0.015 0.009-0.038 0.012-0.029 0.029-0.053 0.051-0.072v0l0.527 0.594zM19.622 20.833c0-0.166-0.052-0.338-0.183-0.476l-0.574 0.548c-0.013-0.014-0.023-0.030-0.030-0.048l-0.001-0.001c-0.006-0.017-0.005-0.026-0.005-0.024h0.794zM19.439 20.357c-0.138-0.143-0.315-0.198-0.482-0.202l-0.014 0.794c0.005 0-0.005 0.001-0.022-0.006-0.022-0.009-0.041-0.022-0.055-0.038v0l0.574-0.548zM18.949 20.156h-0.319v0.794h0.319v-0.794zM18.233 20.553v0.531h0.794v-0.532h-0.794zM20.837 21.229v0.397h0.397v-0.397h-0.397zM20.167 21.229v-0.397h-0.397v0.397h0.397zM20.167 21.683h-0.397v0.397h0.397v-0.397zM20.953 21.683h0.397v-0.397h-0.397v0.397zM20.953 21.963v0.397h0.397v-0.397h-0.397zM19.818 21.963h-0.397v0.397h0.397v-0.397zM19.818 20.27v-0.397h-0.397v0.397h0.397zM20.951 20.27h0.397v-0.397h-0.397v0.397zM20.951 20.553v0.397h0.397v-0.397h-0.397zM20.167 20.553v-0.397h-0.397v0.397h0.397zM20.167 20.956h-0.397v0.397h0.397v-0.397zM20.837 20.956h0.397v-0.397h-0.397v0.397zM20.837 20.833h-0.669v0.794h0.669v-0.794zM19.77 21.229v0.453h0.794v-0.453h-0.794zM20.167 22.079h0.786v-0.794h-0.786v0.794zM20.556 21.683v0.28h0.794v-0.28h-0.794zM20.953 21.566h-1.135v0.794h1.135v-0.794zM20.215 21.963v-1.692h-0.794v1.693h0.794zM19.818 20.667h1.133v-0.794h-1.132v0.794zM20.554 20.27v0.283h0.794v-0.283h-0.794zM20.951 20.156h-0.783v0.794h0.783v-0.794zM19.77 20.553v0.403h0.794v-0.403h-0.794zM20.167 21.353h0.669v-0.794h-0.669v0.794zM20.44 20.956v0.274h0.794v-0.274h-0.794zM22.455 20.553v0.397h0.397v-0.397h-0.397zM21.937 20.553v-0.397h-0.397v0.397h0.397zM21.937 21.963v0.397h0.397v-0.397h-0.397zM21.588 21.963h-0.397v0.397h0.397v-0.397zM21.588 20.553h0.397v-0.397h-0.397v0.397zM21.077 20.553h-0.397v0.397h0.397v-0.397zM21.077 20.27v-0.397h-0.397v0.397h0.397zM22.455 20.27h0.397v-0.397h-0.397v0.397zM22.455 20.156h-0.518v0.794h0.518v-0.794zM21.54 20.553v1.41h0.794v-1.41h-0.794zM21.937 21.566h-0.349v0.794h0.349v-0.794zM21.985 21.963v-1.41h-0.794v1.41h0.794zM21.588 20.156h-0.511v0.794h0.511v-0.794zM21.474 20.553v-0.283h-0.794v0.283h0.794zM21.077 20.667h1.379v-0.794h-1.379v0.794zM22.059 20.27v0.283h0.794v-0.283h-0.794zM23.674 21.229v0.397h0.397v-0.397h-0.397zM23.004 21.229v-0.397h-0.397v0.397h0.397zM23.004 21.683h-0.397v0.397h0.397v-0.397zM23.79 21.683h0.397v-0.397h-0.397v0.397zM23.79 21.963v0.397h0.397v-0.397h-0.397zM22.655 21.963h-0.397v0.397h0.397v-0.397zM22.655 20.27v-0.397h-0.397v0.397h0.397zM23.788 20.27h0.397v-0.397h-0.397v0.397zM23.788 20.553v0.397h0.397v-0.397h-0.397zM23.004 20.553v-0.397h-0.397v0.397h0.397zM23.004 20.956h-0.397v0.397h0.397v-0.397zM23.674 20.956h0.397v-0.397h-0.397v0.397zM23.674 20.833h-0.67v0.794h0.67v-0.794zM22.607 21.229v0.453h0.794v-0.453h-0.794zM23.004 22.079h0.786v-0.794h-0.786v0.794zM23.393 21.683v0.28h0.794v-0.28h-0.794zM23.79 21.566h-1.135v0.794h1.135v-0.794zM23.052 21.963v-1.692h-0.794v1.693h0.794zM22.655 20.667h1.133v-0.794h-1.133v0.794zM23.391 20.27v0.283h0.794v-0.283h-0.794zM23.788 20.156h-0.784v0.794h0.784v-0.794zM22.607 20.553v0.403h0.794v-0.403h-0.794zM23.004 21.353h0.67v-0.794h-0.67v0.794zM23.277 20.956v0.274h0.794v-0.274h-0.794zM24.622 21.343l0.353-0.181-0.11-0.216h-0.243v0.397zM24.344 21.343v-0.397h-0.397v0.397h0.397zM24.344 21.963v0.397h0.397v-0.397h-0.397zM23.995 21.963h-0.397v0.397h0.397v-0.397zM23.995 20.27v-0.397h-0.397v0.397h0.397zM25.174 21.071l-0.333-0.217-0.001 0.001 0.333 0.215zM24.948 21.255l-0.163-0.362-0.386 0.174 0.198 0.374 0.351-0.186zM25.314 21.947h0.397v-0.099l-0.046-0.087-0.351 0.186zM25.314 21.963v0.397h0.397v-0.397h-0.397zM24.939 21.963l-0.353 0.181 0.111 0.216h0.243v-0.397zM24.344 21.061h-0.397v0.397h0.397v-0.397zM24.829 20.995l0.269 0.292 0.002-0.002-0.271-0.29zM24.833 20.621l-0.283 0.278 0.003 0.003 0.281-0.281zM24.344 20.553v-0.397h-0.397v0.397h0.397zM24.622 20.947h-0.278v0.794h0.278v-0.794zM23.947 21.343v0.62h0.794v-0.62h-0.794zM24.344 21.566h-0.349v0.794h0.349v-0.794zM24.392 21.963v-1.692h-0.794v1.693h0.794zM23.995 20.667h0.629v-0.794h-0.629v0.794zM24.624 20.667c0.147 0 0.198 0.033 0.211 0.044l0.503-0.614c-0.204-0.168-0.461-0.224-0.715-0.224v0.794zM24.835 20.711c0.006 0.005 0.008 0.008 0.009 0.012 0.005 0.015 0.009 0.033 0.009 0.051 0 0.003 0 0.006-0.001 0.009v-0.001h0.794c0-0.26-0.092-0.508-0.308-0.685l-0.504 0.613zM24.853 20.782c0 0.029-0.003 0.047-0.006 0.059-0.003 0.010-0.005 0.014-0.005 0.014l0.665 0.433c0.102-0.156 0.14-0.333 0.14-0.506h-0.794zM24.841 20.855c-0.003 0.004-0.006 0.007-0.010 0.011v0c-0.013 0.010-0.028 0.019-0.045 0.026l-0.002 0.001 0.326 0.724c0.156-0.070 0.298-0.176 0.397-0.33l-0.666-0.431zM24.597 21.441l0.366 0.692 0.701-0.371-0.366-0.692-0.701 0.372zM24.916 21.947v0.016h0.794v-0.016h-0.794zM25.314 21.566h-0.374v0.794h0.375v-0.794zM25.292 21.782l-0.317-0.62-0.707 0.362 0.317 0.62 0.707-0.362zM24.344 21.458h0.282v-0.794h-0.282v0.794zM24.626 21.458c0.152 0 0.329-0.039 0.472-0.171l-0.538-0.585c0.017-0.015 0.036-0.028 0.058-0.035l0.001-0.001c0.014-0.004 0.018-0.003 0.006-0.003v0.794zM25.1 21.284c0.143-0.134 0.198-0.309 0.198-0.475h-0.794c0-0.001 0.001-0.016 0.009-0.039 0.011-0.026 0.026-0.047 0.045-0.066v0l0.542 0.58zM25.298 20.81c0-0.159-0.047-0.332-0.185-0.469l-0.562 0.562c-0.018-0.018-0.031-0.039-0.040-0.062l-0.001-0.001c-0.007-0.020-0.007-0.031-0.007-0.029h0.794zM25.115 20.343c-0.148-0.151-0.34-0.187-0.491-0.187v0.794c0.016 0 0.013 0.002-0.002-0.003-0.029-0.011-0.053-0.027-0.073-0.047v0l0.566-0.556zM24.624 20.156h-0.28v0.794h0.28v-0.794zM23.947 20.553v0.508h0.794v-0.508h-0.794zM26.324 21.367l-0.242 0.315 0.003 0.002 0.238-0.317zM26.073 21.257l-0.123 0.377 0.002 0.001 0.122-0.378zM25.786 21.14v0zM25.574 20.476l-0.322-0.232v0.001l0.322 0.231zM25.796 20.307l-0.153-0.366-0.001 0.001 0.153 0.366zM26.445 20.313l-0.168 0.359 0.002 0.001 0.165-0.361zM26.665 20.498l-0.333 0.217 0.001 0.002 0.331-0.219zM26.744 20.77v0.397h0.397v-0.397h-0.397zM26.395 20.77h-0.397v0.397h0.397v-0.397zM26.322 20.59l-0.264 0.297 0.003 0.002 0.261-0.299zM25.917 20.579l0.239 0.317 0.003-0.003-0.242-0.314zM25.929 20.86l-0.222 0.329 0.002 0.001 0.22-0.33zM26.174 20.964l-0.115 0.38h0.001l0.114-0.38zM26.578 21.862l0.238 0.318 0.001-0.001-0.239-0.317zM25.774 21.915l-0.163 0.362 0.002 0.001 0.161-0.363zM25.529 21.719l-0.33 0.222 0.002 0.002 0.327-0.224zM25.445 21.431v-0.397h-0.397v0.397h0.397zM25.795 21.431h0.397v-0.397h-0.397v0.397zM26.324 21.661l0.231 0.323 0.004-0.003-0.235-0.32zM26.791 21.519c0-0.172-0.068-0.348-0.229-0.468l-0.476 0.635c-0.030-0.023-0.053-0.052-0.069-0.086l-0.001-0.002c-0.011-0.023-0.018-0.051-0.019-0.079v0h0.794zM26.566 21.053c-0.105-0.081-0.246-0.134-0.372-0.174l-0.242 0.756c0.052 0.017 0.088 0.031 0.113 0.042 0.028 0.012 0.029 0.016 0.018 0.007l0.483-0.63zM26.196 20.879c-0.086-0.027-0.16-0.057-0.23-0.092l0.008 0.004-0.377 0.699c0.1 0.054 0.221 0.101 0.353 0.145l0.246-0.755zM25.974 20.79c-0.031-0.014-0.057-0.034-0.077-0.058v-0.001l-0.001-0.002-0.001-0.002c-0.001-0.002-0.001-0.005-0.001-0.008v0h-0.794c0 0.359 0.213 0.615 0.497 0.769l0.377-0.699zM25.894 20.721c0-0.004 0.001-0.007 0.001-0.011v0.001l0.001-0.002-0.645-0.463c-0.094 0.13-0.151 0.293-0.151 0.469 0 0.002 0 0.005 0 0.007v-0.001h0.794zM25.896 20.708c0.002-0.003 0.013-0.018 0.053-0.035l-0.307-0.732c-0.152 0.063-0.289 0.162-0.391 0.303l0.644 0.464zM25.948 20.674c0.042-0.018 0.098-0.030 0.173-0.030v-0.794c-0.165 0-0.326 0.028-0.478 0.091l0.305 0.733zM26.122 20.644c0.004 0 0.008 0 0.013 0 0.051 0 0.1 0.011 0.145 0.030l-0.002-0.001 0.336-0.719c-0.14-0.065-0.304-0.103-0.477-0.103-0.005 0-0.010 0-0.015 0h0.001v0.794zM26.279 20.674c0.022 0.008 0.039 0.022 0.053 0.040v0.001l0.665-0.433c-0.095-0.144-0.227-0.257-0.381-0.327l-0.006-0.002-0.331 0.722zM26.333 20.717c0.009 0.013 0.014 0.029 0.014 0.047 0 0.002 0 0.005-0.001 0.007v-0.001h0.794c0-0.174-0.046-0.342-0.145-0.491l-0.662 0.437zM26.744 20.373h-0.349v0.794h0.349v-0.794zM26.792 20.77c0-0.168-0.057-0.347-0.209-0.479l-0.522 0.598c-0.022-0.020-0.039-0.044-0.051-0.071l-0.001-0.001c-0.006-0.013-0.010-0.029-0.011-0.046v-0.001h0.794zM26.586 20.293c-0.143-0.128-0.319-0.165-0.469-0.165v0.794c0.012 0 0.010 0.002-0.002-0.002-0.021-0.007-0.040-0.019-0.055-0.033v0l0.527-0.594zM26.116 20.128c-0.137 0-0.3 0.029-0.441 0.138l0.484 0.629c-0.014 0.012-0.032 0.021-0.051 0.028l-0.001 0.001c-0.009 0.002-0.007 0 0.009 0v-0.794zM25.678 20.263c-0.14 0.104-0.229 0.269-0.229 0.454 0 0.002 0 0.003 0 0.004v0h0.794c-0.001 0.036-0.009 0.069-0.025 0.099l0.001-0.001c-0.015 0.031-0.037 0.057-0.062 0.077l-0.001 0.001-0.478-0.634zM25.449 20.721c0 0.215 0.119 0.374 0.257 0.468l0.445-0.658c0.023 0.017 0.042 0.038 0.056 0.062l0.001 0.001c0.024 0.040 0.036 0.085 0.036 0.128h-0.794zM25.709 21.19c0.103 0.069 0.227 0.117 0.35 0.155l0.23-0.76c-0.053-0.014-0.1-0.033-0.143-0.057l0.003 0.002-0.441 0.66zM26.060 21.345c0.172 0.052 0.246 0.102 0.271 0.126l0.554-0.569c-0.157-0.153-0.371-0.25-0.596-0.317l-0.229 0.759zM26.331 21.471c0.005 0.004 0.009 0.010 0.012 0.015v0.001c0.003 0.008 0.004 0.017 0.004 0.026 0 0.001 0 0.003 0 0.004v0h0.794c0-0.234-0.085-0.448-0.256-0.614l-0.554 0.569zM26.347 21.516c0 0.012-0.001 0.019-0.002 0.022v0s-0.002 0.002-0.007 0.007l0.479 0.634c0.217-0.164 0.324-0.399 0.324-0.662h-0.794zM26.34 21.545c-0.021 0.016-0.078 0.045-0.21 0.045v0.794c0.243 0 0.485-0.053 0.685-0.204l-0.476-0.635zM26.13 21.589c-0.082 0-0.145-0.015-0.195-0.037l-0.321 0.726c0.163 0.072 0.338 0.105 0.516 0.105v-0.794zM25.937 21.554c-0.033-0.012-0.060-0.032-0.080-0.058l-0.001-0.001-0.656 0.447c0.105 0.153 0.249 0.262 0.411 0.334l0.325-0.724zM25.858 21.498c-0.008-0.012-0.016-0.029-0.016-0.067h-0.794c0 0.181 0.047 0.355 0.151 0.51l0.659-0.443zM25.445 21.828h0.35v-0.794h-0.35v0.794zM25.398 21.431c0 0.174 0.055 0.372 0.226 0.514 0.156 0.131 0.348 0.163 0.506 0.163v-0.794c-0.029 0-0.041-0.003-0.039-0.003 0.017 0.006 0.031 0.014 0.044 0.026v0c0.022 0.019 0.039 0.042 0.050 0.069l0.001 0.001c0.009 0.021 0.007 0.033 0.007 0.025h-0.794zM26.13 22.108c0.13 0 0.287-0.026 0.426-0.125l-0.462-0.645c0.014-0.011 0.030-0.019 0.048-0.024h0.001c0.007-0.002 0.004 0-0.012 0v0.794zM26.558 21.981c0.155-0.113 0.232-0.282 0.232-0.462h-0.794c0.002-0.073 0.038-0.137 0.092-0.178l0.001-0.001 0.469 0.64z"></path>
</svg>
