<!-- Generated by IcoMoon.io -->
<svg version="1.1" xmlns="http://www.w3.org/2000/svg" width="60" height="32" viewBox="0 0 60 32">
<title>client-logo-4</title>
<path fill="none" stroke="#000" stroke-linejoin="miter" stroke-linecap="butt" stroke-miterlimit="4" stroke-width="0.7442" d="M9.228 9.92h0.002c1.487 0 2.676 1.173 2.676 2.599v0.002c0 1.426-1.189 2.599-2.676 2.599h-0.002c-1.487 0-2.676-1.173-2.676-2.599v-0.002c0-1.426 1.189-2.598 2.676-2.598zM14.785 20.694c-0.124 0.019-0.235 0.035-0.33 0.048v-12.143c0.005-2.178 0.895-4.267 2.478-5.81s3.732-2.413 5.976-2.417c2.242 0.005 4.39 0.876 5.973 2.419s2.471 3.632 2.477 5.808c0 0 0 0 0 0v0.002s0 0 0 0c-0.002 5.078-4.205 8.13-8.594 9.931-2.178 0.893-4.36 1.46-6 1.803-0.424 0.1-1.095 0.225-1.772 0.332l-0.206 0.027zM5.767 27.193c-0.274-0.052-0.518-0.154-0.732-0.295l0.008 0.005c-0.323-0.212-0.574-0.507-0.727-0.857l-0.005-0.013c-0.096-0.219-0.152-0.475-0.152-0.744 0-0.135 0.014-0.266 0.041-0.393l-0.002 0.012c0.083-0.393 0.276-0.732 0.544-0.994l0-0c0.278-0.271 0.63-0.454 1.012-0.528 0.115-0.023 0.247-0.037 0.383-0.037 0.272 0 0.532 0.054 0.769 0.152l-0.013-0.005c0.361 0.145 0.67 0.392 0.889 0.711s0.336 0.695 0.336 1.081M5.767 27.193v0.040h0.372c0 0 0.001 0 0.001 0 0.272 0 0.532-0.054 0.768-0.151l-0.013 0.005c0.24-0.097 0.458-0.24 0.643-0.42s0.331-0.394 0.431-0.631 0.15-0.49 0.15-0.746M5.767 27.193c0.122 0.022 0.247 0.034 0.372 0.034v-0.366l-0.372 0.332zM8.118 25.289h-0.372l0.372-0.002v0.002zM10.215 29.25c-1.053 1.021-2.491 1.651-4.076 1.652h-0c-1.585-0.001-3.023-0.631-4.078-1.654l0.002 0.001c-1.036-1.004-1.682-2.407-1.69-3.96v-0.001c0-3.457 2.861-5.554 5.908-6.804 1.507-0.618 3.018-1.011 4.156-1.249 0.327-0.077 0.826-0.169 1.329-0.246l0.141-0.018v8.319c-0.009 1.554-0.655 2.955-1.689 3.958l-0.001 0.001z"></path>
<path d="M18.672 25.884v0.744h0.744v-0.744h-0.744zM17.415 25.884v-0.744h-0.744v0.744h0.744zM17.415 27.181v0.744h0.744v-0.744h-0.744zM16.761 27.181h-0.744v0.744h0.744v-0.744zM16.761 24.007v-0.744h-0.744v0.744h0.744zM18.828 24.007h0.744v-0.744h-0.744v0.744zM18.828 24.537v0.744h0.744v-0.744h-0.744zM17.415 24.537v-0.744h-0.744v0.744h0.744zM17.415 25.356h-0.744v0.744h0.744v-0.744zM18.671 25.356h0.744v-0.744h-0.744v0.744zM18.671 25.14h-1.255v1.488h1.255v-1.488zM16.671 25.884v1.296h1.488v-1.297h-1.488zM17.415 26.436h-0.655v1.488h0.655v-1.488zM17.505 27.181v-3.173h-1.488v3.174h1.488zM16.761 24.751h2.067v-1.488h-2.067v1.488zM18.084 24.007v0.53h1.488v-0.53h-1.488zM18.828 23.792h-1.412v1.488h1.412v-1.488zM16.671 24.537v0.819h1.488v-0.819h-1.488zM17.415 26.1h1.255v-1.488h-1.255v1.488zM17.927 25.356v0.528h1.488v-0.528h-1.488zM21.174 27.033l-0.391-0.633-0.002 0.002 0.394 0.631zM19.283 26.494l-0.67 0.322v0.002l0.67-0.324zM19.111 25.683h-0.744v0.004l0.744-0.004zM19.28 24.702l-0.673-0.32v0.002l0.673 0.318zM19.757 24.155l0.391 0.633 0.002-0.001-0.392-0.633zM21.168 24.155l-0.394 0.631 0.005 0.004 0.389-0.635zM21.645 24.702l-0.674 0.316 0.002 0.005 0.671-0.322zM19.955 24.761l0.61 0.426 0.002-0.002-0.611-0.424zM19.774 25.511l-0.744-0.003v0.003h0.744zM20.973 26.431l0.613 0.421 0.002-0.003-0.615-0.418zM21.152 25.677l0.744 0.003v-0.003h-0.744zM21.070 25.666c0 0.226-0.039 0.387-0.095 0.506l1.347 0.633c0.165-0.353 0.237-0.738 0.237-1.139h-1.488zM20.976 26.172c-0.041 0.096-0.108 0.173-0.192 0.227l-0.002 0.001 0.784 1.265c0.33-0.208 0.59-0.501 0.752-0.849l0.005-0.012-1.347-0.633zM20.78 26.401c-0.083 0.050-0.182 0.079-0.289 0.079-0.008 0-0.017-0-0.025-0.001l0.001 0v1.488c0.391 0 0.766-0.096 1.101-0.305l-0.789-1.262zM20.467 26.48c-0.006 0-0.014 0-0.021 0-0.109 0-0.21-0.030-0.297-0.082l0.003 0.001-0.778 1.27c0.334 0.204 0.706 0.299 1.094 0.299v-1.488zM20.152 26.4c-0.087-0.056-0.156-0.134-0.197-0.227l-0.001-0.003-1.34 0.65c0.171 0.352 0.424 0.644 0.761 0.851l0.778-1.27zM19.954 26.172c-0.062-0.136-0.099-0.294-0.099-0.462 0-0.011 0-0.021 0-0.032l-0 0.002-1.488 0.007c0.002 0.397 0.077 0.779 0.246 1.13l1.341-0.645zM19.856 25.683v-0.158h-1.488v0.156h1.488zM19.856 25.526c0-0.223 0.039-0.386 0.097-0.506l-1.346-0.636c-0.151 0.323-0.239 0.701-0.239 1.1 0 0.015 0 0.029 0 0.044l-0-0.002h1.488zM19.951 25.022c0.042-0.097 0.11-0.177 0.194-0.232l0.002-0.001-0.781-1.267c-0.331 0.208-0.591 0.501-0.754 0.849l-0.005 0.012 1.344 0.639zM20.149 24.787c0.084-0.051 0.185-0.081 0.293-0.081 0.007 0 0.015 0 0.022 0l-0.001-0v-1.488c-0.39 0-0.764 0.097-1.098 0.304l0.784 1.265zM20.463 24.707c0.139 0 0.235 0.032 0.31 0.079l0.788-1.262c-0.335-0.208-0.708-0.305-1.098-0.305v1.488zM20.778 24.789c0.086 0.055 0.152 0.133 0.192 0.226l0.001 0.003 1.347-0.633c-0.168-0.362-0.429-0.657-0.754-0.861l-0.008-0.005-0.778 1.27zM20.973 25.023c0.057 0.12 0.097 0.281 0.097 0.501h1.488c0-0.402-0.073-0.789-0.243-1.143l-1.343 0.642zM21.070 25.524v0.141h1.488v-0.141h-1.488zM21.896 25.522c0-0.402-0.068-0.831-0.31-1.181l-1.226 0.845c-0.004-0.006 0.010 0.010 0.022 0.067 0.014 0.058 0.025 0.145 0.025 0.269h1.488zM21.586 24.341c-0.242-0.353-0.643-0.581-1.097-0.581-0.009 0-0.018 0-0.027 0l0.001-0v1.488c0.012 0-0.009 0.002-0.044-0.016-0.023-0.012-0.042-0.027-0.059-0.046l-0-0 1.226-0.845zM20.463 23.76c-0.007-0-0.016-0-0.025-0-0.452 0-0.852 0.227-1.091 0.573l-0.003 0.004 1.222 0.849c-0.016 0.019-0.036 0.034-0.058 0.046l-0.001 0c-0.034 0.018-0.056 0.016-0.045 0.016v-1.488zM19.346 24.334c-0.244 0.348-0.314 0.774-0.316 1.174l1.488 0.007c0-0.123 0.012-0.208 0.025-0.264s0.025-0.069 0.021-0.063l-1.219-0.853zM19.030 25.511v0.155h1.488v-0.155h-1.488zM19.030 25.666c0 0.402 0.071 0.819 0.304 1.168l1.238-0.826c-0.006-0.009-0.054-0.095-0.054-0.342h-1.488zM19.334 26.833c0.263 0.396 0.674 0.599 1.133 0.599v-1.488c-0.011 0 0.011-0.002 0.048 0.017 0.016 0.009 0.030 0.018 0.042 0.030l-0-0c0.010 0.010 0.015 0.016 0.015 0.016l-1.238 0.826zM20.467 27.432c0.449 0 0.854-0.194 1.119-0.58l-1.227-0.842c0.017-0.020 0.037-0.036 0.060-0.049l0.001-0.001c0.036-0.019 0.058-0.017 0.047-0.017v1.488zM21.588 26.849c0.237-0.348 0.307-0.77 0.308-1.17l-1.488-0.006c0 0.123-0.012 0.21-0.025 0.268-0.014 0.057-0.027 0.074-0.025 0.071l1.23 0.837zM21.896 25.677v-0.155h-1.488v0.155h1.488zM23.806 26.064l-0.453 0.591 0.007 0.004 0.447-0.595zM23.335 25.856l-0.231 0.707 0.004 0.001 0.228-0.708zM22.796 25.637v0zM22.399 24.392l-0.604-0.435-0.002 0.001 0.605 0.434zM22.816 24.076l-0.287-0.687-0.002 0.001 0.287 0.686zM24.032 24.087l-0.315 0.674 0.004 0.002 0.31-0.676zM24.444 24.434l-0.624 0.406 0.002 0.004 0.621-0.41zM24.593 24.944v0.744h0.744v-0.744h-0.744zM23.938 24.944h-0.744v0.744h0.744v-0.744zM23.801 24.607l-0.495 0.556 0.005 0.004 0.49-0.56zM23.042 24.586l0.448 0.595 0.006-0.005-0.454-0.589zM23.065 25.112l-0.417 0.617 0.004 0.002 0.412-0.619zM23.524 25.308l-0.216 0.712h0.002l0.214-0.712zM24.281 26.991l0.447 0.596 0.002-0.002-0.449-0.594zM22.774 27.091l-0.305 0.679 0.004 0.002 0.301-0.681zM22.314 26.723l-0.618 0.416 0.002 0.004 0.615-0.42zM22.157 26.183v-0.744h-0.744v0.744h0.744zM22.813 26.183h0.744v-0.744h-0.744v0.744zM23.805 26.614l0.434 0.605 0.007-0.005-0.44-0.6zM24.68 26.348c0-0.322-0.127-0.653-0.428-0.878l-0.893 1.191c-0.056-0.043-0.101-0.098-0.131-0.161l-0.001-0.003c-0.021-0.043-0.034-0.095-0.036-0.148v-0h1.488zM24.258 25.474c-0.196-0.151-0.461-0.252-0.697-0.327l-0.454 1.417c0.097 0.031 0.166 0.058 0.212 0.078 0.052 0.023 0.054 0.030 0.033 0.013l0.906-1.181zM23.566 25.148c-0.162-0.050-0.3-0.106-0.432-0.173l0.015 0.007-0.707 1.31c0.188 0.101 0.413 0.19 0.661 0.271l0.462-1.415zM23.149 24.982c-0.059-0.027-0.109-0.066-0.148-0.113l-0.001-0.001v-0.004c-0.001-0.004-0.001-0.009-0.002-0.015v-0h-1.488c0 0.674 0.4 1.154 0.932 1.442l0.707-1.31zM23 24.851v-0.016l0.002-0.003v-0.001l0.002-0.004-1.209-0.868c-0.191 0.266-0.283 0.572-0.283 0.892h1.488zM23.003 24.828c0.004-0.006 0.025-0.033 0.1-0.065l-0.575-1.373c-0.285 0.119-0.542 0.303-0.732 0.568l1.207 0.87zM23.102 24.764c0.079-0.033 0.183-0.057 0.324-0.057v-1.488c-0.31 0-0.612 0.052-0.897 0.171l0.572 1.374zM23.426 24.707c0.007-0 0.015-0 0.024-0 0.096 0 0.188 0.020 0.271 0.056l-0.004-0.002 0.631-1.348c-0.262-0.122-0.57-0.194-0.894-0.194-0.010 0-0.020 0-0.029 0h0.001v1.488zM23.722 24.764c0.041 0.015 0.075 0.042 0.099 0.075l0 0.001 1.247-0.811c-0.179-0.27-0.425-0.481-0.715-0.613l-0.011-0.004-0.621 1.353zM23.823 24.844c0.016 0.025 0.026 0.055 0.026 0.088 0 0.004-0 0.009-0 0.013l0-0.001h1.488c0-0.327-0.087-0.642-0.272-0.921l-1.242 0.82zM24.592 24.2h-0.654v1.488h0.655v-1.488zM24.682 24.944c0-0.315-0.107-0.65-0.392-0.899l-0.979 1.122c-0.041-0.037-0.074-0.082-0.096-0.134l-0.001-0.002c-0.012-0.025-0.019-0.055-0.021-0.086l-0-0.001h1.488zM24.295 24.050c-0.269-0.24-0.597-0.31-0.88-0.31v1.488c0.024 0 0.019 0.004-0.004-0.004-0.040-0.014-0.075-0.035-0.104-0.062l0 0 0.988-1.113zM23.415 23.74c-0.256 0-0.563 0.054-0.827 0.258l0.908 1.179c-0.027 0.022-0.060 0.040-0.095 0.052l-0.002 0.001c-0.015 0.004-0.013 0 0.016 0v-1.488zM22.594 23.993c-0.262 0.195-0.429 0.504-0.429 0.852 0 0.003 0 0.005 0 0.008v-0h1.488c-0.001 0.067-0.017 0.13-0.046 0.186l0.001-0.002c-0.029 0.058-0.069 0.106-0.117 0.144l-0.001 0.001-0.896-1.188zM22.165 24.852c0 0.404 0.223 0.701 0.482 0.877l0.834-1.233c0.043 0.031 0.079 0.071 0.105 0.116l0.001 0.002c0.045 0.075 0.067 0.16 0.067 0.24h-1.488zM22.652 25.731c0.193 0.129 0.426 0.22 0.657 0.29l0.431-1.425c-0.1-0.026-0.187-0.062-0.269-0.106l0.006 0.003-0.826 1.238zM23.31 26.021c0.322 0.097 0.461 0.191 0.508 0.237l1.039-1.066c-0.294-0.286-0.696-0.469-1.118-0.595l-0.429 1.424zM23.818 26.258c0.009 0.008 0.017 0.018 0.022 0.029l0 0.001c0.005 0.015 0.008 0.032 0.008 0.049 0 0.002-0 0.005-0 0.007v-0h1.488c0-0.438-0.16-0.84-0.48-1.152l-1.039 1.066zM23.848 26.343c0 0.022-0.002 0.035-0.003 0.041l-0.002 0.004 0.002-0.004-0.013 0.013 0.897 1.188c0.406-0.307 0.607-0.749 0.607-1.242h-1.488zM23.835 26.396c-0.040 0.030-0.146 0.085-0.394 0.085v1.488c0.456 0 0.91-0.1 1.285-0.382l-0.892-1.191zM23.441 26.48c-0.152 0-0.27-0.028-0.366-0.069l-0.602 1.361c0.306 0.135 0.633 0.196 0.968 0.196v-1.488zM23.079 26.413c-0.061-0.023-0.112-0.060-0.15-0.109l-0.001-0.001-1.229 0.839c0.195 0.287 0.465 0.491 0.77 0.627l0.61-1.357zM22.931 26.308c-0.014-0.022-0.030-0.054-0.030-0.125h-1.488c0 0.339 0.089 0.666 0.283 0.956l1.235-0.831zM22.157 26.927h0.656v-1.488h-0.656v1.488zM22.069 26.183c0 0.327 0.104 0.697 0.424 0.964 0.293 0.246 0.653 0.305 0.948 0.305v-1.488c-0.055 0-0.077-0.006-0.074-0.006 0.032 0.011 0.059 0.027 0.082 0.048l-0-0c0.041 0.035 0.074 0.079 0.094 0.129l0.001 0.002c0.016 0.040 0.013 0.061 0.013 0.046h-1.488zM23.441 27.452c0.244 0 0.539-0.048 0.798-0.234l-0.867-1.209c0.026-0.020 0.057-0.035 0.090-0.045l0.002-0c0.013-0.004 0.007 0-0.022 0v1.488zM24.245 27.214c0.29-0.212 0.435-0.528 0.435-0.866h-1.488c0.004-0.137 0.071-0.257 0.172-0.333l0.001-0.001 0.88 1.2zM27.427 24.537v0.744h0.744v-0.744h-0.744zM26.454 24.537v-0.744h-0.744v0.744h0.744zM26.454 27.181v0.744h0.744v-0.744h-0.744zM25.8 27.181h-0.744v0.744h0.744v-0.744zM25.8 24.537h0.744v-0.744h-0.744v0.744zM24.841 24.537h-0.744v0.744h0.744v-0.744zM24.841 24.007v-0.744h-0.744v0.744h0.744zM27.427 24.007h0.744v-0.744h-0.744v0.744zM27.427 23.792h-0.973v1.488h0.973v-1.488zM25.71 24.537v2.644h1.488v-2.644h-1.488zM26.454 26.436h-0.654v1.488h0.655v-1.488zM26.544 27.181v-2.644h-1.488v2.644h1.488zM25.8 23.792h-0.959v1.488h0.96v-1.488zM25.585 24.537v-0.53h-1.488v0.53h1.488zM24.841 24.751h2.586v-1.488h-2.586v1.488zM26.683 24.007v0.53h1.488v-0.53h-1.488zM29.712 25.805v0.744h0.744v-0.744h-0.744zM28.455 25.805v-0.744h-0.744v0.744h0.744zM28.455 26.655h-0.744v0.744h0.744v-0.744zM29.93 26.655h0.744v-0.744h-0.744v0.744zM29.93 27.181v0.744h0.744v-0.744h-0.744zM27.801 27.181h-0.744v0.744h0.744v-0.744zM27.801 24.007v-0.744h-0.744v0.744h0.744zM29.925 24.007h0.744v-0.744h-0.744v0.744zM29.925 24.537v0.744h0.744v-0.744h-0.744zM28.455 24.537v-0.744h-0.744v0.744h0.744zM28.455 25.293h-0.744v0.744h0.744v-0.744zM29.712 25.293h0.744v-0.744h-0.744v0.744zM29.712 25.061h-1.256v1.488h1.256v-1.488zM27.711 25.805v0.85h1.488v-0.85h-1.488zM28.455 27.399h1.474v-1.488h-1.474v1.488zM29.186 26.655v0.525h1.488v-0.525h-1.488zM29.93 26.436h-2.128v1.488h2.128v-1.488zM28.546 27.181v-3.173h-1.488v3.174h1.488zM27.801 24.751h2.124v-1.488h-2.122v1.488zM29.181 24.007v0.53h1.488v-0.53h-1.488zM29.925 23.792h-1.47v1.488h1.47v-1.488zM27.711 24.537v0.756h1.488v-0.756h-1.488zM28.455 26.037h1.256v-1.488h-1.256v1.488zM28.967 25.293v0.513h1.488v-0.513h-1.488zM31.489 26.019l0.662-0.339-0.208-0.405h-0.455v0.744zM30.968 26.019v-0.744h-0.744v0.744h0.744zM30.968 27.181v0.744h0.744v-0.744h-0.744zM30.313 27.181h-0.744v0.744h0.744v-0.744zM30.313 24.007v-0.744h-0.744v0.744h0.744zM32.524 25.508l-0.624-0.406-0.002 0.002 0.625 0.404zM32.099 25.853l-0.305-0.679-0.723 0.326 0.371 0.701 0.658-0.348zM32.786 27.15h0.744v-0.185l-0.086-0.164-0.658 0.348zM32.786 27.181v0.744h0.744v-0.744h-0.744zM32.083 27.181l-0.662 0.339 0.208 0.405h0.454v-0.744zM30.967 25.489h-0.744v0.744h0.744v-0.744zM31.876 25.365l0.504 0.548 0.004-0.004-0.508-0.543zM31.883 24.665l-0.531 0.521 0.004 0.005 0.526-0.526zM30.968 24.537v-0.744h-0.744v0.744h0.744zM31.489 25.275h-0.521v1.488h0.521v-1.488zM30.224 26.019v1.162h1.488v-1.162h-1.488zM30.968 26.436h-0.655v1.488h0.655v-1.488zM31.057 27.181v-3.173h-1.488v3.174h1.488zM30.313 24.751h1.18v-1.488h-1.18v1.488zM31.493 24.751c0.274 0 0.371 0.062 0.394 0.082l0.945-1.151c-0.383-0.315-0.864-0.42-1.34-0.42v1.488zM31.888 24.833c0.008 0.005 0.014 0.013 0.018 0.021l0 0c0.004 0.009 0.015 0.042 0.015 0.112h1.488c0-0.488-0.173-0.953-0.577-1.284l-0.945 1.15zM31.922 24.966c0 0.054-0.006 0.089-0.011 0.11-0.005 0.019-0.010 0.026-0.010 0.027l1.248 0.811c0.191-0.292 0.262-0.624 0.262-0.948h-1.488zM31.9 25.104c-0.006 0.008-0.012 0.014-0.020 0.020l-0 0c-0.025 0.019-0.053 0.036-0.084 0.049l-0.003 0.001 0.612 1.357c0.292-0.132 0.558-0.33 0.744-0.619l-1.25-0.808zM31.441 26.201l0.687 1.297 1.316-0.696-0.687-1.298-1.316 0.697zM32.042 27.15v0.030h1.488v-0.030h-1.488zM32.786 26.436h-0.703v1.488h0.703v-1.488zM32.746 26.841l-0.595-1.162-1.325 0.679 0.595 1.162 1.325-0.678zM30.968 26.233h0.528v-1.488h-0.528v1.488zM31.495 26.233c0.286 0 0.616-0.074 0.885-0.32l-1.008-1.096c0.031-0.029 0.068-0.052 0.109-0.066l0.002-0.001c0.025-0.007 0.033-0.005 0.012-0.005v1.488zM32.385 25.908c0.269-0.252 0.371-0.58 0.371-0.89h-1.488c0-0.002 0-0.030 0.017-0.074 0.019-0.048 0.048-0.089 0.083-0.123l0-0 1.017 1.087zM32.756 25.018c0-0.298-0.090-0.623-0.347-0.88l-1.052 1.053c-0.033-0.033-0.059-0.073-0.076-0.117l-0.001-0.002c-0.013-0.037-0.013-0.059-0.013-0.054h1.488zM32.414 24.144c-0.278-0.283-0.638-0.351-0.921-0.351v1.488c0.030 0 0.024 0.004-0.004-0.005-0.054-0.020-0.1-0.050-0.137-0.089l-0-0 1.061-1.043zM31.493 23.792h-0.526v1.488h0.526v-1.488zM30.223 24.537v0.953h1.488v-0.953h-1.488zM34.931 26.062v-0.744h-0.744v0.744h0.744zM34.931 27.181v0.744h0.744v-0.744h-0.744zM34.276 27.181h-0.744v0.744h0.744v-0.744zM34.276 24.007v-0.744h-0.744v0.744h0.744zM36.144 24.138l-0.324 0.67 0.002 0.001 0.322-0.671zM36.562 24.51l-0.637 0.385 0.002 0.003 0.636-0.387zM36.388 25.794v0zM34.931 25.533h-0.744v0.744h0.744v-0.744zM35.91 25.41l-0.494-0.556-0.004 0.004 0.499 0.552zM35.53 24.537l0.013-0.744h-0.013v0.744zM34.931 24.537v-0.744h-0.744v0.744h0.744zM34.187 26.062v1.119h1.488v-1.118h-1.488zM34.931 26.436h-0.655v1.488h0.655v-1.488zM35.021 27.181v-3.173h-1.488v3.174h1.488zM34.276 24.751h1.239v-1.488h-1.238v1.488zM35.516 24.751c0.147 0 0.242 0.027 0.304 0.057l0.648-1.34c-0.27-0.13-0.587-0.206-0.922-0.206-0.011 0-0.022 0-0.033 0l0.002-0v1.488zM35.821 24.808c0.044 0.018 0.079 0.048 0.104 0.085l0.001 0.001 1.274-0.769c-0.176-0.287-0.426-0.513-0.724-0.655l-0.010-0.004-0.644 1.342zM35.926 24.898c0.024 0.041 0.038 0.090 0.038 0.143 0 0.006-0 0.012-0.001 0.018l0-0.001h1.488c0-0.328-0.080-0.647-0.255-0.935l-1.271 0.774zM35.964 25.058c0 0.119-0.030 0.147-0.056 0.168l0.96 1.138c0.401-0.339 0.584-0.804 0.584-1.306h-1.488zM35.908 25.225c-0.036 0.031-0.14 0.094-0.403 0.094v1.488c0.49 0 0.975-0.117 1.363-0.444l-0.959-1.139zM35.504 25.319h-0.573v1.488h0.573v-1.488zM34.931 26.277h0.584v-1.488h-0.584v1.488zM35.516 26.277c0.28 0 0.618-0.066 0.893-0.314l-0.997-1.105c0.031-0.029 0.069-0.052 0.11-0.066l0.002-0.001c0.021-0.007 0.022-0.002-0.008-0.002v1.488zM36.405 25.967c0.286-0.255 0.387-0.595 0.387-0.905h-1.488c0 0.002 0-0.028 0.017-0.072 0.022-0.054 0.054-0.099 0.095-0.135l0-0 0.988 1.113zM36.792 25.062c0-0.312-0.097-0.633-0.344-0.892l-1.076 1.028c-0.025-0.026-0.044-0.056-0.057-0.090l-0.001-0.002c-0.011-0.031-0.010-0.049-0.010-0.045h1.488zM36.448 24.17c-0.258-0.269-0.59-0.372-0.904-0.378l-0.027 1.488c0.009 0-0.009 0.001-0.042-0.012-0.041-0.017-0.076-0.041-0.104-0.071l-0-0 1.077-1.027zM35.53 23.792h-0.599v1.488h0.599v-1.488zM34.187 24.537v0.996h1.488v-0.997h-1.488zM39.069 25.805v0.744h0.744v-0.744h-0.744zM37.814 25.805v-0.744h-0.744v0.744h0.744zM37.814 26.655h-0.744v0.744h0.744v-0.744zM39.287 26.655h0.744v-0.744h-0.744v0.744zM39.287 27.181v0.744h0.744v-0.744h-0.744zM37.159 27.181h-0.744v0.744h0.744v-0.744zM37.159 24.007v-0.744h-0.744v0.744h0.744zM39.283 24.007h0.744v-0.744h-0.744v0.744zM39.283 24.537v0.744h0.744v-0.744h-0.744zM37.814 24.537v-0.744h-0.744v0.744h0.744zM37.814 25.293h-0.744v0.744h0.744v-0.744zM39.069 25.293h0.744v-0.744h-0.744v0.744zM39.069 25.061h-1.255v1.488h1.255v-1.488zM37.069 25.805v0.85h1.488v-0.85h-1.488zM37.814 27.399h1.474v-1.488h-1.474v1.488zM38.543 26.655v0.525h1.488v-0.525h-1.488zM39.287 26.436h-2.128v1.488h2.128v-1.488zM37.903 27.181v-3.173h-1.488v3.174h1.488zM37.159 24.751h2.124v-1.488h-2.123v1.488zM38.538 24.007v0.53h1.488v-0.53h-1.488zM39.283 23.792h-1.469v1.488h1.469v-1.488zM37.069 24.537v0.756h1.488v-0.756h-1.488zM37.814 26.037h1.255v-1.488h-1.255v1.488zM38.325 25.293v0.513h1.488v-0.513h-1.488zM42.104 24.537v0.744h0.744v-0.744h-0.744zM41.132 24.537v-0.744h-0.744v0.744h0.744zM41.132 27.181v0.744h0.744v-0.744h-0.744zM40.477 27.181h-0.744v0.744h0.744v-0.744zM40.477 24.537h0.744v-0.744h-0.744v0.744zM39.519 24.537h-0.744v0.744h0.744v-0.744zM39.519 24.007v-0.744h-0.744v0.744h0.744zM42.104 24.007h0.744v-0.744h-0.744v0.744zM42.104 23.792h-0.972v1.488h0.972v-1.488zM40.388 24.537v2.644h1.488v-2.644h-1.488zM41.132 26.436h-0.655v1.488h0.655v-1.488zM41.221 27.181v-2.644h-1.488v2.644h1.488zM40.477 23.792h-0.959v1.488h0.959v-1.488zM40.263 24.537v-0.53h-1.488v0.53h1.488zM39.519 24.751h2.585v-1.488h-2.585v1.488zM41.36 24.007v0.53h1.488v-0.53h-1.488zM44.388 25.805v0.744h0.744v-0.744h-0.744zM43.133 25.805v-0.744h-0.744v0.744h0.744zM43.133 26.655h-0.744v0.744h0.744v-0.744zM44.606 26.655h0.744v-0.744h-0.744v0.744zM44.606 27.181v0.744h0.744v-0.744h-0.744zM42.479 27.181h-0.744v0.744h0.744v-0.744zM42.479 24.007v-0.744h-0.744v0.744h0.744zM44.603 24.007h0.744v-0.744h-0.744v0.744zM44.603 24.537v0.744h0.744v-0.744h-0.744zM43.133 24.537v-0.744h-0.744v0.744h0.744zM43.133 25.293h-0.744v0.744h0.744v-0.744zM44.389 25.293h0.744v-0.744h-0.744v0.744zM44.389 25.061h-1.256v1.488h1.256v-1.488zM42.389 25.805v0.85h1.488v-0.85h-1.488zM43.133 27.399h1.474v-1.488h-1.474v1.488zM43.862 26.655v0.525h1.488v-0.525h-1.488zM44.606 26.436h-2.128v1.488h2.128v-1.488zM43.223 27.181v-3.173h-1.488v3.174h1.488zM42.479 24.751h2.124v-1.488h-2.125v1.488zM43.859 24.007v0.53h1.488v-0.53h-1.488zM44.603 23.792h-1.47v1.488h1.47v-1.488zM42.389 24.537v0.756h1.488v-0.756h-1.488zM43.133 26.037h1.256v-1.488h-1.256v1.488zM43.645 25.293v0.513h1.488v-0.513h-1.488zM46.166 26.019l0.662-0.339-0.207-0.405h-0.455v0.744zM45.645 26.019v-0.744h-0.744v0.744h0.744zM45.645 27.181v0.744h0.744v-0.744h-0.744zM44.99 27.181h-0.744v0.744h0.744v-0.744zM44.99 24.007v-0.744h-0.744v0.744h0.744zM47.202 25.508l-0.624-0.406-0.002 0.002 0.625 0.404zM46.777 25.853l-0.306-0.679-0.723 0.326 0.371 0.701 0.658-0.348zM47.463 27.15h0.744v-0.185l-0.086-0.164-0.658 0.348zM47.463 27.181v0.744h0.744v-0.744h-0.744zM46.761 27.181l-0.662 0.339 0.208 0.405h0.455v-0.744zM45.645 25.489h-0.744v0.744h0.744v-0.744zM46.554 25.365l0.504 0.548 0.004-0.004-0.508-0.543zM46.561 24.665l-0.531 0.521 0.005 0.005 0.526-0.526zM45.645 24.537v-0.744h-0.744v0.744h0.744zM46.166 25.275h-0.521v1.488h0.521v-1.488zM44.901 26.019v1.162h1.488v-1.162h-1.488zM45.645 26.436h-0.655v1.488h0.655v-1.488zM45.735 27.181v-3.173h-1.488v3.174h1.488zM44.99 24.751h1.18v-1.488h-1.18v1.488zM46.17 24.751c0.275 0 0.372 0.062 0.396 0.082l0.944-1.151c-0.383-0.315-0.865-0.42-1.34-0.42v1.488zM46.566 24.833c0.012 0.010 0.015 0.015 0.017 0.022 0.010 0.028 0.016 0.061 0.016 0.095 0 0.006-0 0.011-0.001 0.017l0-0.001h1.488c0-0.488-0.173-0.953-0.577-1.284l-0.945 1.15zM46.599 24.966c0 0.054-0.006 0.089-0.011 0.11-0.005 0.019-0.010 0.026-0.010 0.027l1.247 0.811c0.191-0.292 0.262-0.624 0.262-0.948h-1.488zM46.576 25.104c-0.005 0.008-0.012 0.014-0.019 0.020l-0 0c-0.025 0.019-0.053 0.036-0.084 0.049l-0.003 0.001 0.611 1.357c0.292-0.132 0.558-0.33 0.744-0.619l-1.249-0.808zM46.119 26.201l0.687 1.297 1.315-0.696-0.687-1.298-1.315 0.697zM46.718 27.15v0.030h1.488v-0.030h-1.488zM47.463 26.436h-0.702v1.488h0.703v-1.488zM47.423 26.841l-0.595-1.162-1.325 0.679 0.595 1.162 1.325-0.678zM45.645 26.233h0.528v-1.488h-0.528v1.488zM46.173 26.233c0.285 0 0.616-0.074 0.885-0.32l-1.008-1.096c0.031-0.029 0.067-0.052 0.108-0.066l0.002-0.001c0.026-0.007 0.033-0.005 0.012-0.005v1.488zM47.062 25.908c0.269-0.252 0.371-0.58 0.371-0.89h-1.488c0-0.002 0.001-0.030 0.017-0.074 0.020-0.048 0.048-0.089 0.084-0.123l0-0 1.017 1.087zM47.433 25.018c0-0.298-0.089-0.623-0.346-0.88l-1.053 1.053c-0.033-0.033-0.058-0.073-0.075-0.117l-0.001-0.002c-0.013-0.037-0.013-0.059-0.013-0.054h1.488zM47.091 24.144c-0.278-0.283-0.637-0.351-0.921-0.351v1.488c0.030 0 0.025 0.004-0.004-0.005-0.054-0.020-0.1-0.050-0.137-0.089l-0-0 1.062-1.043zM46.17 23.792h-0.525v1.488h0.525v-1.488zM44.9 24.537v0.953h1.488v-0.953h-1.488zM49.358 26.064l-0.453 0.591 0.006 0.004 0.447-0.595zM48.887 25.856l-0.231 0.707 0.004 0.001 0.228-0.708zM48.348 25.637v0zM47.952 24.392l-0.604-0.435v0.001l0.604 0.434zM48.368 24.076l-0.286-0.687-0.002 0.001 0.287 0.686zM49.584 24.087l-0.315 0.674 0.004 0.002 0.31-0.676zM49.997 24.434l-0.624 0.406 0.002 0.004 0.621-0.41zM50.145 24.944v0.744h0.744v-0.744h-0.744zM49.491 24.944h-0.744v0.744h0.744v-0.744zM49.354 24.607l-0.495 0.556 0.005 0.004 0.49-0.56zM48.595 24.586l0.448 0.595 0.006-0.005-0.454-0.589zM48.617 25.112l-0.417 0.617 0.004 0.002 0.412-0.619zM49.077 25.308l-0.216 0.712h0.002l0.214-0.712zM49.833 26.991l0.447 0.596 0.002-0.002-0.449-0.594zM48.327 27.091l-0.305 0.679 0.004 0.002 0.301-0.681zM47.867 26.723l-0.618 0.416 0.003 0.004 0.614-0.42zM47.71 26.183v-0.744h-0.744v0.744h0.744zM48.365 26.183h0.744v-0.744h-0.744v0.744zM49.357 26.614l0.434 0.605 0.007-0.005-0.441-0.6zM50.233 26.348c0-0.322-0.127-0.653-0.429-0.878l-0.893 1.191c-0.056-0.043-0.1-0.098-0.13-0.161l-0.001-0.003c-0.021-0.044-0.034-0.095-0.036-0.148v-0h1.488zM49.811 25.474c-0.197-0.151-0.461-0.252-0.697-0.327l-0.454 1.417c0.097 0.031 0.165 0.058 0.212 0.078 0.052 0.023 0.054 0.030 0.033 0.013l0.906-1.181zM49.118 25.148c-0.162-0.050-0.3-0.106-0.432-0.173l0.015 0.007-0.707 1.31c0.188 0.101 0.414 0.19 0.661 0.271l0.462-1.415zM48.702 24.982c-0.058-0.027-0.106-0.063-0.145-0.109l-0-0.001-0.002-0.004-0.001-0.004c-0.001-0.004-0.001-0.010-0.002-0.015v-0h-1.488c0 0.674 0.399 1.154 0.932 1.442l0.707-1.31zM48.551 24.851c0-0.007 0.001-0.014 0.002-0.021l-0 0.001 0.002-0.004-1.209-0.868c-0.177 0.244-0.283 0.55-0.283 0.88 0 0.004 0 0.009 0 0.013v-0.001h1.488zM48.555 24.828c0.004-0.006 0.025-0.033 0.1-0.065l-0.575-1.373c-0.285 0.119-0.542 0.303-0.733 0.568l1.208 0.87zM48.653 24.764c0.079-0.033 0.184-0.057 0.325-0.057v-1.488c-0.31 0-0.612 0.052-0.897 0.171l0.572 1.374zM48.979 24.707c0.007-0 0.015-0 0.024-0 0.096 0 0.188 0.020 0.271 0.056l-0.004-0.002 0.63-1.348c-0.262-0.122-0.57-0.194-0.894-0.194-0.010 0-0.019 0-0.028 0h0.001v1.488zM49.274 24.764c0.041 0.015 0.074 0.042 0.099 0.075l0 0.001 1.247-0.811c-0.179-0.27-0.425-0.481-0.715-0.613l-0.011-0.004-0.621 1.353zM49.375 24.844c0.016 0.025 0.026 0.055 0.026 0.088 0 0.004-0 0.009-0.001 0.013l0-0.001h1.488c0-0.327-0.087-0.642-0.272-0.921l-1.242 0.82zM50.145 24.2h-0.654v1.488h0.654v-1.488zM50.235 24.944c0-0.315-0.107-0.65-0.392-0.899l-0.979 1.122c-0.041-0.037-0.074-0.082-0.096-0.134l-0.001-0.002c-0.011-0.025-0.019-0.055-0.021-0.086l-0-0.001h1.488zM49.848 24.050c-0.269-0.24-0.598-0.31-0.88-0.31v1.488c0.023 0 0.019 0.004-0.004-0.004-0.040-0.014-0.075-0.035-0.104-0.062l0 0 0.988-1.113zM48.967 23.74c-0.256 0-0.563 0.054-0.827 0.258l0.908 1.179c-0.027 0.022-0.060 0.040-0.095 0.052l-0.002 0.001c-0.016 0.004-0.013 0 0.016 0v-1.488zM48.147 23.993c-0.262 0.195-0.429 0.504-0.429 0.852 0 0.003 0 0.005 0 0.008v-0h1.488c-0.001 0.067-0.017 0.13-0.046 0.186l0.001-0.002c-0.029 0.058-0.069 0.106-0.117 0.144l-0.001 0.001-0.896-1.188zM47.717 24.852c0 0.404 0.223 0.701 0.482 0.877l0.834-1.233c0.043 0.031 0.079 0.071 0.105 0.116l0.001 0.002c0.045 0.075 0.067 0.16 0.067 0.24h-1.488zM48.204 25.731c0.193 0.129 0.426 0.22 0.657 0.29l0.431-1.425c-0.1-0.026-0.187-0.062-0.269-0.106l0.006 0.003-0.826 1.238zM48.862 26.021c0.322 0.097 0.461 0.191 0.508 0.237l1.039-1.066c-0.294-0.286-0.696-0.469-1.118-0.595l-0.429 1.424zM49.37 26.258c0.009 0.008 0.017 0.018 0.022 0.029l0 0.001c0.005 0.015 0.008 0.032 0.008 0.049 0 0.002-0 0.005-0 0.007v-0h1.488c0-0.438-0.16-0.84-0.48-1.152l-1.039 1.066zM49.401 26.343c0 0.022-0.002 0.035-0.003 0.041l-0.002 0.004 0.002-0.004s-0.004 0.004-0.014 0.013l0.898 1.188c0.406-0.307 0.607-0.749 0.607-1.242h-1.488zM49.387 26.396c-0.040 0.030-0.147 0.085-0.394 0.085v1.488c0.456 0 0.91-0.1 1.285-0.382l-0.892-1.191zM48.993 26.48c-0.153 0-0.271-0.028-0.366-0.069l-0.602 1.361c0.306 0.135 0.633 0.196 0.968 0.196v-1.488zM48.632 26.413c-0.061-0.023-0.112-0.060-0.15-0.109l-0.001-0.001-1.23 0.839c0.196 0.287 0.466 0.491 0.77 0.627l0.61-1.357zM48.484 26.308c-0.015-0.022-0.030-0.054-0.030-0.125h-1.488c0 0.339 0.089 0.666 0.283 0.956l1.235-0.831zM47.71 26.927h0.656v-1.488h-0.656v1.488zM47.621 26.183c0 0.327 0.104 0.697 0.424 0.964 0.293 0.246 0.653 0.305 0.948 0.305v-1.488c-0.055 0-0.077-0.006-0.074-0.006 0.032 0.011 0.059 0.027 0.082 0.048l-0-0c0.041 0.035 0.074 0.079 0.094 0.129l0.001 0.002c0.016 0.040 0.013 0.061 0.013 0.046h-1.488zM48.993 27.452c0.244 0 0.539-0.048 0.798-0.234l-0.867-1.209c0.026-0.020 0.057-0.035 0.090-0.045l0.002-0c0.013-0.004 0.007 0-0.022 0v1.488zM49.797 27.214c0.29-0.212 0.435-0.528 0.435-0.866h-1.488c0.004-0.137 0.071-0.257 0.172-0.333l0.001-0.001 0.88 1.2z"></path>
</svg>
