<!-- Generated by IcoMoon.io -->
<svg version="1.1" xmlns="http://www.w3.org/2000/svg" width="32" height="32" viewBox="0 0 32 32">
<title>mail</title>
<path fill="#757575" d="M28.775 4.093h-25.799c-1.641 0-2.977 1.336-2.977 2.977v17.86c0 1.641 1.336 2.977 2.977 2.977h25.799c1.641 0 2.977-1.336 2.977-2.977v-17.86c0-1.641-1.336-2.977-2.977-2.977zM28.775 6.078c0.135 0 0.264 0.028 0.381 0.077l-13.28 11.51-13.28-11.51c0.112-0.048 0.243-0.077 0.381-0.077h25.799zM28.775 25.922h-25.799c-0.548 0-0.992-0.444-0.992-0.992v0-16.679l13.241 11.476c0.173 0.151 0.401 0.243 0.651 0.243s0.478-0.092 0.652-0.244l-0.002 0.001 13.241-11.476v16.679c0 0.548-0.444 0.992-0.992 0.992v0z"></path>
</svg>
