<svg aria-hidden="true" style="position:absolute;width:0;height:0" xmlns="http://www.w3.org/2000/svg" overflow="hidden"><defs><symbol id="icon-antenna" viewBox="0 0 32 32"><path fill="var(--color1, #212121)" d="M29.258 19.831l-7.577-7.633.841-4.142c.202.081.436.129.68.131H23.231a1.938 1.938 0 10-1.822-1.275l-.004-.013-4.451.544L9.693.144A.481.481 0 009.355 0a.478.478 0 00-.335.14L7.663 1.49a.475.475 0 000 .676l.73.74C7.367 4.757 6.764 6.964 6.764 9.313a13.37 13.37 0 003.891 9.446l-.001-.001a.454.454 0 00.131.087 2.663 2.663 0 00-.047.49v5.553H4.994A2.397 2.397 0 002.6 27.281v.957a.48.48 0 00.479.479h22.017a.478.478 0 00.478-.479v-.957a2.396 2.396 0 00-2.393-2.393h-5.744v-2.461c.821.18 1.766.285 2.734.287h.002a13.275 13.275 0 006.387-1.635l-.069.035.734.738c.089.091.21.142.338.144a.478.478 0 00.335-.14l1.357-1.35a.475.475 0 000-.676zM22.533 5.594a.956.956 0 011.632.678.958.958 0 01-.957.957h-.004a.957.957 0 01-.67-1.636h-.002zm-1.127 3.144l-.537 2.644-1.055-1.061 1.592-1.582zm-.543-.809L19.14 9.642l-1.333-1.34 3.056-.373zm2.32 17.917c.793 0 1.436.643 1.436 1.436v.479H3.559v-.479c0-.793.643-1.436 1.436-1.436h18.188zm-6.701-1.915v.958h-4.786v-.958h4.786zm-4.786-.957v-3.638c0-1.161 1.074-2.106 2.393-2.106s2.393.945 2.393 2.106v3.638h-4.786zm5.744-1.522v-2.116c0-1.689-1.503-3.063-3.351-3.063h-.052c-1.214 0-2.28.634-2.884 1.589l-.008.014a12.4 12.4 0 01-3.421-8.57c0-2.077.509-4.035 1.408-5.756l-.033.069 16.694 16.79a12.232 12.232 0 01-5.623 1.348c-.968 0-1.91-.111-2.814-.321l.084.016zm10.131-.613L8.674 1.831l.677-.675 7.121 7.161c.003 0 .005.006.008.009l11.77 11.838-.679.675z"/><path fill="var(--color2, #2196f3)" d="M14.094 18.188h-.006a1.436 1.436 0 00-.002 2.872h.006a1.436 1.436 0 00.002-2.872zm.334 1.775a.48.48 0 11-.34-.818.48.48 0 01.335.818h.004z"/></symbol><symbol id="icon-astronaut" viewBox="0 0 32 32"><path fill="var(--color2, #2196f3)" d="M31.974 4.524a.535.535 0 00-.427-.362h-.003l-1.911-.278-.855-1.731c-.179-.365-.777-.365-.956 0l-.855 1.731-1.911.278a.534.534 0 00-.296.91l1.383 1.348-.326 1.903a.532.532 0 00.774.562l1.709-.899 1.709.899a.534.534 0 00.773-.565v.003l-.326-1.903 1.383-1.348a.535.535 0 00.134-.55l.001.004zm-2.463 1.327a.53.53 0 00-.153.472l.191 1.114-1-.526a.525.525 0 00-.501.001l.003-.001-1 .526.191-1.114a.53.53 0 00-.152-.472l-.811-.789 1.119-.163a.532.532 0 00.402-.292l.5-1.013.5 1.013a.532.532 0 00.402.292l1.119.162-.809.79zm-3.377 14.671h-1.067v1.067h1.067v-1.067zm0 2.134h-1.067v1.066h1.067v-1.066zm1.066-1.067h-1.067v1.067H27.2v-1.067zm-2.133 0H24v1.067h1.067v-1.067zm-2.667 4.8h-1.067v1.067H22.4v-1.067zm0 2.134h-1.067v1.067H22.4v-1.067zm1.067-1.067H22.4v1.067h1.067v-1.067zm-2.133 0h-1.067v1.067h1.067v-1.067zM16 24.256h-1.066v1.067H16v-1.067zm0 2.133h-1.066v1.067H16v-1.067zm1.067-1.067H16v1.067h1.067v-1.067zm-2.133 0h-1.067v1.067h1.067v-1.067zm-9.067-19.2H4.801v1.066h1.066V6.122zm0 2.134H4.801v1.066h1.066V8.256zm1.066-1.067H5.866v1.067h1.066V7.189zm-2.133 0H3.733v1.067H4.8V7.189z"/><path fill="var(--color1, #212121)" d="M24.715 14.16a1.774 1.774 0 00-1.179-.703l-.009-.001a1.769 1.769 0 00-1.344.355l.004-.003-1.253.96-1.898 1.417-1.358-.541c2.421-1.086 4.113-3.508 4.113-6.32 0-3.823-3.122-6.934-6.961-6.934S7.869 5.5 7.869 9.324c0 1.386.415 2.674 1.12 3.759l-2.768-.024c-.009 0-.016.005-.023.005a.511.511 0 00-.159.033l.004-.001c-.013.005-.026.007-.038.013-.006.003-.013.003-.019.006l-3.233 1.596-.001.001-1.893.91a.429.429 0 00-.064.036l.001-.001a1.782 1.782 0 00-.594 2.306l-.005-.01c.22.424.592.742 1.043.885l.013.003a1.772 1.772 0 001.388-.133l-.009.005 1.388-.738 2.264-1.169 1.357-.008-5.442 5.415-.001.001-1.339 1.333a1.643 1.643 0 00-.491 1.173v.005a1.668 1.668 0 001.667 1.664h.002a1.67 1.67 0 001.18-.485l1.314-1.309 1.741-1.3.901.897-3.102 3.088a1.645 1.645 0 00-.491 1.174v.004a1.662 1.662 0 001.666 1.664h.003a1.67 1.67 0 001.18-.485l4.488-4.472c.007-.006.016-.009.022-.016l5.166-5.658 3.471.494a.474.474 0 00.262-.032c.017-.006.032-.015.049-.023.019-.01.039-.015.058-.027l3.213-2.133c.012-.008.018-.021.029-.03.013-.01.029-.014.041-.026l1.271-1.191c.348-.326.564-.787.564-1.3 0-.4-.132-.769-.355-1.066l.003.005zM2.13 17.77a.706.706 0 01-.564.05l.005.001a.717.717 0 01-.214-1.258l.002-.001 1.314-.632.449 1.313-.992.527zm3.497-1.828l-1.548.8-.255-.746-.184-.537 2.027-1.001-.04 1.484zm15.1-6.62c0 .918-.219 1.785-.599 2.56l-4.181-1.899a1.865 1.865 0 00-.782-1.384l-.006-.004 1.464-4.86c2.377.756 4.104 2.974 4.104 5.588zm-11.789 0c0-3.235 2.644-5.867 5.894-5.867.253 0 .5.022.745.053l-1.432 4.753c-.019 0-.037-.006-.057-.006h-.001a1.872 1.872 0 00-1.872 1.867 1.873 1.873 0 001.872 1.867h.001c.695 0 1.295-.383 1.618-.944l3.863 1.755a5.893 5.893 0 01-4.737 2.389c-3.25 0-5.894-2.632-5.894-5.867zm5.957.8c0 .441-.362.8-.806.8h-.001a.804.804 0 01-.804-.8c0-.441.361-.8.806-.8s.806.359.806.8zM2.464 25.146a.606.606 0 01-.855.001.591.591 0 010-.844l.962-.959.852.848-.959.955zm3.214 3.734a.606.606 0 01-.855.001.591.591 0 010-.844l.963-.959.852.848-.96.955zm3.482-3.469l-.001.001-1.765 1.76-.852-.848 1.765-1.757a.527.527 0 00.09-.136c.007-.014.02-.026.026-.04.016-.041.019-.085.026-.128.003-.025.014-.048.014-.073 0-.035-.013-.07-.02-.105-.006-.032-.006-.064-.019-.096a.536.536 0 00-.092-.138c-.01-.012-.014-.027-.025-.038h-.001l-.001-.002-1.607-1.6c-.017-.017-.039-.024-.058-.038a.563.563 0 00-.084-.057l-.003-.001a.453.453 0 00-.09-.031l-.003-.001a.502.502 0 00-.101-.02h-.002l-.023-.001a.603.603 0 00-.075.005h.003c-.036.005-.069.009-.104.021a.502.502 0 00-.096.046l.002-.001c-.02.011-.043.015-.061.029l-1.774 1.324-.901-.897 2.399-2.386 4.36 4.289-.928.919zm6.819-7.017c-.016-.002-.03.004-.046.003l-.027-.001a.562.562 0 00-.092.008h.003a.484.484 0 00-.187.07l.002-.001a.528.528 0 00-.083.062c-.013.011-.028.016-.04.029l-4.698 5.146-4.328-4.256 2.833-2.818a.535.535 0 00-.378-.911h-.002l-2.219.013.028-1.607 3.104.027a6.928 6.928 0 004.978 2.101h.003c.438 0 .864-.046 1.28-.122.04.032.08.064.129.085l2.41.96.152.759.178.885-3.003-.427zm4.041.178l-.313-1.558 1.446-1.08.946 1.257-2.08 1.381zm3.753-2.831l-.837.785-.931-1.237.831-.637a.735.735 0 01.543-.143.718.718 0 01.621.71.71.71 0 01-.226.521z"/><path fill="var(--color1, #212121)" d="M13.602 18.544l-2.143-2.134a.53.53 0 00-.752 0l-2.143 2.133a.535.535 0 000 .756l2.142 2.134a.53.53 0 00.752 0l2.143-2.134a.532.532 0 000-.756zm-2.519 1.759l-1.387-1.381 1.386-1.381 1.387 1.381-1.387 1.381zm6.081-15.232l-.258 1.036c.071.018 1.738.452 1.738 2.149h1.067c0-2.017-1.666-2.965-2.547-3.184zm2.547 4.251h-1.067v1.066h1.067V9.322z"/></symbol><symbol id="icon-client-logo-1" viewBox="0 0 32 32"><path d="M5.34 0l4.677 4.428h13.046v12.351l4.677 4.428V.001H5.34z"/><path d="M1.5 4.241v20.6h21.76v-8.188L10.155 4.246 1.5 4.241zm17.615 17.587H4.943V7.973h1.002V20.89h13.17v.938zM7.766 28.662l.524-1.078h.438l-.764 1.437v.838h-.397v-.838l-.764-1.437h.439l.524 1.078zm2.247.667h-.881l-.184.53h-.411l.859-2.275h.355l.861 2.275h-.413l-.186-.53zm-.77-.319h.659l-.33-.944-.33.944zm2.328.234c0-.105.029-.202.086-.289.058-.089.17-.193.339-.314a1.498 1.498 0 01-.182-.276l-.004-.008a.568.568 0 01-.052-.226c0-.179.054-.319.163-.422s.254-.156.437-.156c.166 0 .301.049.406.147s.16.218.16.361v.003a.497.497 0 01-.074.262l.001-.002a.858.858 0 01-.233.236l-.003.002-.155.113.44.518a.914.914 0 00.095-.417h.33c0 .28-.065.509-.196.689l.334.396h-.44l-.128-.152a.93.93 0 01-.558.183h-.025.001c-.225 0-.405-.06-.54-.179a.597.597 0 01-.202-.447v-.021.001zm.753.343a.58.58 0 00.359-.128l-.497-.586-.049.035c-.125.095-.188.203-.188.325 0 .105.034.191.102.256a.375.375 0 00.254.099h.019-.001zm-.21-1.466c0 .088.054.197.161.33l.173-.118.049-.039a.283.283 0 00.097-.212v-.009-.002a.2.2 0 00-.067-.149.233.233 0 00-.162-.064h-.019a.224.224 0 00-.167.075.276.276 0 00-.066.179v.01zm4.134.997c-.023.243-.113.432-.269.568s-.364.204-.623.204a.902.902 0 01-.48-.128.86.86 0 01-.317-.362l-.002-.005a1.302 1.302 0 01-.117-.544v-.22c0-.214.038-.403.114-.567s.186-.29.326-.378a.913.913 0 01.494-.133c.251 0 .453.068.606.205s.243.329.268.578h-.394c-.019-.163-.067-.281-.144-.353s-.188-.109-.336-.109a.464.464 0 00-.397.189c-.092.125-.138.309-.141.552v.202c0 .246.044.433.132.563s.218.194.387.194c.155 0 .272-.035.35-.105s.128-.186.148-.348h.394zm2.17-.338c0 .223-.038.419-.115.588a.88.88 0 01-.332.388.905.905 0 01-.494.134.92.92 0 01-.493-.134.897.897 0 01-.332-.38l-.002-.006a1.335 1.335 0 01-.119-.555v-.023.001-.128c0-.222.038-.418.117-.588s.19-.3.333-.389c.144-.091.308-.136.493-.136s.35.045.493.134c.143.089.255.217.333.384s.118.362.118.584v.126zm-.396-.118c0-.252-.048-.445-.143-.58a.465.465 0 00-.384-.202l-.022.001h.001-.016a.468.468 0 00-.384.2l-.001.002c-.096.133-.145.323-.147.567v.131c0 .25.049.444.146.58s.233.205.406.205c.175 0 .31-.067.403-.2.095-.133.142-.328.142-.584v-.118z"/></symbol><symbol id="icon-client-logo-2" viewBox="0 0 32 32"><path d="M13.947 1.806h.084c.156 0 .324.015.49.03a13.96 13.96 0 012.18.329V.403a12.432 12.432 0 00-2.207-.357l-.042-.002c-.254-.02-.571-.035-.889-.043h-.284c-1.523.006-3.04.201-4.514.582a18.266 18.266 0 00-4.79 1.948v17.475a18.922 18.922 0 014.431-1.75l.135-.029c1.123-.3 2.433-.51 3.78-.586l.052-.002h.052c.217-.011.433-.017.655-.018V15.83c-1.78.024-3.493.264-5.129.695l.147-.033c-.603.157-1.185.326-1.731.513l-.623.212V3.591l.266-.128c1.89-.918 4.096-1.513 6.425-1.649l.047-.002.028-.001.029.001h-.001c.248-.012.497-.018.742-.018h.28c.129.003.258.006.388.014z"/><path d="M18.337 3.651h-.016c-.915 0-1.811-.077-2.684-.225l.094.013c-.277-.047-.55-.103-.814-.164V20.55c1.12.277 2.271.412 3.425.404a18.446 18.446 0 004.644-.61l-.128.029a18.299 18.299 0 004.877-1.995l-.085.047V1.262a19.021 19.021 0 01-4.429 1.751l-.136.03a19.345 19.345 0 01-4.746.609zm6.908.299l.623-.209v13.63l-.266.129c-.903.442-1.962.834-3.065 1.118l-.119.026a16.52 16.52 0 01-4.074.527c-.411 0-.818-.017-1.214-.052l-.426-.038V5.064l.497.033c.361.023.735.034 1.141.034a21.134 21.134 0 005.32-.696l-.147.033a28.128 28.128 0 001.731-.518zM5.184 25.977a.916.916 0 00-.661-.281l-.034.001h.002-.014c-.139 0-.272.028-.393.078l.007-.003a.904.904 0 00-.51.512l-.002.006a1.001 1.001 0 00-.071.386v2.335c-.006.164.026.328.092.479.055.12.135.226.234.313a.824.824 0 00.32.166c.114.031.231.048.349.048a.985.985 0 00.968-.982v-.261H4.86v.222c0 .07-.013.136-.037.198l.001-.004a.38.38 0 01-.089.132.426.426 0 01-.255.089.308.308 0 01-.286-.125l-.001-.001a.548.548 0 01-.082-.289l.001-.024v.001-2.177a.74.74 0 01.075-.349.31.31 0 01.262-.143l.038.002h-.001.012c.107 0 .201.052.26.131l.001.001a.493.493 0 01.101.3v.014-.001.202h.604v-.238-.011c0-.143-.027-.28-.077-.405l.003.007a.955.955 0 00-.205-.329zm3.626-.026a1.051 1.051 0 00-1.058-.191.965.965 0 00-.557.511l-.002.006a1.08 1.08 0 00-.089.452v2.239c-.004.158.026.314.089.458a.89.89 0 00.237.313.964.964 0 00.322.197 1.049 1.049 0 001.059-.198l-.001.001a.948.948 0 00.23-.313c.063-.144.093-.301.089-.458v-2.239-.021c0-.156-.033-.304-.092-.438l.003.007a1.016 1.016 0 00-.23-.327zm-.285 3.018l.002.035a.398.398 0 01-.123.289.446.446 0 01-.575 0l.001.001a.398.398 0 01-.121-.326v.002-2.239l-.001-.034a.4.4 0 01.123-.289.446.446 0 01.575 0l-.001-.001a.398.398 0 01.121.326v-.002 2.24zm5.047 1v-4.24h-.586l-.771 2.244h-.01l-.777-2.244h-.58v4.239h.606V27.39h.011l.593 1.823h.302l.598-1.823h.01v2.578h.606zm3.441-3.942a.834.834 0 00-.342-.232 1.31 1.31 0 00-.416-.066h-.923v4.24h.604v-1.656h.311c.189.009.376-.031.545-.116a.88.88 0 00.329-.32l.002-.004a1 1 0 00.138-.369c.021-.133.033-.287.033-.444v-.04.002a2.426 2.426 0 00-.059-.606.906.906 0 00-.223-.39zm-.312 1.292a.538.538 0 01-.057.224l.001-.003a.342.342 0 01-.154.147l-.002.001a.617.617 0 01-.254.054l-.033-.001h-.274V26.3h.311l.029-.001c.088 0 .172.02.247.055l-.004-.002a.35.35 0 01.141.154l.001.002a.62.62 0 01.053.236v.282c0 .098.006.201 0 .291H16.7zm3.173-1.59h-.495l-.934 4.24h.604l.177-.911h.823l.178.911h.604l-.957-4.24zm-.557 2.752l.297-1.537h.011l.295 1.537h-.604zm4.46-.198h-.011l-.913-2.554h-.58v4.24h.604v-2.55h.012l.923 2.549h.568v-4.239h-.604v2.554zm3.691-2.554l-.486 1.686h-.012l-.486-1.686h-.639l.83 2.448v1.791h.604v-1.791l.83-2.447h-.64zM3.5 31.166h.291v.817h.198v-.817h.289v-.167H3.5v.168zm2.447-.168l-.382.985h.21l.081-.224h.392l.084.224h.215l-.391-.985h-.21zm-.03.595l.134-.365.134.365h-.268zm2.449.027h.228v.127a.378.378 0 01-.234.083h-.014a.25.25 0 01-.195-.094.406.406 0 01-.073-.234l.001-.023v.001c0-.219.095-.329.283-.329l.021-.001c.097 0 .178.067.201.157v.001l.194-.038c-.042-.192-.18-.289-.417-.289h-.013a.492.492 0 00-.331.127.48.48 0 00-.141.38v-.002.023c0 .132.048.254.127.347l-.001-.001c.087.09.209.146.343.146L8.377 32h-.001.016c.155 0 .296-.06.402-.157v-.388h-.426v.166zm2.471-.622h-.199v.985h.689v-.167h-.49v-.817zm2.089 0h-.199v.985h.199v-.985zm2.043.657l-.404-.657h-.193v.985h.185v-.643l.396.643h.198v-.985h-.182v.658zm1.846-.106h.49v-.167h-.49v-.215h.527v-.168h-.727v.985h.747v-.167h-.548v-.266zm4.477-.163h-.388v-.388h-.198v.984h.198v-.431h.388v.431h.198v-.985h-.198v.388zm1.857.163h.492v-.167h-.492v-.215h.529v-.168h-.726v.985h.746v-.167h-.548v-.266zm2.519.001c.172-.027.258-.118.258-.274a.23.23 0 00-.096-.219h-.001a.555.555 0 00-.25-.059l-.04.001h-.415v.984h.198v-.412h.055c.039 0 .076.008.109.023l-.002-.001a.201.201 0 01.07.072l.215.313h.236l-.12-.192a.704.704 0 00-.215-.235l-.002-.002zm-.199-.137h-.146v-.247h.156a.515.515 0 01.205.024l-.004-.001a.13.13 0 01-.009.2.537.537 0 01-.164.025l-.039-.001h.002zm2.099.136h.49v-.167h-.49v-.215h.529v-.168h-.728v.985h.747v-.167h-.548v-.266z"/></symbol><symbol id="icon-client-logo-3" viewBox="0 0 32 32"><path d="M5.222 31.103c.023.001.044.01.06.025l.153.161c-.119.13-.266.234-.431.304a1.533 1.533 0 01-.61.109h-.031a1.5 1.5 0 01-.554-.106l.01.004a1.25 1.25 0 01-.709-.725l-.003-.009a1.591 1.591 0 01-.097-.55v-.022-.022c0-.198.038-.387.108-.56l-.004.01a1.318 1.318 0 01.757-.734c.188-.07.389-.104.591-.102a1.47 1.47 0 01.55.093c.151.063.29.149.412.257l-.129.171a.134.134 0 01-.032.031.077.077 0 01-.045.014h-.006a.107.107 0 01-.056-.019l-.068-.045-.096-.059a1.024 1.024 0 00-.296-.101l-.006-.001a1.233 1.233 0 00-.209-.018h-.02.001-.016c-.147 0-.288.028-.417.079l.008-.003a.964.964 0 00-.333.216 1.002 1.002 0 00-.216.342 1.248 1.248 0 00-.079.452c-.002.156.025.313.079.46.046.126.119.242.212.341a.863.863 0 00.318.212c.125.049.259.074.394.073.078.001.156-.004.234-.015a.879.879 0 00.505-.235.115.115 0 01.072-.03zm4.422-.807c.002.194-.033.387-.103.568a1.246 1.246 0 01-.288.44 1.314 1.314 0 01-.444.286l-.009.003a1.695 1.695 0 01-1.176-.004l.012.004a1.331 1.331 0 01-.45-.29 1.3 1.3 0 01-.288-.436l-.003-.009a1.614 1.614 0 01.004-1.147l-.004.011a1.34 1.34 0 01.29-.447 1.32 1.32 0 01.441-.276l.009-.003A1.674 1.674 0 018.811 29l-.012-.004a1.29 1.29 0 01.741.729c.071.182.106.376.104.571zm-.402 0v-.024c0-.155-.027-.303-.076-.441l.003.009a.907.907 0 00-.522-.554l-.006-.002a1.219 1.219 0 00-.855.003l.009-.003a.903.903 0 00-.528.55l-.002.006a1.465 1.465 0 000 .912.899.899 0 00.524.552l.006.002c.273.097.573.097.846 0a.903.903 0 00.324-.214.972.972 0 00.205-.341 1.29 1.29 0 00.073-.456zm3.418.478l.041.102c.015-.036.028-.069.044-.102.017-.04.034-.073.052-.105l-.002.005.978-1.694c.019-.03.037-.048.056-.053a.234.234 0 01.066-.009h.303v2.755h-.342v-2.11l-.001-.048.001-.05v.002l-.984 1.718a.149.149 0 01-.057.062h-.001a.16.16 0 01-.082.022h-.057a.151.151 0 01-.141-.084v-.001l-1.013-1.73v2.212h-.331v-2.75h.303a.22.22 0 01.068.01h-.002a.107.107 0 01.053.052v.001l.999 1.696c.018.028.035.06.048.094l.001.004zm3.681-.136v1.031h-.383v-2.75h.887c.158 0 .311.022.455.063l-.012-.003a.927.927 0 01.337.171c.085.074.15.167.191.27a.925.925 0 01.066.352.84.84 0 01-.071.352.772.772 0 01-.205.274l-.001.001a.953.953 0 01-.333.181l-.007.002a1.498 1.498 0 01-.461.064l-.463-.007zm0-.296h.464c.1.002.201-.013.296-.042a.627.627 0 00.215-.12l-.001.001c.056-.049.1-.11.129-.178l.001-.003a.565.565 0 00.046-.225v-.008l.001-.028a.506.506 0 00-.041-.199l.001.003a.544.544 0 00-.133-.188.763.763 0 00-.517-.148h-.461v1.134zm5.146 1.331h-.308a.134.134 0 01-.079-.026.168.168 0 01-.049-.063v-.001l-.26-.665h-1.307l-.27.665a.152.152 0 01-.047.061.135.135 0 01-.082.028h-.307l1.148-2.756h.398l1.164 2.756zm-1.895-1.023h1.079l-.455-1.122a1.845 1.845 0 01-.083-.245l-.003-.013-.044.144a1.282 1.282 0 01-.045.126l.003-.009-.452 1.119zm3.548-1.72c.023.013.043.03.058.05l1.674 2.076v-2.139h.342v2.756h-.196a.164.164 0 01-.074-.017h.001a.233.233 0 01-.061-.051L23.21 29.53a.753.753 0 010 .095v2.049h-.342v-2.756h.203c.024 0 .047.004.068.013zm4.897 1.647v1.094h-.383v-1.094l-1.058-1.66H26.946c.028 0 .054.009.075.024a.251.251 0 01.052.061l.001.001.662 1.07a1.363 1.363 0 01.116.244l.05-.118a.93.93 0 01.068-.13l-.002.004.653-1.078a.284.284 0 01.05-.059.117.117 0 01.076-.027h.352l-1.06 1.667zm-15.566-6.284c.167.02.335.037.506.051 2.582-1.101 4.767-2.902 6.281-5.18s2.29-4.93 2.231-7.625l-2.846-2.712c.189.894.297 1.921.297 2.974 0 2.015-.396 3.937-1.115 5.694l.036-.1c-1.09 2.731-2.957 5.12-5.39 6.899z"/><path d="M11.454 24.167l.077.015c2.6-1.773 4.583-4.247 5.692-7.104.627-1.564.991-3.378.991-5.276 0-1.296-.17-2.553-.488-3.748l.023.101-4.054-3.862c1.269 2.397 2.015 5.239 2.015 8.255 0 .701-.04 1.393-.119 2.074l.008-.083c-.397 3.519-1.834 6.857-4.144 9.628zm13.75-9.443c-.688 2.962-2.361 5.632-4.77 7.616a14.98 14.98 0 01-2.191 1.51l-.075.039a13.579 13.579 0 005.285-2.851l-.016.013a12.774 12.774 0 003.381-4.679l.031-.084-1.645-1.565z"/><path d="M24.56 14.288l-2.341-2.23a13.684 13.684 0 01-2.23 7.249l.032-.053c-1.394 2.169-3.373 3.943-5.729 5.137h.012c.525 0 1.049-.03 1.572-.089a14.47 14.47 0 005.649-3.95l.014-.017a13.397 13.397 0 003.005-5.958l.016-.089zM11.794 2.664L9.001 0c-2.497.919-4.644 2.535-6.16 4.636S.508 9.225.501 11.775c.01 2.818 1.005 5.552 2.829 7.77s4.372 3.793 7.242 4.476c2.562-2.973 4.061-6.647 4.281-10.488s-.851-7.648-3.059-10.87zm19.218 11.214c-.01-3.343-1.409-6.547-3.89-8.91s-5.843-3.696-9.352-3.706a13.67 13.67 0 00-4.741.841l17.099 16.29c.559-1.335.884-2.886.884-4.513v-.001z"/></symbol><symbol id="icon-client-logo-4" viewBox="0 0 32 32"><path d="M4.961 12.532H4.96c-.905 0-1.638.715-1.638 1.597v.001c0 .882.734 1.597 1.638 1.597h.001c.905 0 1.638-.715 1.638-1.597v-.001c0-.882-.734-1.596-1.638-1.596zm12.094-.51a4.573 4.573 0 00-1.392-3.265 4.814 4.814 0 00-6.701-.001 4.567 4.567 0 00-1.392 3.266v6.754s9.484-1.029 9.485-6.753v-.001zM0 20.993c.004.892.375 1.696.968 2.271l.001.001a3.346 3.346 0 004.662 0l-.001.001c.594-.576.965-1.38.969-2.27v-4.701S0 17.013 0 20.994zm3.3.842h-.002a.873.873 0 01-.482-.144l.003.002a.854.854 0 01-.316-.373l-.002-.005a.802.802 0 01-.048-.492l-.001.005a.834.834 0 01.237-.431.874.874 0 01.437-.23l.006-.001a.877.877 0 01.887.358.823.823 0 01.079.796l.002-.005a.864.864 0 01-.799.521v-.003zm6.736-.523h-.675v.697h-.352v-1.706h1.111v.285h-.759v.44h.675v.284zm1.69-.117c0 .168-.03.315-.089.442s-.144.224-.256.293a.693.693 0 01-.367.103H11h.001a.68.68 0 01-.634-.388l-.002-.004a.993.993 0 01-.092-.421v-.016.001-.085c0-.168.03-.316.09-.443a.677.677 0 01.636-.397c.142 0 .268.034.378.103.111.068.196.166.256.294s.092.275.092.442v.076zm-.356-.077c0-.179-.032-.315-.096-.408a.313.313 0 00-.261-.14h-.014H11h-.013a.312.312 0 00-.259.138l-.001.001c-.064.091-.097.226-.098.403v.083c0 .174.032.31.096.406s.156.144.277.144h.014a.308.308 0 00.257-.137l.001-.001c.063-.093.095-.228.096-.406v-.083zm1.496.444v-.01a.18.18 0 00-.07-.142.892.892 0 00-.253-.113 1.839 1.839 0 01-.3-.122l.01.005c-.194-.105-.291-.246-.291-.423 0-.092.026-.174.078-.246s.127-.129.224-.17c.098-.04.207-.061.328-.061s.23.022.326.067c.096.044.169.106.222.186s.08.172.08.274h-.352c0-.078-.024-.139-.074-.182a.3.3 0 00-.208-.066.317.317 0 00-.2.055.17.17 0 00-.072.139v.004c0 .055.028.102.083.139a.942.942 0 00.248.106c.2.06.346.135.437.224s.137.2.137.332c0 .148-.056.264-.168.348s-.262.126-.451.126a.867.867 0 01-.358-.072.582.582 0 01-.246-.196l-.001-.002a.504.504 0 01-.085-.281v-.01.001h.352c0 .188.113.282.338.282a.336.336 0 00.196-.05.166.166 0 00.07-.136v-.007zm1.876-.974h-.522v1.421h-.352v-1.421h-.516v-.285h1.39v.285zm1.228.682h-.675v.457h.792v.282h-1.144v-1.706h1.142v.285h-.79v.406h.675v.276zm.955.115h-.28v.624h-.352v-1.706h.634c.201 0 .357.045.466.135s.164.217.164.381a.533.533 0 01-.076.292.524.524 0 01-.225.184l-.003.001.369.697v.016h-.378l-.32-.624zm-.28-.285h.284a.291.291 0 00.205-.067.243.243 0 00.073-.174v-.013.001c0-.08-.023-.144-.069-.19s-.115-.069-.21-.069h-.283v.512zm2.131.308v.601h-.352v-1.706h.666c.128 0 .24.023.338.07a.523.523 0 01.303.494c0 .167-.057.299-.172.396s-.272.144-.475.144h-.308zm0-.284h.314c.093 0 .164-.022.212-.066s.074-.106.074-.187v-.012a.28.28 0 00-.074-.191.275.275 0 00-.204-.08h-.322v.536zM21 21.27h-.675v.457h.792v.282h-1.144v-1.706h1.142v.285h-.79v.406H21v.276zm1.631-.682h-.522v1.421h-.352v-1.421h-.515v-.285h1.39v.285zm1.228.682h-.675v.457h.792v.282h-1.144v-1.706h1.142v.285h-.79v.406h.675v.276zm.955.115h-.28v.624h-.352v-1.706h.634c.202 0 .357.045.466.135s.164.217.164.381a.524.524 0 01-.076.292.524.524 0 01-.225.184l-.003.001.369.697v.016h-.377l-.32-.624zm-.28-.285h.284a.291.291 0 00.205-.067.24.24 0 00.073-.173v-.014.001c0-.08-.023-.144-.069-.19s-.115-.069-.21-.069h-.282v.512zm2.066.462v-.01a.18.18 0 00-.07-.142.892.892 0 00-.253-.113 1.839 1.839 0 01-.3-.122l.01.005c-.194-.105-.291-.246-.291-.423 0-.092.026-.174.078-.246s.127-.129.224-.17c.097-.04.207-.061.328-.061s.23.022.326.067c.095.044.169.106.222.186s.08.172.08.274h-.352c0-.078-.024-.139-.074-.182a.302.302 0 00-.208-.066.317.317 0 00-.2.055.17.17 0 00-.072.139v.005c0 .055.028.102.083.139a.949.949 0 00.247.106c.2.06.346.135.437.224s.137.2.137.332c0 .148-.056.264-.168.348s-.262.126-.451.126a.867.867 0 01-.358-.072.582.582 0 01-.246-.196l-.001-.002a.503.503 0 01-.084-.281v-.01.001h.352c0 .188.113.282.338.282a.336.336 0 00.196-.05.166.166 0 00.07-.136v-.007z"/></symbol><symbol id="icon-client-logo-5" viewBox="0 0 32 32"><path d="M2.445 24.594a.85.85 0 01.189.55.873.873 0 01-.291.694l-.001.001a1.264 1.264 0 01-.849.254H.001v-3.489h1.462c.025-.002.054-.002.082-.002.273 0 .526.088.731.238l-.003-.002a.797.797 0 01.282.654v-.002a.811.811 0 01-.17.534.796.796 0 01-.445.272.85.85 0 01.504.298zm-1.751-.527h.624a.588.588 0 00.398-.116.415.415 0 00.135-.306l-.002-.036v.002l.001-.03a.426.426 0 00-.134-.311.603.603 0 00-.411-.118H.694v.915zm1.084 1.338a.435.435 0 00.149-.326l-.001-.029v.002a.441.441 0 00-.15-.359l-.001-.001a.641.641 0 00-.427-.125H.695v.959h.663a.651.651 0 00.419-.121zm3.654.689l-.813-1.363h-.306v1.363h-.699v-3.489h1.323a1.3 1.3 0 01.925.299l-.002-.002a1.114 1.114 0 01.096 1.446l.002-.003a1.063 1.063 0 01-.631.354l.866 1.394h-.76zm-1.118-1.84h.572c.398 0 .596-.176.596-.528l.001-.03a.516.516 0 00-.147-.362.611.611 0 00-.453-.142h-.577l.007 1.062zm4.94 1.137H7.86l-.246.702h-.733l1.28-3.45h.793l1.274 3.45h-.733l-.241-.702zm-.186-.528l-.51-1.472-.51 1.472h1.018zm4.972 1.231h-.695l-1.557-2.372v2.372h-.692v-3.489h.692l1.557 2.386v-2.386h.694v3.489zm3.962-.836c-.146.264-.36.474-.62.611l-.008.004a2.03 2.03 0 01-.976.219h-1.237v-3.489h1.237l.054-.001c.336 0 .654.08.934.222l-.012-.006c.266.134.485.346.629.609a2.028 2.028 0 01-.004 1.841l.006-.011zm-.795-.083c.191-.222.307-.514.307-.833s-.116-.61-.309-.834l.002.002a1.198 1.198 0 00-.872-.297h-.479v2.258h.482a1.197 1.197 0 00.87-.298l-.002.001zM9.689 3.2s8.961 3.397 8.771 8.312v8.314s-8.954-3.398-8.767-8.314L9.689 3.2zm16.753 14.679a12.107 12.107 0 015.639-2.102l.054-.005V13.17a11.769 11.769 0 00-5.665 4.662l-.028.048z"/><path d="M25.426 18.663c1.399-2.79 3.754-4.926 6.626-6.01l.084-.028V5.127S19.374 9.965 19.644 16.965v11.837s.569-.216 1.463-.622c0-.378 0-.76.04-1.144a12.31 12.31 0 014.262-8.358l.017-.014z"/><path d="M24.213 23.06c.067-.821.216-1.633.446-2.424a11.397 11.397 0 00-2.702 7.137v.013c1.039-.5 1.843-.933 2.629-1.393l-.174.094a11.935 11.935 0 01-.24-2.417c0-.356.015-.708.045-1.056l-.003.046zm.507.042a11.838 11.838 0 00.17 3.177l-.012-.074c3.486-2.095 7.404-5.331 7.254-9.242v-.341c-2.597.3-4.886 1.43-6.638 3.115l.004-.004a11.348 11.348 0 00-.774 3.326l-.002.042z"/></symbol><symbol id="icon-client-logo-6" viewBox="0 0 32 32"><path d="M16.063 15.409a1.157 1.157 0 01-.204-.741v.004-1.07c0-.329.068-.578.203-.748s.369-.255.7-.255c.311 0 .532.073.662.218a.944.944 0 01.196.641v.251h-.556v-.255l.001-.033c0-.076-.006-.151-.018-.225l.001.008a.253.253 0 00-.079-.148.294.294 0 00-.178-.058l-.025.001h.001l-.023-.001a.317.317 0 00-.189.062l.001-.001a.3.3 0 00-.092.162l-.001.002a1.381 1.381 0 00-.022.265v1.3a.71.71 0 00.073.369l-.002-.004a.267.267 0 00.109.088l.002.001a.28.28 0 00.11.023l.035-.002h-.002a.284.284 0 00.197-.059l-.001.001a.277.277 0 00.083-.156v-.002c.013-.086.019-.173.018-.26v-.264h.556v.241c.002.02.002.043.002.066 0 .228-.073.439-.197.611l.002-.003c-.127.159-.345.238-.665.238s-.562-.085-.699-.261zm2.315.011c-.14-.167-.211-.41-.211-.731v-1.127c0-.318.07-.558.211-.722s.375-.245.704-.244c.327 0 .56.082.701.244.14.164.212.404.212.722v1.127c0 .318-.072.562-.214.73s-.375.251-.699.251-.563-.085-.704-.25zm.963-.271a.687.687 0 00.067-.333v-1.379l.001-.037a.662.662 0 00-.069-.294l.002.004a.275.275 0 00-.111-.089l-.002-.001a.275.275 0 00-.148-.019h.002a.272.272 0 00-.149.02l.002-.001a.278.278 0 00-.113.089l-.001.001a.64.64 0 00-.067.327v1.386a.663.663 0 00.067.333.35.35 0 00.115.082l.002.001a.365.365 0 00.288-.001l-.003.001a.341.341 0 00.117-.083v-.007zm1.322-2.52h.599l.45 2.079.46-2.079h.582l.058 3h-.43l-.046-2.085-.444 2.085h-.345l-.46-2.092-.043 2.092h-.435l.054-3zm2.821 0h.932c.537 0 .805.284.805.852 0 .544-.282.815-.848.815h-.317v1.333h-.575l.004-3zm.796 1.282a.418.418 0 00.317-.094.524.524 0 00.083-.339l.001-.035c0-.084-.01-.166-.029-.245l.002.007a.22.22 0 00-.043-.083l.001.001a.246.246 0 00-.072-.06l-.001-.001a.554.554 0 00-.226-.049l-.032.001h-.222v.896h.223zm1.771-1.282h.618l.634 3h-.536l-.125-.692h-.551l-.129.692h-.545l.634-3zm.528 1.96l-.215-1.259-.215 1.259h.431zm1.236-1.96h.402l.771 1.711v-1.711h.477v3h-.383l-.776-1.787v1.787h-.494l.001-3zm2.77 1.856l-.641-1.852h.54l.391 1.19.367-1.19h.528l-.633 1.852v1.144h-.553v-1.144zM16.952 16.94v.157h-.47v1.219h-.197v-1.219h-.472v-.157h1.138zm1.472 1.376h-.156a.068.068 0 01-.039-.013.075.075 0 01-.025-.031v-.001l-.136-.327h-.651l-.136.327a.085.085 0 01-.021.037.065.065 0 01-.039.013h-.156l.575-1.376h.2l.582 1.37zm-.953-.511h.543l-.23-.56a1.085 1.085 0 01-.041-.122l-.002-.007-.022.073-.021.057-.228.559zm1.945.376a.573.573 0 00.2-.017.75.75 0 00.087-.027l-.005.002.077-.034v-.31h-.233a.04.04 0 01-.028-.011.03.03 0 01-.011-.024v-.108h.446v.527a.83.83 0 01-.237.11l-.006.002a.853.853 0 01-.139.028l-.005.001c-.05.006-.107.009-.166.009h-.01a.815.815 0 01-.289-.053l.006.002a.686.686 0 01-.23-.144l.001.001a.65.65 0 01-.147-.214l-.002-.004a.726.726 0 01-.053-.276v-.009-.008c0-.101.019-.196.054-.284l-.002.005a.63.63 0 01.378-.361.876.876 0 01.309-.051c.054 0 .107.004.16.012a.745.745 0 01.252.09.803.803 0 01.101.072l-.056.085a.058.058 0 01-.019.019.048.048 0 01-.026.007.073.073 0 01-.036-.011h.001a.618.618 0 01-.059-.034l.003.002a.463.463 0 00-.074-.036l-.004-.001a.618.618 0 00-.102-.03l-.004-.001a.747.747 0 00-.138-.012h-.008.001-.007a.612.612 0 00-.219.04l.004-.002a.456.456 0 00-.276.28.696.696 0 00.001.463l-.002-.005a.49.49 0 00.511.309zm1.834-.022h.628v.157h-.821V16.94h.197l-.005 1.219zm1.282.157h-.197v-1.375h.197v1.376zm.732-1.369a.09.09 0 01.029.025l.841 1.037-.001-.025.001-.026v.001-1.025h.171v1.381h-.099l-.007.001a.095.095 0 01-.037-.008h.001a.13.13 0 01-.031-.026l-.84-1.036v1.069h-.165V16.94h.102c.011 0 .022.002.033.007zm2.491-.007v.152h-.697v.454h.565v.146h-.565v.47h.697v.152h-.9v-1.372h.9zM5.135 8.443l8.738 2.348v8.23l-8.737-2.347V8.442zm-.56-.701v9.332l9.857 2.65v-9.332L4.575 7.741z"/><path d="M9.858 24.057L0 21.405v-9.332l9.858 2.651v9.333z"/><path d="M4.739 8.338l8.623 2.319-3.667 3.473-8.625-2.32 3.668-3.472zm-.164-.596L0 12.073l9.858 2.651 4.574-4.331-9.857-2.651zm5.838 15.79l4.02-3.806-4.02-1.082v4.888z"/></symbol><symbol id="icon-clock" viewBox="0 0 32 32"><path fill="var(--color1, #212121)" d="M31.296 15.301C31.295 6.849 24.441-.002 15.988 0S.685 6.855.687 15.308c.002 6.788 4.422 12.543 10.54 14.545l.108.031a.667.667 0 00.529-.065.636.636 0 00.283-.357l3.865-12.25a1.913 1.913 0 10-.852-3.63l.011-.005-5.106-5.107a.638.638 0 00-.902.902l5.103 5.109a1.873 1.873 0 00.533 2.306l.004.003-3.683 11.673C3.842 25.782.116 17.709 2.796 10.431S13.55-.573 20.828 2.108c7.278 2.681 11.004 10.754 8.323 18.032-1.345 3.581-4.003 6.406-7.374 7.938l-.088.036-.398-1.874a.639.639 0 00-1.049-.343l.001-.001-3.837 3.426a.637.637 0 00.227 1.083l.005.001 4.899 1.563a.637.637 0 00.818-.744l.001.004-.391-1.839c5.528-2.374 9.329-7.772 9.329-14.057v-.034.002zm-15.304-.637a.638.638 0 010 1.276.638.638 0 010-1.276zm2.1 14.864l2.184-1.948.603 2.84-2.787-.892z"/><path fill="var(--color2, #2196f3)" d="M15.354 3.185V4.46a.638.638 0 001.276 0V3.185a.638.638 0 10-1.276 0zM3.876 14.664a.638.638 0 000 1.276h1.275a.638.638 0 000-1.276H3.876zm24.232 1.275a.638.638 0 000-1.276h-1.275a.638.638 0 000 1.276h1.275z"/></symbol><symbol id="icon-diagram" viewBox="0 0 32 32"><path fill="var(--color2, #2196f3)" d="M14.926 14.965h1.066v4.798h-1.066v-4.798zm4.264 2.132h1.066v2.665H19.19v-2.665zm-8.529 1.599h1.066v1.066h-1.066v-1.066zm-3.198-.533h1.066v1.599H7.463v-1.599z"/><path fill="var(--color1, #212121)" d="M1.599 28.291h25.586a1.6 1.6 0 001.599-1.599V24.56a1.6 1.6 0 00-1.599-1.599h-.533V9.667l3.028-2.868a1.608 1.608 0 10-.742-.752l-.004-.01-2.281 2.162v-1.23a1.6 1.6 0 00-1.599-1.599H3.731a1.6 1.6 0 00-1.599 1.599v15.992h-.533A1.6 1.6 0 000 24.56v2.132a1.6 1.6 0 001.599 1.599zM30.384 4.837a.533.533 0 010 1.066.533.533 0 010-1.066zM3.198 6.969c0-.294.239-.533.533-.533h21.323c.294 0 .533.239.533.533v2.239l-1.066 1.013V8.036a.534.534 0 00-.534-.534H4.798a.534.534 0 00-.534.533v13.327c0 .294.239.533.534.533h19.189a.534.534 0 00.534-.533v-9.675l1.066-1.01V22.96H3.198V6.969zm4.798 6.93h-.005a1.6 1.6 0 101.112 2.748l1.853.93a.535.535 0 00.636-.122l3.939-4.432 3.872 2.902a.534.534 0 00.686-.039l3.365-3.188v8.131H5.331V8.568h18.123v2.661l-3.771 3.572-3.904-2.927a.534.534 0 00-.718.071v.001l-3.993 4.493-1.493-.746c.011-.064.017-.128.02-.193a1.6 1.6 0 00-1.599-1.599zm.533 1.599a.533.533 0 01-1.066 0 .533.533 0 011.066 0zm3.198 8.528h5.33v.533a.533.533 0 01-.533.533h-4.265a.533.533 0 01-.533-.533v-.533zm-10.66.534c0-.294.238-.533.533-.533h9.062v.533a1.6 1.6 0 001.599 1.599h4.265a1.6 1.6 0 001.599-1.599v-.533h9.062c.294 0 .533.239.533.533v2.132a.533.533 0 01-.533.533H1.601a.533.533 0 01-.533-.533V24.56z"/></symbol><symbol id="icon-facebook" viewBox="0 0 32 32"><path d="M21.328 5.312h2.923V.224A36.483 36.483 0 0020.143 0h-.156.008c-4.213 0-7.099 2.65-7.099 7.52V12H8.25v5.688h4.646V32h5.699V17.69h4.459l.707-5.688h-5.168V8.08c0-1.643.443-2.768 2.734-2.768z"/></symbol><symbol id="icon-instagram" viewBox="0 0 32 32"><path d="M31.968 9.408c-.074-1.701-.349-2.869-.742-3.882a7.839 7.839 0 00-1.85-2.837l-.001-.001A7.906 7.906 0 0026.597.861l-.054-.018C25.524.449 24.362.176 22.661.101 20.949.019 20.405 0 16.059 0c-4.344 0-4.888.019-6.595.094-1.699.074-2.869.349-3.88.742a7.847 7.847 0 00-2.839 1.85l-.001.001A7.9 7.9 0 00.919 5.465l-.018.054C.506 6.538.232 7.7.157 9.401c-.082 1.712-.101 2.256-.101 6.602 0 4.344.019 4.888.094 6.595.075 1.701.35 2.869.744 3.882a7.915 7.915 0 001.849 2.837l.001.001c.8.813 1.77 1.443 2.832 1.843 1.019.395 2.182.67 3.882.744 1.707.075 2.251.094 6.595.094 4.346 0 4.89-.019 6.595-.094 1.701-.074 2.869-.349 3.882-.742a8.237 8.237 0 004.664-4.628l.019-.055c.394-1.019.669-2.182.744-3.882.075-1.707.093-2.251.093-6.595s-.006-4.888-.08-6.595zm-2.88 13.066c-.07 1.563-.333 2.406-.55 2.97a5.341 5.341 0 01-3.004 3.024l-.036.012c-.56.219-1.411.482-2.968.55-1.688.075-2.194.094-6.464.094-4.269 0-4.782-.019-6.464-.094-1.563-.069-2.406-.331-2.97-.55a4.953 4.953 0 01-1.836-1.192l-.001-.001a4.978 4.978 0 01-1.184-1.803L3.6 25.45c-.218-.563-.48-1.413-.549-2.97-.075-1.688-.094-2.195-.094-6.464s.019-4.784.094-6.464c.069-1.563.331-2.406.549-2.97a4.897 4.897 0 011.198-1.837l.002-.002a4.972 4.972 0 011.806-1.182l.034-.011c.56-.219 1.411-.48 2.968-.55 1.688-.074 2.195-.093 6.464-.093 4.275 0 4.782.019 6.464.093 1.563.069 2.406.331 2.97.55a4.91 4.91 0 011.837 1.194c.531.52.938 1.144 1.195 1.84.218.56.48 1.411.549 2.968.075 1.688.094 2.194.094 6.464 0 4.269-.019 4.768-.094 6.458z"/><path d="M16.059 7.782a8.223 8.223 0 00-8.219 8.221v.002a8.222 8.222 0 1016.444 0 8.222 8.222 0 00-8.222-8.222h-.002zm0 13.552a5.333 5.333 0 01.001-10.666h.001a5.334 5.334 0 110 10.668zM26.525 7.458a1.92 1.92 0 01-3.84 0 1.92 1.92 0 013.84 0z"/></symbol><symbol id="icon-linkedin" viewBox="0 0 32 32"><path d="M31.992 32H32V20.262c0-5.741-1.237-10.163-7.947-10.163-3.227 0-5.392 1.77-6.277 3.45h-.093v-2.914h-6.365v21.363h6.627V21.42c0-2.786.528-5.48 3.978-5.48 3.398 0 3.448 3.179 3.448 5.658V32h6.621zM.528 10.635h6.635V32H.528V10.635zM3.843 0A3.843 3.843 0 000 3.843c0 2.12 1.722 3.878 3.843 3.878 2.12 0 3.842-1.757 3.842-3.878S5.965.002 3.844 0z"/></symbol><symbol id="icon-mail" viewBox="0 0 32 32"><path d="M28.775 4.093H2.976A2.981 2.981 0 00-.001 7.07v17.86a2.981 2.981 0 002.977 2.977h25.799a2.981 2.981 0 002.977-2.977V7.07a2.981 2.981 0 00-2.977-2.977zm0 1.985c.135 0 .264.028.381.077l-13.28 11.51-13.28-11.51a.974.974 0 01.381-.077h25.799zm0 19.844H2.976a.992.992 0 01-.992-.992V8.251l13.241 11.476c.173.151.401.243.651.243s.478-.092.652-.244l-.002.001L29.767 8.251V24.93a.992.992 0 01-.992.992z"/></symbol><symbol id="icon-phone" viewBox="0 0 32 32"><path d="M23 0H9C7.346 0 6 1.346 6 3v26c0 1.654 1.346 3 3 3h14c1.654 0 3-1.346 3-3V3c0-1.654-1.346-3-3-3zM9 2h14a1 1 0 011 1v21H8V3a1 1 0 011-1zm14 28H9a1 1 0 01-1-1v-3h16v3a1 1 0 01-1 1z"/><path d="M10.708 27.478a.889.889 0 01.001 1.319l-.001.001a1.048 1.048 0 01-1.417 0l.001.001a.889.889 0 01-.001-1.319l.001-.001a1.048 1.048 0 011.417 0l-.001-.001z"/></symbol><symbol id="icon-twitter" viewBox="0 0 32 32"><path d="M32 6.078c-1.1.493-2.376.857-3.713 1.028l-.068.007a6.556 6.556 0 002.873-3.579l.013-.046a12.88 12.88 0 01-4.076 1.573l-.084.014A6.558 6.558 0 0015.6 9.557v.004c0 .52.043 1.021.152 1.496-5.454-.266-10.28-2.88-13.522-6.861a6.524 6.524 0 00-.902 3.313v.001a6.57 6.57 0 002.914 5.451 6.453 6.453 0 01-2.994-.823l.033.017v.072a6.592 6.592 0 005.213 6.44l.043.008a6.403 6.403 0 01-1.662.215h-.061.003c-.419 0-.843-.024-1.242-.112.85 2.598 3.261 4.509 6.13 4.57a13.093 13.093 0 01-8.122 2.8H1.57h.001-.062c-.531 0-1.055-.034-1.569-.099l.061.006c2.826 1.846 6.287 2.944 10.004 2.944h.063-.003c12.072 0 18.672-10 18.672-18.669 0-.288-.01-.57-.024-.848a13.203 13.203 0 003.258-3.355l.03-.047z"/></symbol></defs></svg>