<svg aria-hidden="true" style="position:absolute;width:0;height:0" xmlns="http://www.w3.org/2000/svg" overflow="hidden"><defs><symbol id="icon-client-logo-1" viewBox="0 0 29 32"><path fill="var(--color1, #afb1b8)" d="M3.84 0l4.677 4.428h13.046v12.351l4.677 4.428V.001H3.84z"/><path fill="var(--color1, #afb1b8)" d="M0 4.241v20.6h21.76v-8.188L8.655 4.246 0 4.241zm17.615 17.587H3.443V7.973h1.002V20.89h13.17v.938zM6.266 28.662l.524-1.078h.438l-.764 1.437v.838h-.397v-.838l-.764-1.437h.439l.524 1.078zm2.247.667h-.881l-.184.53h-.411l.859-2.275h.355l.861 2.275h-.413l-.186-.53zm-.77-.319h.659l-.33-.944-.33.944zm2.328.234c0-.105.029-.202.086-.289.058-.089.17-.193.339-.314a1.498 1.498 0 01-.182-.276l-.004-.008a.568.568 0 01-.052-.226c0-.179.054-.319.163-.422s.254-.156.437-.156a.57.57 0 01.406.147c.106.097.16.218.16.361v.003a.497.497 0 01-.074.262l.001-.002a.858.858 0 01-.233.236l-.003.002-.155.113.44.518a.914.914 0 00.095-.417h.33c0 .28-.065.509-.196.689l.334.396h-.44l-.128-.152a.93.93 0 01-.558.183h-.025.001c-.225 0-.405-.06-.54-.179a.597.597 0 01-.202-.447v-.021.001zm.753.343a.58.58 0 00.359-.128l-.497-.586-.049.035c-.125.095-.188.203-.188.325 0 .105.034.191.102.256a.375.375 0 00.254.099h.019-.001zm-.21-1.466c0 .088.054.197.161.33l.173-.118.049-.039a.283.283 0 00.097-.212v-.009-.002a.2.2 0 00-.067-.149.233.233 0 00-.162-.064h-.019a.224.224 0 00-.167.075.276.276 0 00-.066.179v.01zm4.134.997c-.023.243-.113.432-.269.568s-.364.204-.623.204a.902.902 0 01-.48-.128.86.86 0 01-.317-.362l-.002-.005a1.302 1.302 0 01-.117-.544v-.22c0-.214.038-.403.114-.567a.871.871 0 01.326-.378.913.913 0 01.494-.133c.251 0 .453.068.606.205s.243.329.268.578h-.394c-.019-.163-.067-.281-.144-.353-.076-.073-.188-.109-.336-.109a.464.464 0 00-.397.189c-.092.125-.138.309-.141.552v.202c0 .246.044.433.132.563s.218.194.387.194c.155 0 .272-.035.35-.105s.128-.186.148-.348h.394zm2.17-.338c0 .223-.038.419-.115.588a.88.88 0 01-.332.388.905.905 0 01-.494.134.92.92 0 01-.493-.134.897.897 0 01-.332-.38l-.002-.006a1.335 1.335 0 01-.119-.555v-.023.001-.128c0-.222.038-.418.117-.588s.19-.3.333-.389c.144-.091.308-.136.493-.136s.35.045.493.134c.143.089.255.217.333.384s.118.362.118.584v.126zm-.396-.118c0-.252-.048-.445-.143-.58a.465.465 0 00-.384-.202l-.022.001h.001-.016a.468.468 0 00-.384.2l-.001.002c-.096.133-.145.323-.147.567v.131c0 .25.049.444.146.58s.233.205.406.205c.175 0 .31-.067.403-.2.095-.133.142-.328.142-.584v-.118z"/></symbol><symbol id="icon-client-logo-2" viewBox="0 0 25 32"><path fill="var(--color1, #afb1b8)" d="M10.447 1.806h.084c.156 0 .324.015.49.03a13.96 13.96 0 012.18.329V.403a12.432 12.432 0 00-2.207-.357l-.042-.002c-.254-.02-.571-.035-.889-.043H9.779c-1.523.006-3.04.201-4.514.582a18.266 18.266 0 00-4.79 1.948v17.475a18.922 18.922 0 014.431-1.75l.135-.029c1.123-.3 2.433-.51 3.78-.586l.052-.002h.052c.217-.011.433-.017.655-.018V15.83c-1.78.024-3.493.264-5.129.695l.147-.033c-.603.157-1.185.326-1.731.513l-.623.212V3.591l.266-.128C4.4 2.545 6.606 1.95 8.935 1.814l.047-.002.028-.001.029.001h-.001c.248-.012.497-.018.742-.018h.28c.129.003.258.006.388.014z"/><path fill="var(--color1, #afb1b8)" d="M14.837 3.651h-.016c-.915 0-1.811-.077-2.684-.225l.094.013c-.277-.047-.55-.103-.814-.164V20.55c1.12.277 2.271.412 3.425.404a18.446 18.446 0 004.644-.61l-.128.029a18.299 18.299 0 004.877-1.995l-.085.047V1.262a19.021 19.021 0 01-4.429 1.751l-.136.03a19.345 19.345 0 01-4.746.609zm6.908.299l.623-.209v13.63l-.266.129c-.903.442-1.962.834-3.065 1.118l-.119.026a16.52 16.52 0 01-4.074.527c-.411 0-.818-.017-1.214-.052l-.426-.038V5.064l.497.033c.361.023.735.034 1.141.034a21.134 21.134 0 005.32-.696l-.147.033a28.128 28.128 0 001.731-.518zM1.684 25.977a.916.916 0 00-.661-.281l-.034.001h.002-.014c-.139 0-.272.028-.393.078l.007-.003a.904.904 0 00-.51.512l-.002.006a1.001 1.001 0 00-.071.386v2.335c-.006.164.026.328.092.479.055.12.135.226.234.313a.824.824 0 00.32.166c.114.031.231.048.349.048a.985.985 0 00.968-.982v-.261H1.36v.222c0 .07-.013.136-.037.198l.001-.004a.38.38 0 01-.089.132.426.426 0 01-.255.089.308.308 0 01-.286-.125l-.001-.001a.548.548 0 01-.082-.289l.001-.024v.001-2.177a.74.74 0 01.075-.349.31.31 0 01.262-.143l.038.002H.986h.012c.107 0 .201.052.26.131l.001.001a.493.493 0 01.101.3v.014-.001.202h.604v-.238-.011c0-.143-.027-.28-.077-.405l.003.007a.955.955 0 00-.205-.329zm3.626-.026a1.051 1.051 0 00-1.058-.191.965.965 0 00-.557.511l-.002.006a1.08 1.08 0 00-.089.452v2.239c-.004.158.026.314.089.458a.89.89 0 00.237.313.964.964 0 00.322.197 1.049 1.049 0 001.059-.198l-.001.001a.948.948 0 00.23-.313c.063-.144.093-.301.089-.458v-2.239-.021c0-.156-.033-.304-.092-.438l.003.007a1.016 1.016 0 00-.23-.327zm-.285 3.018l.002.035a.398.398 0 01-.123.289.446.446 0 01-.575 0l.001.001a.398.398 0 01-.121-.326v.002-2.239l-.001-.034a.4.4 0 01.123-.289.446.446 0 01.575 0l-.001-.001a.398.398 0 01.121.326v-.002 2.24zm5.047 1v-4.24h-.586l-.771 2.244h-.01l-.777-2.244h-.58v4.239h.606V27.39h.011l.593 1.823h.302l.598-1.823h.01v2.578h.606zm3.441-3.942a.834.834 0 00-.342-.232 1.31 1.31 0 00-.416-.066h-.024.001-.9v4.24h.604v-1.656h.311c.189.009.376-.031.545-.116a.88.88 0 00.329-.32l.002-.004a1 1 0 00.138-.369c.021-.133.033-.287.033-.444v-.04.002a2.426 2.426 0 00-.059-.606.906.906 0 00-.223-.39zm-.312 1.292a.538.538 0 01-.057.224l.001-.003a.342.342 0 01-.154.147l-.002.001a.617.617 0 01-.254.054l-.033-.001h.002-.276V26.3h.311l.029-.001c.088 0 .172.02.247.055l-.004-.002a.35.35 0 01.141.154l.001.002a.62.62 0 01.053.236v.282c0 .098.006.201 0 .291H13.2zm3.173-1.59h-.495l-.934 4.24h.604l.177-.911h.823l.178.911h.604l-.957-4.24zm-.557 2.752l.297-1.537h.011l.295 1.537h-.604zm4.46-.198h-.011l-.913-2.554h-.58v4.24h.604v-2.55h.012l.923 2.549h.568v-4.239h-.604v2.554zm3.691-2.554l-.486 1.686h-.012l-.486-1.686h-.639l.83 2.448v1.791h.604v-1.791l.83-2.447h-.64zM0 31.166h.291v.817h.198v-.817h.289v-.167H0v.168zm2.447-.168l-.382.985h.21l.081-.224h.392l.084.224h.215l-.391-.985h-.21zm-.03.595l.134-.365.134.365h-.268zm2.449.027h.228v.127a.378.378 0 01-.234.083h-.014a.25.25 0 01-.195-.094.406.406 0 01-.073-.234l.001-.023v.001c0-.219.095-.329.283-.329l.021-.001c.097 0 .178.067.201.157v.001l.194-.038c-.042-.192-.18-.289-.417-.289h-.013a.492.492 0 00-.331.127.48.48 0 00-.141.38v-.002.023c0 .132.048.254.127.347l-.001-.001c.087.09.209.146.343.146L4.877 32h-.001.016c.155 0 .296-.06.402-.157v-.388h-.426v.166zm2.471-.622h-.199v.985h.689v-.167h-.49v-.817zm2.089 0h-.199v.985h.199v-.985zm2.043.657l-.404-.657h-.193v.985h.185v-.643l.396.643h.198v-.985h-.182v.658zm1.846-.106h.49v-.167h-.49v-.215h.527v-.168h-.727v.985h.747v-.167h-.548v-.266zm4.477-.163h-.388v-.388h-.198v.984h.198v-.431h.388v.431h.198v-.985h-.198v.388zm1.857.163h.492v-.167h-.492v-.215h.529v-.168h-.726v.985h.746v-.167h-.548v-.266zm2.519.001c.172-.027.258-.118.258-.274a.23.23 0 00-.096-.219h-.001a.555.555 0 00-.25-.059l-.04.001h.002-.417v.984h.198v-.412h.055c.039 0 .076.008.109.023l-.002-.001a.201.201 0 01.07.072l.215.313h.236l-.12-.192a.704.704 0 00-.215-.235l-.002-.002zm-.199-.137h-.146v-.247h.156a.515.515 0 01.205.024l-.004-.001a.13.13 0 01-.009.2.537.537 0 01-.164.025l-.039-.001h.002zm2.099.136h.49v-.167h-.49v-.215h.529v-.168h-.728v.985h.747v-.167h-.548v-.266z"/></symbol><symbol id="icon-client-logo-3" viewBox="0 0 31 32"><path fill="var(--color1, #afb1b8)" d="M4.722 31.103c.023.001.044.01.06.025l.153.161c-.119.13-.266.234-.431.304a1.533 1.533 0 01-.61.109h-.031a1.5 1.5 0 01-.554-.106l.01.004a1.25 1.25 0 01-.709-.725l-.003-.009a1.591 1.591 0 01-.097-.55v-.022-.022c0-.198.038-.387.108-.56l-.004.01a1.318 1.318 0 01.757-.734c.188-.07.389-.104.591-.102a1.47 1.47 0 01.55.093c.151.063.29.149.412.257l-.129.171a.134.134 0 01-.032.031.077.077 0 01-.045.014h-.006a.107.107 0 01-.056-.019l-.068-.045-.096-.059a1.024 1.024 0 00-.296-.101l-.006-.001a1.233 1.233 0 00-.209-.018h-.02.001-.016c-.147 0-.288.028-.417.079l.008-.003a.964.964 0 00-.333.216 1.002 1.002 0 00-.216.342 1.248 1.248 0 00-.079.452c-.002.156.025.313.079.46.046.126.119.242.212.341a.863.863 0 00.318.212c.125.049.259.074.394.073.078.001.156-.004.234-.015a.879.879 0 00.505-.235.115.115 0 01.072-.03zm4.422-.807c.002.194-.033.387-.103.568a1.246 1.246 0 01-.288.44 1.314 1.314 0 01-.444.286l-.009.003a1.695 1.695 0 01-1.176-.004l.012.004a1.331 1.331 0 01-.45-.29 1.3 1.3 0 01-.288-.436l-.003-.009a1.614 1.614 0 01.004-1.147l-.004.011a1.34 1.34 0 01.29-.447 1.32 1.32 0 01.441-.276l.009-.003A1.674 1.674 0 018.311 29l-.012-.004a1.29 1.29 0 01.741.729c.071.182.106.376.104.571zm-.402 0v-.024c0-.155-.027-.303-.076-.441l.003.009a.907.907 0 00-.522-.554l-.006-.002a1.219 1.219 0 00-.855.003l.009-.003a.903.903 0 00-.528.55l-.002.006a1.465 1.465 0 000 .912.899.899 0 00.524.552l.006.002c.273.097.573.097.846 0a.903.903 0 00.324-.214.972.972 0 00.205-.341 1.29 1.29 0 00.073-.456zm3.418.478l.041.102c.015-.036.028-.069.044-.102.017-.04.034-.073.052-.105l-.002.005.978-1.694c.019-.03.037-.048.056-.053a.234.234 0 01.066-.009h.015-.001.289v2.755h-.342v-2.11l-.001-.048.001-.05v.002l-.984 1.718a.149.149 0 01-.057.062h-.001a.16.16 0 01-.082.022h-.057a.151.151 0 01-.141-.084v-.001l-1.013-1.73v2.212h-.331v-2.75h.303a.22.22 0 01.068.01h-.002a.107.107 0 01.053.052v.001l.999 1.696c.018.028.035.06.048.094l.001.004zm3.681-.136v1.031h-.383v-2.75h.887c.158 0 .311.022.455.063l-.012-.003a.927.927 0 01.337.171c.085.074.15.167.191.27a.925.925 0 01.066.352.84.84 0 01-.071.352.772.772 0 01-.205.274l-.001.001a.953.953 0 01-.333.181l-.007.002a1.498 1.498 0 01-.461.064l-.463-.007zm0-.296h.464c.1.002.201-.013.296-.042a.627.627 0 00.215-.12l-.001.001c.056-.049.1-.11.129-.178l.001-.003a.565.565 0 00.046-.225v-.008l.001-.028a.506.506 0 00-.041-.199l.001.003a.544.544 0 00-.133-.188.763.763 0 00-.517-.148h.003-.464v1.134zm5.146 1.331h-.308a.134.134 0 01-.079-.026.168.168 0 01-.049-.063v-.001l-.26-.665h-1.307l-.27.665a.152.152 0 01-.047.061.135.135 0 01-.082.028h-.307l1.148-2.756h.398l1.164 2.756zm-1.895-1.023h1.079l-.455-1.122a1.845 1.845 0 01-.083-.245l-.003-.013-.044.144a1.282 1.282 0 01-.045.126l.003-.009-.452 1.119zm3.548-1.72c.023.013.043.03.058.05l1.674 2.076v-2.139h.342v2.756h-.196a.164.164 0 01-.074-.017h.001a.233.233 0 01-.061-.051L22.71 29.53a.753.753 0 010 .095v2.049h-.342v-2.756h.203c.024 0 .047.004.068.013zm4.897 1.647v1.094h-.383v-1.094l-1.058-1.66H26.446c.028 0 .054.009.075.024a.251.251 0 01.052.061l.001.001.662 1.07a1.363 1.363 0 01.116.244l.05-.118a.93.93 0 01.068-.13l-.002.004.653-1.078a.284.284 0 01.05-.059.117.117 0 01.076-.027h.352l-1.06 1.667zm-15.566-6.284c.167.02.335.037.506.051 2.582-1.101 4.767-2.902 6.281-5.18s2.29-4.93 2.231-7.625l-2.846-2.712c.189.894.297 1.921.297 2.974 0 2.015-.396 3.937-1.115 5.694l.036-.1c-1.09 2.731-2.957 5.12-5.39 6.899z"/><path fill="var(--color1, #afb1b8)" d="M10.954 24.167l.077.015c2.6-1.773 4.583-4.247 5.692-7.104.627-1.564.991-3.378.991-5.276 0-1.296-.17-2.553-.488-3.748l.023.101-4.054-3.862c1.269 2.397 2.015 5.239 2.015 8.255 0 .701-.04 1.393-.119 2.074l.008-.083c-.397 3.519-1.834 6.857-4.144 9.628zm13.75-9.443c-.688 2.962-2.361 5.632-4.77 7.616a14.98 14.98 0 01-2.191 1.51l-.075.039a13.579 13.579 0 005.285-2.851l-.016.013a12.774 12.774 0 003.381-4.679l.031-.084-1.645-1.565z"/><path fill="var(--color1, #afb1b8)" d="M24.06 14.288l-2.341-2.23a13.684 13.684 0 01-2.23 7.249l.032-.053c-1.394 2.169-3.373 3.943-5.729 5.137h.012c.525 0 1.049-.03 1.572-.089a14.47 14.47 0 005.649-3.95l.014-.017a13.397 13.397 0 003.005-5.958l.016-.089zM11.294 2.664L8.501 0c-2.497.919-4.644 2.535-6.16 4.636S.008 9.225.001 11.775c.01 2.818 1.005 5.552 2.829 7.77s4.372 3.793 7.242 4.476c2.562-2.973 4.061-6.647 4.281-10.488s-.851-7.648-3.059-10.87zm19.218 11.214c-.01-3.343-1.409-6.547-3.89-8.91s-5.843-3.696-9.352-3.706a13.67 13.67 0 00-4.741.841l17.099 16.29c.559-1.335.884-2.886.884-4.513v-.001z"/></symbol><symbol id="icon-client-logo-4" viewBox="0 0 60 32"><path fill="none" stroke="var(--color2, #000)" stroke-width=".744" d="M9.228 9.92h.002c1.487 0 2.676 1.173 2.676 2.599v.002c0 1.426-1.189 2.599-2.676 2.599h-.002c-1.487 0-2.676-1.173-2.676-2.599v-.002c0-1.426 1.189-2.598 2.676-2.598zm5.557 10.774a20.93 20.93 0 01-.33.048V8.599c.005-2.178.895-4.267 2.478-5.81S20.665.376 22.909.372c2.242.005 4.39.876 5.973 2.419s2.471 3.632 2.477 5.808c0 0 0 0 0 0v.002s0 0 0 0c-.002 5.078-4.205 8.13-8.594 9.931-2.178.893-4.36 1.46-6 1.803-.424.1-1.095.225-1.772.332l-.206.027zm-9.018 6.499a1.997 1.997 0 01-.732-.295l.008.005a1.964 1.964 0 01-.727-.857l-.005-.013a1.865 1.865 0 01-.111-1.137l-.002.012c.083-.393.276-.732.544-.994h0a1.991 1.991 0 011.395-.565c.272 0 .532.054.769.152l-.013-.005c.361.145.67.392.889.711s.336.695.336 1.081m-2.351 1.905v.04h.373c.272 0 .532-.054.768-.151l-.013.005c.24-.097.458-.24.643-.42s.331-.394.431-.631.15-.49.15-.746m-2.352 1.903c.122.022.247.034.372.034v-.366l-.372.332zm2.351-1.904h-.372l.372-.002v.002zm2.097 3.961a5.843 5.843 0 01-4.076 1.652h0a5.845 5.845 0 01-4.078-1.654l.002.001a5.539 5.539 0 01-1.69-3.96v-.001c0-3.457 2.861-5.554 5.908-6.804 1.507-.618 3.018-1.011 4.156-1.249a18.84 18.84 0 011.329-.246l.141-.018v8.319a5.542 5.542 0 01-1.689 3.958l-.001.001z"/><path d="M18.672 25.884v.744h.744v-.744h-.744zm-1.257 0v-.744h-.744v.744h.744zm0 1.297v.744h.744v-.744h-.744zm-.654 0h-.744v.744h.744v-.744zm0-3.174v-.744h-.744v.744h.744zm2.067 0h.744v-.744h-.744v.744zm0 .53v.744h.744v-.744h-.744zm-1.413 0v-.744h-.744v.744h.744zm0 .819h-.744v.744h.744v-.744zm1.256 0h.744v-.744h-.744v.744zm0-.216h-1.255v1.488h1.255V25.14zm-2 .744v1.296h1.488v-1.297h-1.488zm.744.552h-.655v1.488h.655v-1.488zm.09.745v-3.173h-1.488v3.174h1.488zm-.744-2.43h2.067v-1.488h-2.067v1.488zm1.323-.744v.53h1.488v-.53h-1.488zm.744-.215h-1.412v1.488h1.412v-1.488zm-2.157.745v.819h1.488v-.819h-1.488zm.744 1.563h1.255v-1.488h-1.255V26.1zm.512-.744v.528h1.488v-.528h-1.488zm3.247 1.677l-.391-.633-.002.002.394.631zm-1.891-.539l-.67.322v.002l.67-.324zm-.172-.811h-.744v.004l.744-.004zm.169-.981l-.673-.32v.002l.673.318zm.477-.547l.391.633.002-.001-.392-.633zm1.411 0l-.394.631.005.004.389-.635zm.477.547l-.674.316.002.005.671-.322zm-1.69.059l.61.426.002-.002-.611-.424zm-.181.75l-.744-.003v.003h.744zm1.199.92l.613.421.002-.003-.615-.418zm.179-.754l.744.003v-.003h-.744zm-.082-.011c0 .226-.039.387-.095.506l1.347.633c.165-.353.237-.738.237-1.139h-1.488zm-.094.506a.503.503 0 01-.192.227l-.002.001.784 1.265c.33-.208.59-.501.752-.849l.005-.012-1.347-.633zm-.196.229a.558.558 0 01-.289.079l-.025-.001h.001v1.488c.391 0 .766-.096 1.101-.305l-.789-1.262zm-.313.079h-.021a.576.576 0 01-.297-.082l.003.001-.778 1.27c.334.204.706.299 1.094.299V26.48zm-.315-.08a.521.521 0 01-.197-.227l-.001-.003-1.34.65c.171.352.424.644.761.851l.778-1.27zm-.198-.228a1.117 1.117 0 01-.099-.462v-.032.002l-1.488.007c.002.397.077.779.246 1.13l1.341-.645zm-.098-.489v-.158h-1.488v.156h1.488zm0-.157c0-.223.039-.386.097-.506l-1.346-.636a2.609 2.609 0 00-.239 1.1v.044-.002h1.488zm.095-.504a.526.526 0 01.194-.232l.002-.001-.781-1.267a2.007 2.007 0 00-.754.849l-.005.012 1.344.639zm.198-.235a.565.565 0 01.293-.081h.022-.001v-1.488c-.39 0-.764.097-1.098.304l.784 1.265zm.314-.08a.56.56 0 01.31.079l.788-1.262a2.052 2.052 0 00-1.098-.305v1.488zm.315.082a.503.503 0 01.192.226l.001.003 1.347-.633a2.006 2.006 0 00-.754-.861l-.008-.005-.778 1.27zm.195.234c.057.12.097.281.097.501h1.488c0-.402-.073-.789-.243-1.143l-1.343.642zm.097.501v.141h1.488v-.141H21.07zm.826-.002c0-.402-.068-.831-.31-1.181l-1.226.845c-.004-.006.01.01.022.067.014.058.025.145.025.269h1.488zm-.31-1.181a1.326 1.326 0 00-1.097-.581h-.027.001v1.488c.012 0-.009.002-.044-.016a.204.204 0 01-.059-.046l1.226-.845zm-1.123-.581h-.025c-.452 0-.852.227-1.091.573l-.003.004 1.222.849a.2.2 0 01-.058.046h-.001c-.034.018-.056.016-.045.016V23.76zm-1.117.574c-.244.348-.314.774-.316 1.174l1.488.007c0-.123.012-.208.025-.264s.025-.069.021-.063l-1.219-.853zm-.316 1.177v.155h1.488v-.155H19.03zm0 .155c0 .402.071.819.304 1.168l1.238-.826c-.006-.009-.054-.095-.054-.342H19.03zm.304 1.167c.263.396.674.599 1.133.599v-1.488c-.011 0 .011-.002.048.017.016.009.03.018.042.03l.015.016-1.238.826zm1.133.599a1.32 1.32 0 001.119-.58l-1.227-.842a.219.219 0 01.06-.049l.001-.001c.036-.019.058-.017.047-.017v1.488zm1.121-.583c.237-.348.307-.77.308-1.17l-1.488-.006c0 .123-.012.21-.025.268-.014.057-.027.074-.025.071l1.23.837zm.308-1.172v-.155h-1.488v.155h1.488zm1.91.387l-.453.591.007.004.447-.595zm-.471-.208l-.231.707.004.001.228-.708zm-.539-.219zm-.397-1.245l-.604-.435-.002.001.605.434zm.417-.316l-.287-.687-.002.001.287.686zm1.216.011l-.315.674.004.002.31-.676zm.412.347l-.624.406.002.004.621-.41zm.149.51v.744h.744v-.744h-.744zm-.655 0h-.744v.744h.744v-.744zm-.137-.337l-.495.556.005.004.49-.56zm-.759-.021l.448.595.006-.005-.454-.589zm.023.526l-.417.617.004.002.412-.619zm.459.196l-.216.712h.002l.214-.712zm.757 1.683l.447.596.002-.002-.449-.594zm-1.507.1l-.305.679.004.002.301-.681zm-.46-.368l-.618.416.002.004.615-.42zm-.157-.54v-.744h-.744v.744h.744zm.656 0h.744v-.744h-.744v.744zm.992.431l.434.605.007-.005-.44-.6zm.875-.266c0-.322-.127-.653-.428-.878l-.893 1.191a.444.444 0 01-.131-.161l-.001-.003a.375.375 0 01-.036-.148h1.488zm-.422-.874c-.196-.151-.461-.252-.697-.327l-.454 1.417c.097.031.166.058.212.078.052.023.054.03.033.013l.906-1.181zm-.692-.326c-.162-.05-.3-.106-.432-.173l.015.007-.707 1.31c.188.101.413.19.661.271l.462-1.415zm-.417-.166a.417.417 0 01-.148-.113L23 24.868v-.004l-.002-.015H21.51c0 .674.4 1.154.932 1.442l.707-1.31zM23 24.851v-.016l.002-.003v-.001l.002-.004-1.209-.868a1.509 1.509 0 00-.283.892H23zm.003-.023c.004-.006.025-.033.1-.065l-.575-1.373a1.68 1.68 0 00-.732.568l1.207.87zm.099-.064a.83.83 0 01.324-.057v-1.488c-.31 0-.612.052-.897.171l.572 1.374zm.324-.057h.024a.68.68 0 01.271.056l-.004-.002.631-1.348a2.13 2.13 0 00-.894-.194h-.029.001v1.488zm.296.057a.213.213 0 01.099.075v.001l1.247-.811a1.703 1.703 0 00-.715-.613l-.011-.004-.621 1.353zm.101.08a.163.163 0 01.026.088v.013-.001h1.488c0-.327-.087-.642-.272-.921l-1.242.82zm.769-.644h-.654v1.488h.655V24.2zm.09.744c0-.315-.107-.65-.392-.899l-.979 1.122a.38.38 0 01-.096-.134l-.001-.002a.236.236 0 01-.021-.086v-.001h1.488zm-.387-.894c-.269-.24-.597-.31-.88-.31v1.488c.024 0 .019.004-.004-.004a.294.294 0 01-.104-.062l.988-1.113zm-.88-.31c-.256 0-.563.054-.827.258l.908 1.179a.312.312 0 01-.095.052l-.002.001c-.015.004-.013 0 .016 0v-1.488zm-.821.253a1.058 1.058 0 00-.429.852v.008h1.488a.416.416 0 01-.046.186l.001-.002a.424.424 0 01-.117.144l-.001.001-.896-1.188zm-.429.859c0 .404.223.701.482.877l.834-1.233a.375.375 0 01.105.116l.001.002c.045.075.067.16.067.24h-1.488zm.487.879c.193.129.426.22.657.29l.431-1.425a1.197 1.197 0 01-.269-.106l.006.003-.826 1.238zm.658.29c.322.097.461.191.508.237l1.039-1.066c-.294-.286-.696-.469-1.118-.595l-.429 1.424zm.508.237a.09.09 0 01.022.029v.001a.157.157 0 01.008.049v.007h1.488c0-.438-.16-.84-.48-1.152l-1.039 1.066zm.03.085a.239.239 0 01-.003.041l-.002.004.002-.004-.013.013.897 1.188a1.51 1.51 0 00.607-1.242h-1.488zm-.013.053c-.04.03-.146.085-.394.085v1.488c.456 0 .91-.1 1.285-.382l-.892-1.191zm-.394.084a.914.914 0 01-.366-.069l-.602 1.361c.306.135.633.196.968.196V26.48zm-.362-.067a.338.338 0 01-.15-.109l-.001-.001-1.229.839c.195.287.465.491.77.627l.61-1.357zm-.148-.105a.21.21 0 01-.03-.125h-1.488c0 .339.089.666.283.956l1.235-.831zm-.774.619h.656v-1.488h-.656v1.488zm-.088-.744c0 .327.104.697.424.964.293.246.653.305.948.305v-1.488a.26.26 0 01-.074-.006.23.23 0 01.082.048.334.334 0 01.094.129l.001.002c.016.04.013.061.013.046h-1.488zm1.372 1.269c.244 0 .539-.048.798-.234l-.867-1.209a.282.282 0 01.09-.045h.002c.013-.004.007 0-.022 0v1.488zm.804-.238a1.05 1.05 0 00.435-.866h-1.488a.431.431 0 01.172-.333l.001-.001.88 1.2zm3.182-2.677v.744h.744v-.744h-.744zm-.973 0v-.744h-.744v.744h.744zm0 2.644v.744h.744v-.744h-.744zm-.654 0h-.744v.744h.744v-.744zm0-2.644h.744v-.744H25.8v.744zm-.959 0h-.744v.744h.744v-.744zm0-.53v-.744h-.744v.744h.744zm2.586 0h.744v-.744h-.744v.744zm0-.215h-.973v1.488h.973v-1.488zm-1.717.745v2.644h1.488v-2.644H25.71zm.744 1.899H25.8v1.488h.655v-1.488zm.09.745v-2.644h-1.488v2.644h1.488zm-.744-3.389h-.959v1.488h.96v-1.488zm-.215.745v-.53h-1.488v.53h1.488zm-.744.214h2.586v-1.488h-2.586v1.488zm1.842-.744v.53h1.488v-.53h-1.488zm3.029 1.798v.744h.744v-.744h-.744zm-1.257 0v-.744h-.744v.744h.744zm0 .85h-.744v.744h.744v-.744zm1.475 0h.744v-.744h-.744v.744zm0 .526v.744h.744v-.744h-.744zm-2.129 0h-.744v.744h.744v-.744zm0-3.174v-.744h-.744v.744h.744zm2.124 0h.744v-.744h-.744v.744zm0 .53v.744h.744v-.744h-.744zm-1.47 0v-.744h-.744v.744h.744zm0 .756h-.744v.744h.744v-.744zm1.257 0h.744v-.744h-.744v.744zm0-.232h-1.256v1.488h1.256v-1.488zm-2.001.744v.85h1.488v-.85h-1.488zm.744 1.594h1.474v-1.488h-1.474v1.488zm.731-.744v.525h1.488v-.525h-1.488zm.744-.219h-2.128v1.488h2.128v-1.488zm-1.384.745v-3.173h-1.488v3.174h1.488zm-.745-2.43h2.124v-1.488h-2.122v1.488zm1.38-.744v.53h1.488v-.53h-1.488zm.744-.215h-1.47v1.488h1.47v-1.488zm-2.214.745v.756h1.488v-.756h-1.488zm.744 1.5h1.256v-1.488h-1.256v1.488zm.512-.744v.513h1.488v-.513h-1.488zm2.522.726l.662-.339-.208-.405h-.455v.744zm-.521 0v-.744h-.744v.744h.744zm0 1.162v.744h.744v-.744h-.744zm-.655 0h-.744v.744h.744v-.744zm0-3.174v-.744h-.744v.744h.744zm2.211 1.501l-.624-.406-.002.002.625.404zm-.425.345l-.305-.679-.723.326.371.701.658-.348zm.687 1.297h.744v-.185l-.086-.164-.658.348zm0 .031v.744h.744v-.744h-.744zm-.703 0l-.662.339.208.405h.454v-.744zm-1.116-1.692h-.744v.744h.744v-.744zm.909-.124l.504.548.004-.004-.508-.543zm.007-.7l-.531.521.004.005.526-.526zm-.915-.128v-.744h-.744v.744h.744zm.521.738h-.521v1.488h.521v-1.488zm-1.265.744v1.162h1.488v-1.162h-1.488zm.744.417h-.655v1.488h.655v-1.488zm.089.745v-3.173h-1.488v3.174h1.488zm-.744-2.43h1.18v-1.488h-1.18v1.488zm1.18 0c.274 0 .371.062.394.082l.945-1.151c-.383-.315-.864-.42-1.34-.42v1.488zm.395.082a.052.052 0 01.018.021.3.3 0 01.015.112h1.488c0-.488-.173-.953-.577-1.284l-.945 1.15zm.034.133a.471.471 0 01-.011.11c-.005.019-.01.026-.01.027l1.248.811a1.71 1.71 0 00.262-.948h-1.488zm-.022.138a.095.095 0 01-.02.02.386.386 0 01-.084.049l-.003.001.612 1.357c.292-.132.558-.33.744-.619l-1.25-.808zm-.459 1.097l.687 1.297 1.316-.696-.687-1.298-1.316.697zm.601.949v.03h1.488v-.03h-1.488zm.744-.714h-.703v1.488h.703v-1.488zm-.04.405l-.595-1.162-1.325.679.595 1.162 1.325-.678zm-1.778-.608h.528v-1.488h-.528v1.488zm.527 0c.286 0 .616-.074.885-.32l-1.008-1.096a.304.304 0 01.109-.066l.002-.001c.025-.007.033-.005.012-.005v1.488zm.89-.325c.269-.252.371-.58.371-.89h-1.488c0-.002 0-.03.017-.074a.352.352 0 01.083-.123l1.017 1.087zm.371-.89c0-.298-.09-.623-.347-.88l-1.052 1.053a.338.338 0 01-.076-.117l-.001-.002c-.013-.037-.013-.059-.013-.054h1.488zm-.342-.874c-.278-.283-.638-.351-.921-.351v1.488c.03 0 .024.004-.004-.005a.358.358 0 01-.137-.089l1.061-1.043zm-.921-.352h-.526v1.488h.526v-1.488zm-1.27.745v.953h1.488v-.953h-1.488zm4.708 1.525v-.744h-.744v.744h.744zm0 1.119v.744h.744v-.744h-.744zm-.655 0h-.744v.744h.744v-.744zm0-3.174v-.744h-.744v.744h.744zm1.868.131l-.324.67.002.001.322-.671zm.418.372l-.637.385.002.003.636-.387zm-.174 1.284zm-1.457-.261h-.744v.744h.744v-.744zm.979-.123l-.494-.556-.004.004.499.552zm-.38-.873l.013-.744h-.013v.744zm-.599 0v-.744h-.744v.744h.744zm-.744 1.525v1.119h1.488v-1.118h-1.488zm.744.374h-.655v1.488h.655v-1.488zm.09.745v-3.173h-1.488v3.174h1.488zm-.745-2.43h1.239v-1.488h-1.238v1.488zm1.24 0a.69.69 0 01.304.057l.648-1.34a2.134 2.134 0 00-.922-.206h-.033.002v1.488zm.305.057a.23.23 0 01.104.085l.001.001 1.274-.769a1.713 1.713 0 00-.724-.655l-.01-.004-.644 1.342zm.105.09c.024.041.038.09.038.143l-.001.018v-.001h1.488c0-.328-.08-.647-.255-.935l-1.271.774zm.038.16c0 .119-.03.147-.056.168l.96 1.138c.401-.339.584-.804.584-1.306h-1.488zm-.056.167c-.036.031-.14.094-.403.094v1.488c.49 0 .975-.117 1.363-.444l-.959-1.139zm-.404.094h-.573v1.488h.573v-1.488zm-.573.958h.584v-1.488h-.584v1.488zm.585 0c.28 0 .618-.066.893-.314l-.997-1.105a.308.308 0 01.11-.066l.002-.001c.021-.007.022-.002-.008-.002v1.488zm.889-.31c.286-.255.387-.595.387-.905h-1.488c0 .002 0-.028.017-.072a.356.356 0 01.095-.135l.988 1.113zm.387-.905c0-.312-.097-.633-.344-.892l-1.076 1.028a.265.265 0 01-.057-.09l-.001-.002c-.011-.031-.01-.049-.01-.045h1.488zm-.344-.892a1.259 1.259 0 00-.904-.378l-.027 1.488c.009 0-.009.001-.042-.012a.296.296 0 01-.104-.071l1.077-1.027zm-.918-.378h-.599v1.488h.599v-1.488zm-1.343.745v.996h1.488v-.997h-1.488zm4.882 1.268v.744h.744v-.744h-.744zm-1.255 0v-.744h-.744v.744h.744zm0 .85h-.744v.744h.744v-.744zm1.473 0h.744v-.744h-.744v.744zm0 .526v.744h.744v-.744h-.744zm-2.128 0h-.744v.744h.744v-.744zm0-3.174v-.744h-.744v.744h.744zm2.124 0h.744v-.744h-.744v.744zm0 .53v.744h.744v-.744h-.744zm-1.469 0v-.744h-.744v.744h.744zm0 .756h-.744v.744h.744v-.744zm1.255 0h.744v-.744h-.744v.744zm0-.232h-1.255v1.488h1.255v-1.488zm-2 .744v.85h1.488v-.85h-1.488zm.745 1.594h1.474v-1.488h-1.474v1.488zm.729-.744v.525h1.488v-.525h-1.488zm.744-.219h-2.128v1.488h2.128v-1.488zm-1.384.745v-3.173h-1.488v3.174h1.488zm-.744-2.43h2.124v-1.488H37.16v1.488zm1.379-.744v.53h1.488v-.53h-1.488zm.745-.215h-1.469v1.488h1.469v-1.488zm-2.214.745v.756h1.488v-.756h-1.488zm.745 1.5h1.255v-1.488h-1.255v1.488zm.511-.744v.513h1.488v-.513h-1.488zm3.779-.756v.744h.744v-.744h-.744zm-.972 0v-.744h-.744v.744h.744zm0 2.644v.744h.744v-.744h-.744zm-.655 0h-.744v.744h.744v-.744zm0-2.644h.744v-.744h-.744v.744zm-.958 0h-.744v.744h.744v-.744zm0-.53v-.744h-.744v.744h.744zm2.585 0h.744v-.744h-.744v.744zm0-.215h-.972v1.488h.972v-1.488zm-1.716.745v2.644h1.488v-2.644h-1.488zm.744 1.899h-.655v1.488h.655v-1.488zm.089.745v-2.644h-1.488v2.644h1.488zm-.744-3.389h-.959v1.488h.959v-1.488zm-.214.745v-.53h-1.488v.53h1.488zm-.744.214h2.585v-1.488h-2.585v1.488zm1.841-.744v.53h1.488v-.53H41.36zm3.028 1.798v.744h.744v-.744h-.744zm-1.255 0v-.744h-.744v.744h.744zm0 .85h-.744v.744h.744v-.744zm1.473 0h.744v-.744h-.744v.744zm0 .526v.744h.744v-.744h-.744zm-2.127 0h-.744v.744h.744v-.744zm0-3.174v-.744h-.744v.744h.744zm2.124 0h.744v-.744h-.744v.744zm0 .53v.744h.744v-.744h-.744zm-1.47 0v-.744h-.744v.744h.744zm0 .756h-.744v.744h.744v-.744zm1.256 0h.744v-.744h-.744v.744zm0-.232h-1.256v1.488h1.256v-1.488zm-2 .744v.85h1.488v-.85h-1.488zm.744 1.594h1.474v-1.488h-1.474v1.488zm.729-.744v.525h1.488v-.525h-1.488zm.744-.219h-2.128v1.488h2.128v-1.488zm-1.383.745v-3.173h-1.488v3.174h1.488zm-.744-2.43h2.124v-1.488h-2.125v1.488zm1.38-.744v.53h1.488v-.53h-1.488zm.744-.215h-1.47v1.488h1.47v-1.488zm-2.214.745v.756h1.488v-.756h-1.488zm.744 1.5h1.256v-1.488h-1.256v1.488zm.512-.744v.513h1.488v-.513h-1.488zm2.521.726l.662-.339-.207-.405h-.455v.744zm-.521 0v-.744h-.744v.744h.744zm0 1.162v.744h.744v-.744h-.744zm-.655 0h-.744v.744h.744v-.744zm0-3.174v-.744h-.744v.744h.744zm2.212 1.501l-.624-.406-.002.002.625.404zm-.425.345l-.306-.679-.723.326.371.701.658-.348zm.686 1.297h.744v-.185l-.086-.164-.658.348zm0 .031v.744h.744v-.744h-.744zm-.702 0l-.662.339.208.405h.455v-.744zm-1.116-1.692h-.744v.744h.744v-.744zm.909-.124l.504.548.004-.004-.508-.543zm.007-.7l-.531.521.005.005.526-.526zm-.916-.128v-.744h-.744v.744h.744zm.521.738h-.521v1.488h.521v-1.488zm-1.265.744v1.162h1.488v-1.162h-1.488zm.744.417h-.655v1.488h.655v-1.488zm.09.745v-3.173h-1.488v3.174h1.488zm-.745-2.43h1.18v-1.488h-1.18v1.488zm1.18 0c.275 0 .372.062.396.082l.944-1.151c-.383-.315-.865-.42-1.34-.42v1.488zm.396.082c.012.01.015.015.017.022.01.028.016.061.016.095l-.001.017v-.001h1.488c0-.488-.173-.953-.577-1.284l-.945 1.15zm.033.133a.471.471 0 01-.011.11c-.005.019-.01.026-.01.027l1.247.811a1.71 1.71 0 00.262-.948h-1.488zm-.023.138c-.005.008-.012.014-.019.02a.386.386 0 01-.084.049l-.003.001.611 1.357c.292-.132.558-.33.744-.619l-1.249-.808zm-.457 1.097l.687 1.297 1.315-.696-.687-1.298-1.315.697zm.599.949v.03h1.488v-.03h-1.488zm.745-.714h-.702v1.488h.703v-1.488zm-.04.405l-.595-1.162-1.325.679.595 1.162 1.325-.678zm-1.778-.608h.528v-1.488h-.528v1.488zm.528 0c.285 0 .616-.074.885-.32l-1.008-1.096a.3.3 0 01.108-.066l.002-.001c.026-.007.033-.005.012-.005v1.488zm.889-.325c.269-.252.371-.58.371-.89h-1.488c0-.002.001-.03.017-.074a.354.354 0 01.084-.123l1.017 1.087zm.371-.89c0-.298-.089-.623-.346-.88l-1.053 1.053a.335.335 0 01-.075-.117l-.001-.002c-.013-.037-.013-.059-.013-.054h1.488zm-.342-.874c-.278-.283-.637-.351-.921-.351v1.488c.03 0 .025.004-.004-.005a.358.358 0 01-.137-.089l1.062-1.043zm-.921-.352h-.525v1.488h.525v-1.488zm-1.27.745v.953h1.488v-.953H44.9zm4.458 1.527l-.453.591.006.004.447-.595zm-.471-.208l-.231.707.004.001.228-.708zm-.539-.219zm-.396-1.245l-.604-.435v.001l.604.434zm.416-.316l-.286-.687-.002.001.287.686zm1.216.011l-.315.674.004.002.31-.676zm.413.347l-.624.406.002.004.621-.41zm.148.51v.744h.744v-.744h-.744zm-.654 0h-.744v.744h.744v-.744zm-.137-.337l-.495.556.005.004.49-.56zm-.759-.021l.448.595.006-.005-.454-.589zm.022.526l-.417.617.004.002.412-.619zm.46.196l-.216.712h.002l.214-.712zm.756 1.683l.447.596.002-.002-.449-.594zm-1.506.1l-.305.679.004.002.301-.681zm-.46-.368l-.618.416.003.004.614-.42zm-.157-.54v-.744h-.744v.744h.744zm.655 0h.744v-.744h-.744v.744zm.992.431l.434.605.007-.005-.441-.6zm.876-.266c0-.322-.127-.653-.429-.878l-.893 1.191a.441.441 0 01-.13-.161l-.001-.003a.38.38 0 01-.036-.148h1.488zm-.422-.874c-.197-.151-.461-.252-.697-.327l-.454 1.417c.097.031.165.058.212.078.052.023.054.03.033.013l.906-1.181zm-.693-.326c-.162-.05-.3-.106-.432-.173l.015.007-.707 1.31c.188.101.414.19.661.271l.462-1.415zm-.416-.166a.417.417 0 01-.145-.109v-.001l-.002-.004-.001-.004-.002-.015h-1.488c0 .674.399 1.154.932 1.442l.707-1.31zm-.151-.131l.002-.021v.001l.002-.004-1.209-.868c-.177.244-.283.55-.283.88v.013-.001h1.488zm.004-.023c.004-.006.025-.033.1-.065l-.575-1.373a1.69 1.69 0 00-.733.568l1.208.87zm.098-.064a.835.835 0 01.325-.057v-1.488c-.31 0-.612.052-.897.171l.572 1.374zm.326-.057h.024a.68.68 0 01.271.056l-.004-.002.63-1.348a2.13 2.13 0 00-.894-.194h-.028.001v1.488zm.295.057a.219.219 0 01.099.075v.001l1.247-.811a1.703 1.703 0 00-.715-.613l-.011-.004-.621 1.353zm.101.08a.163.163 0 01.026.088l-.001.013v-.001h1.488c0-.327-.087-.642-.272-.921l-1.242.82zm.77-.644h-.654v1.488h.654V24.2zm.09.744c0-.315-.107-.65-.392-.899l-.979 1.122a.38.38 0 01-.096-.134l-.001-.002a.259.259 0 01-.021-.086v-.001h1.488zm-.387-.894c-.269-.24-.598-.31-.88-.31v1.488c.023 0 .019.004-.004-.004a.294.294 0 01-.104-.062l.988-1.113zm-.881-.31c-.256 0-.563.054-.827.258l.908 1.179a.312.312 0 01-.095.052l-.002.001c-.016.004-.013 0 .016 0v-1.488zm-.82.253a1.058 1.058 0 00-.429.852v.008h1.488a.416.416 0 01-.046.186l.001-.002a.424.424 0 01-.117.144l-.001.001-.896-1.188zm-.43.859c0 .404.223.701.482.877l.834-1.233a.375.375 0 01.105.116l.001.002c.045.075.067.16.067.24h-1.488zm.487.879c.193.129.426.22.657.29l.431-1.425a1.197 1.197 0 01-.269-.106l.006.003-.826 1.238zm.658.29c.322.097.461.191.508.237l1.039-1.066c-.294-.286-.696-.469-1.118-.595l-.429 1.424zm.508.237a.09.09 0 01.022.029v.001a.157.157 0 01.008.049v.007h1.488c0-.438-.16-.84-.48-1.152l-1.039 1.066zm.031.085a.239.239 0 01-.003.041l-.002.004.002-.004-.014.013.898 1.188a1.51 1.51 0 00.607-1.242h-1.488zm-.014.053c-.04.03-.147.085-.394.085v1.488c.456 0 .91-.1 1.285-.382l-.892-1.191zm-.394.084a.907.907 0 01-.366-.069l-.602 1.361c.306.135.633.196.968.196V26.48zm-.361-.067a.338.338 0 01-.15-.109l-.001-.001-1.23.839c.196.287.466.491.77.627l.61-1.357zm-.148-.105c-.015-.022-.03-.054-.03-.125h-1.488c0 .339.089.666.283.956l1.235-.831zm-.774.619h.656v-1.488h-.656v1.488zm-.089-.744c0 .327.104.697.424.964.293.246.653.305.948.305v-1.488a.26.26 0 01-.074-.006.23.23 0 01.082.048.334.334 0 01.094.129l.001.002c.016.04.013.061.013.046h-1.488zm1.372 1.269c.244 0 .539-.048.798-.234l-.867-1.209a.282.282 0 01.09-.045h.002c.013-.004.007 0-.022 0v1.488zm.804-.238a1.05 1.05 0 00.435-.866h-1.488a.431.431 0 01.172-.333l.001-.001.88 1.2z"/></symbol><symbol id="icon-client-logo-5" viewBox="0 0 40 32"><path fill="var(--color1, #afb1b8)" d="M3.056 26.742c.157.194.24.438.236.688l.001.053c0 .324-.141.615-.365.815l-.001.001a1.575 1.575 0 01-1.061.317H.001v-4.361h1.827a1.548 1.548 0 011.017.294l-.004-.003a.994.994 0 01.353.818v-.003c.011.24-.065.477-.212.667a.99.99 0 01-.556.34c.247.046.471.177.63.373zm-2.188-.658h.78a.733.733 0 00.497-.145.518.518 0 00.169-.383l-.002-.045v.002l.001-.037a.535.535 0 00-.167-.389.75.75 0 00-.514-.147h.003-.767v1.144zm1.354 1.672a.542.542 0 00.186-.408l-.001-.036v.002l.001-.032a.552.552 0 00-.189-.416l-.001-.001a.8.8 0 00-.48-.159l-.054.002h.002-.818v1.199h.829a.816.816 0 00.524-.151zm4.568.861l-1.016-1.704h-.382v1.704h-.874v-4.361h1.654a1.624 1.624 0 011.156.373l-.003-.002a1.391 1.391 0 01.12 1.808l.003-.004a1.337 1.337 0 01-.789.443l1.083 1.743h-.95zm-1.398-2.299h.715c.497 0 .745-.22.745-.66l.001-.037a.647.647 0 00-.184-.453.767.767 0 00-.566-.177h.003-.724l.009 1.328zm6.176 1.421H9.826l-.308.878h-.916l1.6-4.313h.991l1.593 4.312h-.916l-.301-.878zm-.233-.66l-.637-1.84-.637 1.84h1.273zm6.215 1.538h-.869l-1.946-2.965v2.965h-.865v-4.361h.865l1.946 2.982v-2.982h.868v4.361zm4.952-1.044c-.182.33-.45.593-.775.764l-.01.005a2.545 2.545 0 01-1.22.274h-1.546v-4.361h1.546l.067-.001c.42 0 .817.1 1.168.277l-.015-.007c.332.168.606.433.786.761.171.333.272.727.272 1.144s-.1.811-.278 1.158l.007-.014zm-.993-.104c.239-.278.384-.642.384-1.041s-.145-.763-.386-1.043l.002.002a1.5 1.5 0 00-1.091-.371h.004-.603v2.823h.603a1.496 1.496 0 001.088-.372l-.002.001zM12.111 0s11.201 4.246 10.964 10.39v10.392S11.882 16.534 12.116 10.39L12.111 0zm20.942 18.349a15.15 15.15 0 017.049-2.628l.068-.006v-3.253c-2.995 1.181-5.437 3.227-7.081 5.827l-.035.06z"/><path fill="var(--color1, #afb1b8)" d="M31.782 19.329c1.749-3.487 4.693-6.158 8.283-7.513l.105-.035V2.408S24.218 8.456 24.555 17.205v14.796s.711-.27 1.829-.778c0-.473 0-.95.05-1.43a15.388 15.388 0 015.327-10.447l.021-.017z"/><path fill="var(--color1, #afb1b8)" d="M30.266 24.825a15.3 15.3 0 01.558-3.03 14.243 14.243 0 00-3.378 8.921v.016a44.08 44.08 0 003.286-1.741l-.218.118c-.191-.908-.3-1.952-.3-3.021 0-.445.019-.885.056-1.32l-.004.057zm.634.053a14.803 14.803 0 00.212 3.971l-.015-.092c4.358-2.619 9.255-6.664 9.067-11.553v-.426a14.265 14.265 0 00-8.297 3.894l.005-.005a14.228 14.228 0 00-.968 4.158l-.003.052z"/></symbol><symbol id="icon-client-logo-6" viewBox="0 0 62 32"><path fill="var(--color1, #afb1b8)" d="M31.123 14.854a2.248 2.248 0 01-.396-1.437v.007-2.074c0-.637.132-1.12.394-1.45s.715-.495 1.356-.494c.602 0 1.03.141 1.282.422.275.359.41.798.379 1.241v.487h-1.077v-.494l.001-.064c0-.148-.012-.293-.034-.435l.002.016a.482.482 0 00-.153-.287.575.575 0 00-.345-.113l-.048.002h.002a.616.616 0 00-.412.119l.002-.001a.568.568 0 00-.178.313l-.001.004a2.594 2.594 0 00-.042.513v2.518a1.425 1.425 0 00.142.715l-.004-.008a.526.526 0 00.212.171l.003.001a.544.544 0 00.28.04h-.003a.545.545 0 00.382-.115l-.001.001a.522.522 0 00.16-.303v-.003c.026-.167.037-.336.034-.504v-.511h1.077v.466a2.015 2.015 0 01-.377 1.311l.004-.006c-.247.308-.669.462-1.288.462s-1.088-.164-1.354-.506zm4.485.022c-.272-.323-.408-.794-.408-1.416v-2.183c0-.616.136-1.082.408-1.399s.726-.474 1.364-.473c.633 0 1.085.158 1.358.473.271.317.41.783.41 1.399v2.183c0 .616-.139 1.089-.415 1.414-.277.325-.727.487-1.354.487s-1.09-.164-1.364-.485zm1.865-.524c.097-.202.142-.424.129-.646v-2.672l.002-.072a1.28 1.28 0 00-.133-.569l.003.007a.528.528 0 00-.216-.173l-.003-.001a.533.533 0 00-.287-.037h.003a.546.546 0 00-.289.039l.004-.001a.527.527 0 00-.219.172l-.001.001a1.242 1.242 0 00-.129.633v2.685a1.29 1.29 0 00.129.646.672.672 0 00.222.158l.004.002a.692.692 0 00.558-.002l-.005.002a.672.672 0 00.226-.16v-.013zm2.562-4.884h1.16l.872 4.028.892-4.028h1.128l.113 5.813h-.833l-.089-4.04-.861 4.04h-.669l-.892-4.054-.083 4.054h-.843l.104-5.812zm5.465 0h1.806c1.04 0 1.56.55 1.56 1.651 0 1.054-.547 1.58-1.643 1.579h-.614v2.583h-1.115l.007-5.812zm1.543 2.484c.11.014.222.004.327-.028a.78.78 0 00.286-.155 1.01 1.01 0 00.16-.657l.001-.067c0-.163-.02-.322-.057-.474l.003.014a.425.425 0 00-.083-.161l.001.001a.484.484 0 00-.139-.116l-.002-.001a1.055 1.055 0 00-.499-.092h.003-.433v1.736h.433zm3.431-2.484h1.197l1.229 5.813h-1.039l-.243-1.341H50.55l-.25 1.341h-1.055l1.229-5.812zm1.023 3.799l-.417-2.44-.417 2.44h.835zm2.395-3.799h.779l1.494 3.316V9.468h.925v5.812h-.742l-1.503-3.462v3.462h-.957l.002-5.812zm5.366 3.596l-1.242-3.588h1.046l.758 2.305.711-2.305h1.023l-1.226 3.588v2.216h-1.071v-2.216zm-26.413 4.758v.304h-.91v2.362h-.381v-2.362h-.914v-.304h2.205zm2.852 2.666h-.302a.124.124 0 01-.075-.026.134.134 0 01-.048-.06v-.001l-.263-.633h-1.262l-.264.633a.181.181 0 01-.04.072.124.124 0 01-.076.025h-.301l1.115-2.666h.387l1.128 2.655zm-1.847-.99h1.053l-.446-1.085a1.908 1.908 0 01-.08-.236l-.003-.014-.042.141-.04.111-.442 1.083zm3.769.728c.07.003.139.003.209 0 .061-.006.12-.017.179-.032a1.3 1.3 0 00.169-.052l-.009.003c.049-.019.099-.042.15-.065v-.6h-.451a.082.082 0 01-.055-.021.057.057 0 01-.022-.046v-.208h.865v1.022a1.61 1.61 0 01-.459.214l-.012.003a1.747 1.747 0 01-.269.055l-.009.001a2.896 2.896 0 01-.321.017h-.018c-.197 0-.386-.037-.56-.103l.011.004a1.34 1.34 0 01-.446-.279l.001.001a1.293 1.293 0 01-.285-.414l-.003-.008a1.424 1.424 0 01-.103-.535v-.018-.016c0-.195.037-.38.105-.551l-.004.01c.064-.158.161-.301.287-.422.127-.12.279-.214.446-.277a1.71 1.71 0 01.598-.099c.104 0 .207.007.31.023.09.014.179.036.266.067a1.2 1.2 0 01.223.106c.069.042.134.088.195.139l-.108.165a.103.103 0 01-.036.036.098.098 0 01-.051.014.137.137 0 01-.07-.021h.001a1.281 1.281 0 01-.114-.066l.005.003a.905.905 0 00-.143-.07l-.007-.002a1.21 1.21 0 00-.197-.058l-.008-.001a1.495 1.495 0 00-.268-.023h-.016.001-.013c-.15 0-.293.027-.425.077l.008-.003a.912.912 0 00-.328.211.924.924 0 00-.207.332 1.338 1.338 0 00.003.898l-.003-.009c.049.125.125.24.223.335a.935.935 0 00.326.211c.142.046.292.064.442.053zm3.553-.042h1.217v.304h-1.59v-2.666h.381l-.009 2.362zm2.484.303h-.381v-2.664h.381v2.666zm1.418-2.653a.192.192 0 01.057.048l1.63 2.01-.002-.048.002-.05v.002-1.986h.332v2.676h-.191l-.013.001a.171.171 0 01-.071-.016h.001a.266.266 0 01-.06-.05l-1.628-2.007v2.072h-.319v-2.665h.198c.022 0 .043.004.063.013zm4.827-.012v.294H48.55v.88h1.095v.282H48.55v.91h1.351v.294h-1.743v-2.659h1.743zM9.95 1.359l16.929 4.55v15.946L9.952 17.308V1.359zM8.865 0v18.081l19.098 5.135V5.136L8.865-.001z"/><path fill="var(--color1, #afb1b8)" d="M19.1 31.61L0 26.471V8.391l19.1 5.137V31.61z"/><path fill="var(--color1, #afb1b8)" d="M9.181 1.155l16.707 4.493-7.105 6.728-16.71-4.495L9.18 1.154zM8.865 0L0 8.392l19.1 5.137 8.863-8.392L8.865 0zm11.31 30.593l7.788-7.374-7.788-2.096v9.47z"/></symbol><symbol id="icon-facebook" viewBox="0 0 32 32"><path fill="var(--color1, #afb1b8)" d="M21.328 5.312h2.923V.224A36.483 36.483 0 0020.143 0h-.156.008c-4.213 0-7.099 2.65-7.099 7.52V12H8.25v5.688h4.646V32h5.699V17.69h4.459l.707-5.688h-5.168V8.08c0-1.643.443-2.768 2.734-2.768z"/></symbol><symbol id="icon-instagram" viewBox="0 0 32 32"><path fill="var(--color3, #fff)" d="M31.968 9.408c-.074-1.701-.349-2.869-.742-3.882a7.839 7.839 0 00-1.85-2.837l-.001-.001A7.906 7.906 0 0026.597.861l-.054-.018C25.524.449 24.362.176 22.661.101 20.949.019 20.405 0 16.059 0c-4.344 0-4.888.019-6.595.094-1.699.074-2.869.349-3.88.742a7.847 7.847 0 00-2.839 1.85l-.001.001A7.9 7.9 0 00.919 5.465l-.018.054C.506 6.538.232 7.7.157 9.401c-.082 1.712-.101 2.256-.101 6.602 0 4.344.019 4.888.094 6.595.075 1.701.35 2.869.744 3.882a7.915 7.915 0 001.849 2.837l.001.001c.8.813 1.77 1.443 2.832 1.843 1.019.395 2.182.67 3.882.744 1.707.075 2.251.094 6.595.094 4.346 0 4.89-.019 6.595-.094 1.701-.074 2.869-.349 3.882-.742a8.237 8.237 0 004.664-4.628l.019-.055c.394-1.019.669-2.182.744-3.882.075-1.707.093-2.251.093-6.595s-.006-4.888-.08-6.595zm-2.88 13.066c-.07 1.563-.333 2.406-.55 2.97a5.341 5.341 0 01-3.004 3.024l-.036.012c-.56.219-1.411.482-2.968.55-1.688.075-2.194.094-6.464.094-4.269 0-4.782-.019-6.464-.094-1.563-.069-2.406-.331-2.97-.55a4.953 4.953 0 01-1.836-1.192l-.001-.001a4.978 4.978 0 01-1.184-1.803L3.6 25.45c-.218-.563-.48-1.413-.549-2.97-.075-1.688-.094-2.195-.094-6.464 0-4.27.019-4.784.094-6.464.069-1.563.331-2.406.549-2.97a4.897 4.897 0 011.198-1.837l.002-.002a4.972 4.972 0 011.806-1.182l.034-.011c.56-.219 1.411-.48 2.968-.55 1.688-.074 2.195-.093 6.464-.093 4.275 0 4.782.019 6.464.093 1.563.069 2.406.331 2.97.55a4.91 4.91 0 011.837 1.194c.531.52.938 1.144 1.195 1.84.218.56.48 1.411.549 2.968.075 1.688.094 2.194.094 6.464 0 4.269-.019 4.768-.094 6.458z"/><path fill="var(--color3, #fff)" d="M16.059 7.782a8.223 8.223 0 00-8.219 8.221v.002a8.222 8.222 0 1016.444 0 8.222 8.222 0 00-8.222-8.222h-.002zm0 13.552a5.333 5.333 0 01.001-10.666h.001a5.334 5.334 0 110 10.668zM26.525 7.458a1.92 1.92 0 01-3.84 0 1.92 1.92 0 013.84 0z"/></symbol><symbol id="icon-linkedin" viewBox="0 0 32 32"><path fill="var(--color1, #afb1b8)" d="M31.992 32H32V20.262c0-5.741-1.237-10.163-7.947-10.163-3.227 0-5.392 1.77-6.277 3.45h-.093v-2.914h-6.365v21.363h6.627V21.42c0-2.786.528-5.48 3.978-5.48 3.398 0 3.448 3.179 3.448 5.658V32h6.621zM.528 10.635h6.635V32H.528V10.635zM3.843 0A3.843 3.843 0 000 3.843c0 2.12 1.722 3.878 3.843 3.878 2.12 0 3.842-1.757 3.842-3.878S5.965.002 3.844 0z"/></symbol><symbol id="icon-mail-icon" viewBox="0 0 43 32"><path fill="var(--color4, #757575)" d="M38.667 0H4C1.795 0 0 1.795 0 4v24c0 2.205 1.795 4 4 4h34.667c2.205 0 4-1.795 4-4V4c0-2.205-1.795-4-4-4zm0 2.667c.181 0 .355.037.512.104L21.334 18.238 3.489 2.771c.151-.065.327-.104.512-.104h34.667zm0 26.666H4A1.333 1.333 0 012.667 28V5.587l17.792 15.421c.233.203.539.327.875.327s.642-.124.876-.328l-.002.001L40 5.587V28c0 .736-.597 1.333-1.333 1.333z"/></symbol><symbol id="icon-phone-icon" viewBox="0 0 20 32"><path fill="var(--color4, #757575)" d="M17 0H3C1.346 0 0 1.346 0 3v26c0 1.654 1.346 3 3 3h14c1.654 0 3-1.346 3-3V3c0-1.654-1.346-3-3-3zM3 2h14a1 1 0 011 1v21H2V3a1 1 0 011-1zm14 28H3a1 1 0 01-1-1v-3h16v3a1 1 0 01-1 1z"/><path fill="var(--color4, #757575)" d="M4.708 27.478a.889.889 0 01.001 1.319l-.001.001a1.048 1.048 0 01-1.417 0l.001.001a.889.889 0 01-.001-1.319l.001-.001a1.048 1.048 0 011.417 0l-.001-.001z"/></symbol><symbol id="icon-twitter" viewBox="0 0 32 32"><path fill="var(--color1, #afb1b8)" d="M32 6.078c-1.1.493-2.376.857-3.713 1.028l-.068.007a6.556 6.556 0 002.873-3.579l.013-.046a12.88 12.88 0 01-4.076 1.573l-.084.014A6.558 6.558 0 0015.6 9.557v.004c0 .52.043 1.021.152 1.496-5.454-.266-10.28-2.88-13.522-6.861a6.524 6.524 0 00-.902 3.313v.001a6.57 6.57 0 002.914 5.451 6.453 6.453 0 01-2.994-.823l.033.017v.072a6.592 6.592 0 005.213 6.44l.043.008a6.403 6.403 0 01-1.662.215h-.061.003c-.419 0-.843-.024-1.242-.112.85 2.598 3.261 4.509 6.13 4.57a13.093 13.093 0 01-8.122 2.8H1.57h.001-.062c-.531 0-1.055-.034-1.569-.099l.061.006c2.826 1.846 6.287 2.944 10.004 2.944h.063-.003c12.072 0 18.672-10 18.672-18.669 0-.288-.01-.57-.024-.848a13.203 13.203 0 003.258-3.355l.03-.047z"/></symbol></defs></svg>